<?xml version="1.0" encoding="UTF-8"?>
<!--Generator: Apple Native CoreSVG 232.5-->
<!DOCTYPE svg
PUBLIC "-//W3C//DTD SVG 1.1//EN"
       "http://www.w3.org/Graphics/SVG/1.1/DTD/svg11.dtd">
<svg version="1.1" xmlns="http://www.w3.org/2000/svg" xmlns:xlink="http://www.w3.org/1999/xlink" width="3300" height="2200">
 <!--glyph: "", point size: 100.0, font version: "19.0d7e1", template writer version: "128"-->
 <style>.monochrome-0 {-sfsymbols-variable-threshold:0.0;-sfsymbols-motion-group:9;-sfsymbols-always-pulses:true}
.monochrome-1 {-sfsymbols-variable-threshold:0.12;-sfsymbols-motion-group:8;-sfsymbols-always-pulses:true}
.monochrome-2 {-sfsymbols-variable-threshold:0.23;-sfsymbols-motion-group:7;-sfsymbols-always-pulses:true}
.monochrome-3 {-sfsymbols-variable-threshold:0.34;-sfsymbols-motion-group:6;-sfsymbols-always-pulses:true}
.monochrome-4 {-sfsymbols-variable-threshold:0.45;-sfsymbols-motion-group:5;-sfsymbols-always-pulses:true}
.monochrome-5 {-sfsymbols-variable-threshold:0.57;-sfsymbols-motion-group:4;-sfsymbols-always-pulses:true}
.monochrome-6 {-sfsymbols-variable-threshold:0.68;-sfsymbols-motion-group:3;-sfsymbols-always-pulses:true}
.monochrome-7 {-sfsymbols-variable-threshold:0.79;-sfsymbols-motion-group:2;-sfsymbols-always-pulses:true}
.monochrome-8 {-sfsymbols-variable-threshold:0.9;-sfsymbols-motion-group:1;-sfsymbols-always-pulses:true}
.monochrome-9 {-sfsymbols-motion-group:0}

.multicolor-0:systemTealColor {-sfsymbols-variable-threshold:0.0;-sfsymbols-motion-group:9;-sfsymbols-always-pulses:true}
.multicolor-1:systemPinkColor {-sfsymbols-variable-threshold:0.12;-sfsymbols-motion-group:8;-sfsymbols-always-pulses:true}
.multicolor-2:systemIndigoColor {-sfsymbols-variable-threshold:0.23;-sfsymbols-motion-group:7;-sfsymbols-always-pulses:true}
.multicolor-3:systemMintColor {-sfsymbols-variable-threshold:0.34;-sfsymbols-motion-group:6;-sfsymbols-always-pulses:true}
.multicolor-4:systemGreenColor {-sfsymbols-variable-threshold:0.45;-sfsymbols-motion-group:5;-sfsymbols-always-pulses:true}
.multicolor-5:systemYellowColor {-sfsymbols-variable-threshold:0.57;-sfsymbols-motion-group:4;-sfsymbols-always-pulses:true}
.multicolor-6:systemOrangeColor {-sfsymbols-variable-threshold:0.68;-sfsymbols-motion-group:3;-sfsymbols-always-pulses:true}
.multicolor-7:systemRedColor {-sfsymbols-variable-threshold:0.79;-sfsymbols-motion-group:2;-sfsymbols-always-pulses:true}
.multicolor-8:systemCyanColor {-sfsymbols-variable-threshold:0.9;-sfsymbols-motion-group:1;-sfsymbols-always-pulses:true}
.multicolor-9:tintColor {-sfsymbols-motion-group:0}

.hierarchical-0:primary {-sfsymbols-variable-threshold:0.0;-sfsymbols-motion-group:9}
.hierarchical-1:primary {-sfsymbols-variable-threshold:0.12;-sfsymbols-motion-group:8}
.hierarchical-2:primary {-sfsymbols-variable-threshold:0.23;-sfsymbols-motion-group:7}
.hierarchical-3:primary {-sfsymbols-variable-threshold:0.34;-sfsymbols-motion-group:6}
.hierarchical-4:primary {-sfsymbols-variable-threshold:0.45;-sfsymbols-motion-group:5}
.hierarchical-5:primary {-sfsymbols-variable-threshold:0.57;-sfsymbols-motion-group:4}
.hierarchical-6:primary {-sfsymbols-variable-threshold:0.68;-sfsymbols-motion-group:3}
.hierarchical-7:primary {-sfsymbols-variable-threshold:0.79;-sfsymbols-motion-group:2}
.hierarchical-8:primary {-sfsymbols-variable-threshold:0.9;-sfsymbols-motion-group:1}
.hierarchical-9:primary {-sfsymbols-motion-group:0}

.SFSymbolsPreviewWireframe {fill:none;opacity:1.0;stroke:black;stroke-width:0.5}
</style>
 <g id="Notes">
  <rect height="2200" id="artboard" style="fill:white;opacity:1" width="3300" x="0" y="0"/>
  <line style="fill:none;stroke:black;opacity:1;stroke-width:0.5;" x1="263" x2="3036" y1="292" y2="292"/>
  <text style="stroke:none;fill:black;font-family:sans-serif;font-size:13;font-weight:bold;" transform="matrix(1 0 0 1 263 322)">Weight/Scale Variations</text>
  <text style="stroke:none;fill:black;font-family:sans-serif;font-size:13;text-anchor:middle;" transform="matrix(1 0 0 1 559.711 322)">Ultralight</text>
  <text style="stroke:none;fill:black;font-family:sans-serif;font-size:13;text-anchor:middle;" transform="matrix(1 0 0 1 856.422 322)">Thin</text>
  <text style="stroke:none;fill:black;font-family:sans-serif;font-size:13;text-anchor:middle;" transform="matrix(1 0 0 1 1153.13 322)">Light</text>
  <text style="stroke:none;fill:black;font-family:sans-serif;font-size:13;text-anchor:middle;" transform="matrix(1 0 0 1 1449.84 322)">Regular</text>
  <text style="stroke:none;fill:black;font-family:sans-serif;font-size:13;text-anchor:middle;" transform="matrix(1 0 0 1 1746.56 322)">Medium</text>
  <text style="stroke:none;fill:black;font-family:sans-serif;font-size:13;text-anchor:middle;" transform="matrix(1 0 0 1 2043.27 322)">Semibold</text>
  <text style="stroke:none;fill:black;font-family:sans-serif;font-size:13;text-anchor:middle;" transform="matrix(1 0 0 1 2339.98 322)">Bold</text>
  <text style="stroke:none;fill:black;font-family:sans-serif;font-size:13;text-anchor:middle;" transform="matrix(1 0 0 1 2636.69 322)">Heavy</text>
  <text style="stroke:none;fill:black;font-family:sans-serif;font-size:13;text-anchor:middle;" transform="matrix(1 0 0 1 2933.4 322)">Black</text>
  <line style="fill:none;stroke:black;opacity:1;stroke-width:0.5;" x1="263" x2="3036" y1="1903" y2="1903"/>
  <g transform="matrix(0.2 0 0 0.2 263 1933)">
   <path d="m46.2402 4.15039c21.5332 0 39.4531-17.8711 39.4531-39.4043s-17.9688-39.4043-39.502-39.4043c-21.4844 0-39.3555 17.8711-39.3555 39.4043s17.9199 39.4043 39.4043 39.4043Zm0-7.42188c-17.7246 0-31.8848-14.209-31.8848-31.9824s14.1113-31.9824 31.8359-31.9824c17.7734 0 32.0312 14.209 32.0312 31.9824s-14.209 31.9824-31.9824 31.9824Zm-17.9688-31.9824c0 2.14844 1.51367 3.61328 3.75977 3.61328h10.498v10.5957c0 2.19727 1.46484 3.71094 3.61328 3.71094 2.24609 0 3.71094-1.51367 3.71094-3.71094v-10.5957h10.5957c2.19727 0 3.71094-1.46484 3.71094-3.61328 0-2.19727-1.51367-3.71094-3.71094-3.71094h-10.5957v-10.5469c0-2.24609-1.46484-3.75977-3.71094-3.75977-2.14844 0-3.61328 1.51367-3.61328 3.75977v10.5469h-10.498c-2.24609 0-3.75977 1.51367-3.75977 3.71094Z"/>
  </g>
  <g transform="matrix(0.2 0 0 0.2 281.506 1933)">
   <path d="m58.5449 14.5508c27.2461 0 49.8047-22.6074 49.8047-49.8047 0-27.2461-22.6074-49.8047-49.8535-49.8047-27.1973 0-49.7559 22.5586-49.7559 49.8047 0 27.1973 22.6074 49.8047 49.8047 49.8047Zm0-8.30078c-23.0469 0-41.4551-18.457-41.4551-41.5039s18.3594-41.5039 41.4062-41.5039 41.5527 18.457 41.5527 41.5039-18.457 41.5039-41.5039 41.5039Zm-22.6562-41.5039c0 2.39258 1.66016 4.00391 4.15039 4.00391h14.3555v14.4043c0 2.44141 1.66016 4.15039 4.05273 4.15039 2.44141 0 4.15039-1.66016 4.15039-4.15039v-14.4043h14.4043c2.44141 0 4.15039-1.61133 4.15039-4.00391 0-2.44141-1.70898-4.15039-4.15039-4.15039h-14.4043v-14.3555c0-2.49023-1.70898-4.19922-4.15039-4.19922-2.39258 0-4.05273 1.70898-4.05273 4.19922v14.3555h-14.3555c-2.49023 0-4.15039 1.70898-4.15039 4.15039Z"/>
  </g>
  <g transform="matrix(0.2 0 0 0.2 304.924 1933)">
   <path d="m74.8535 28.3203c34.8145 0 63.623-28.8086 63.623-63.5742 0-34.8145-28.8574-63.623-63.6719-63.623-34.7656 0-63.5254 28.8086-63.5254 63.623 0 34.7656 28.8086 63.5742 63.5742 63.5742Zm0-9.08203c-30.1758 0-54.4434-24.3164-54.4434-54.4922 0-30.2246 24.2188-54.4922 54.3945-54.4922 30.2246 0 54.541 24.2676 54.541 54.4922 0 30.1758-24.2676 54.4922-54.4922 54.4922Zm-28.8574-54.4922c0 2.58789 1.85547 4.39453 4.58984 4.39453h19.7266v19.7754c0 2.68555 1.85547 4.58984 4.44336 4.58984 2.68555 0 4.54102-1.85547 4.54102-4.58984v-19.7754h19.7754c2.68555 0 4.58984-1.80664 4.58984-4.39453 0-2.73438-1.85547-4.58984-4.58984-4.58984h-19.7754v-19.7266c0-2.73438-1.85547-4.63867-4.54102-4.63867-2.58789 0-4.44336 1.9043-4.44336 4.63867v19.7266h-19.7266c-2.73438 0-4.58984 1.85547-4.58984 4.58984Z"/>
  </g>
  <text style="stroke:none;fill:black;font-family:sans-serif;font-size:13;font-weight:bold;" transform="matrix(1 0 0 1 263 1953)">Design Variations</text>
  <text style="stroke:none;fill:black;font-family:sans-serif;font-size:13;" transform="matrix(1 0 0 1 263 1971)">Symbols are supported in up to nine weights and three scales.</text>
  <text style="stroke:none;fill:black;font-family:sans-serif;font-size:13;" transform="matrix(1 0 0 1 263 1989)">For optimal layout with text and other symbols, vertically align</text>
  <text style="stroke:none;fill:black;font-family:sans-serif;font-size:13;" transform="matrix(1 0 0 1 263 2007)">symbols with the adjacent text.</text>
  <line style="fill:none;stroke:#00AEEF;stroke-width:0.5;opacity:1.0;" x1="776" x2="776" y1="1919" y2="1933"/>
  <g transform="matrix(0.2 0 0 0.2 776 1933)">
   <path d="m16.5527 0.78125c2.58789 0 3.85742-0.976562 4.78516-3.71094l6.29883-17.2363h28.8086l6.29883 17.2363c0.927734 2.73438 2.19727 3.71094 4.73633 3.71094 2.58789 0 4.24805-1.5625 4.24805-4.00391 0-0.830078-0.146484-1.61133-0.537109-2.63672l-22.9004-60.9863c-1.12305-2.97852-3.125-4.49219-6.25-4.49219-3.02734 0-5.07812 1.46484-6.15234 4.44336l-22.9004 61.084c-0.390625 1.02539-0.537109 1.80664-0.537109 2.63672 0 2.44141 1.5625 3.95508 4.10156 3.95508Zm13.4766-28.3691 11.8652-32.8613h0.244141l11.8652 32.8613Z"/>
  </g>
  <line style="fill:none;stroke:#00AEEF;stroke-width:0.5;opacity:1.0;" x1="792.836" x2="792.836" y1="1919" y2="1933"/>
  <text style="stroke:none;fill:black;font-family:sans-serif;font-size:13;font-weight:bold;" transform="matrix(1 0 0 1 776 1953)">Margins</text>
  <text style="stroke:none;fill:black;font-family:sans-serif;font-size:13;" transform="matrix(1 0 0 1 776 1971)">Leading and trailing margins on the left and right side of each symbol</text>
  <text style="stroke:none;fill:black;font-family:sans-serif;font-size:13;" transform="matrix(1 0 0 1 776 1989)">can be adjusted by modifying the x-location of the margin guidelines.</text>
  <text style="stroke:none;fill:black;font-family:sans-serif;font-size:13;" transform="matrix(1 0 0 1 776 2007)">Modifications are automatically applied proportionally to all</text>
  <text style="stroke:none;fill:black;font-family:sans-serif;font-size:13;" transform="matrix(1 0 0 1 776 2025)">scales and weights.</text>
  <g transform="matrix(0.2 0 0 0.2 1289 1933)">
   <path d="m14.209 9.32617 8.49609 8.54492c4.29688 4.3457 9.22852 4.05273 13.8672-1.07422l53.4668-58.9355-4.83398-4.88281-53.0762 58.3984c-1.75781 2.00195-3.41797 2.49023-5.76172 0.146484l-5.85938-5.81055c-2.34375-2.29492-1.80664-4.00391 0.195312-5.81055l57.373-54.0039-4.88281-4.83398-57.959 54.4434c-4.93164 4.58984-5.32227 9.47266-1.02539 13.8184Zm32.0801-90.9668c-2.09961 2.05078-2.24609 4.93164-1.07422 6.88477 1.17188 1.80664 3.4668 2.97852 6.68945 2.14844 7.32422-1.70898 14.9414-2.00195 22.0703 2.68555l-2.92969 7.27539c-1.70898 4.15039-0.830078 7.08008 1.85547 9.81445l11.4746 11.5723c2.44141 2.44141 4.49219 2.53906 7.32422 2.05078l5.32227-0.976562 3.32031 3.36914-0.195312 2.7832c-0.195312 2.49023 0.439453 4.39453 2.88086 6.78711l3.80859 3.71094c2.39258 2.39258 5.46875 2.53906 7.8125 0.195312l14.5508-14.5996c2.34375-2.34375 2.24609-5.32227-0.146484-7.71484l-3.85742-3.80859c-2.39258-2.39258-4.24805-3.17383-6.64062-2.97852l-2.88086 0.244141-3.22266-3.17383 1.2207-5.61523c0.634766-2.83203-0.146484-5.0293-3.07617-7.95898l-10.9863-10.9375c-16.6992-16.6016-38.8672-16.2109-53.3203-1.75781Zm7.4707 1.85547c12.1582-8.88672 28.6133-7.37305 39.7461 3.75977l12.1582 12.0605c1.17188 1.17188 1.36719 2.09961 1.02539 3.80859l-1.61133 7.42188 7.51953 7.42188 4.93164-0.292969c1.26953-0.0488281 1.66016 0.0488281 2.63672 1.02539l2.88086 2.88086-12.207 12.207-2.88086-2.88086c-0.976562-0.976562-1.12305-1.36719-1.07422-2.68555l0.341797-4.88281-7.4707-7.42188-7.61719 1.26953c-1.61133 0.341797-2.34375 0.195312-3.56445-0.976562l-10.0098-10.0098c-1.26953-1.17188-1.41602-2.00195-0.634766-3.85742l4.39453-10.4492c-7.8125-7.27539-17.9688-10.4004-28.125-7.42188-0.78125 0.195312-1.07422-0.439453-0.439453-0.976562Z"/>
  </g>
  <text style="stroke:none;fill:black;font-family:sans-serif;font-size:13;font-weight:bold;" transform="matrix(1 0 0 1 1289 1953)">Exporting</text>
  <text style="stroke:none;fill:black;font-family:sans-serif;font-size:13;" transform="matrix(1 0 0 1 1289 1971)">Symbols should be outlined when exporting to ensure the</text>
  <text style="stroke:none;fill:black;font-family:sans-serif;font-size:13;" transform="matrix(1 0 0 1 1289 1989)">design is preserved when submitting to Xcode.</text>
  <text id="template-version" style="stroke:none;fill:black;font-family:sans-serif;font-size:13;text-anchor:end;" transform="matrix(1 0 0 1 3036 1933)">Template v.5.0</text>
  <text style="stroke:none;fill:black;font-family:sans-serif;font-size:13;text-anchor:end;" transform="matrix(1 0 0 1 3036 1951)">Requires Xcode 15 or greater</text>
  <text id="descriptive-name" style="stroke:none;fill:black;font-family:sans-serif;font-size:13;text-anchor:end;" transform="matrix(1 0 0 1 3036 1969)">Generated from RoboHead2-symbol</text>
  <text style="stroke:none;fill:black;font-family:sans-serif;font-size:13;text-anchor:end;" transform="matrix(1 0 0 1 3036 1987)">Typeset at 100.0 points</text>
  <text style="stroke:none;fill:black;font-family:sans-serif;font-size:13;" transform="matrix(1 0 0 1 263 726)">Small</text>
  <text style="stroke:none;fill:black;font-family:sans-serif;font-size:13;" transform="matrix(1 0 0 1 263 1156)">Medium</text>
  <text style="stroke:none;fill:black;font-family:sans-serif;font-size:13;" transform="matrix(1 0 0 1 263 1586)">Large</text>
 </g>
 <g id="Guides">
  <g id="H-reference" style="fill:#27AAE1;stroke:none;" transform="matrix(1 0 0 1 339 696)">
   <path d="M0.993654 0L3.63775 0L29.3281-67.1323L30.0303-67.1323L30.0303-70.459L28.1226-70.459ZM11.6885-24.4799L46.9815-24.4799L46.2315-26.7285L12.4385-26.7285ZM55.1196 0L57.7637 0L30.6382-70.459L29.4326-70.459L29.4326-67.1323Z"/>
  </g>
  <line id="Baseline-S" style="fill:none;stroke:#27AAE1;opacity:1;stroke-width:0.5;" x1="263" x2="3036" y1="696" y2="696"/>
  <line id="Capline-S" style="fill:none;stroke:#27AAE1;opacity:1;stroke-width:0.5;" x1="263" x2="3036" y1="625.541" y2="625.541"/>
  <g id="H-reference" style="fill:#27AAE1;stroke:none;" transform="matrix(1 0 0 1 339 1126)">
   <path d="M0.993654 0L3.63775 0L29.3281-67.1323L30.0303-67.1323L30.0303-70.459L28.1226-70.459ZM11.6885-24.4799L46.9815-24.4799L46.2315-26.7285L12.4385-26.7285ZM55.1196 0L57.7637 0L30.6382-70.459L29.4326-70.459L29.4326-67.1323Z"/>
  </g>
  <line id="Baseline-M" style="fill:none;stroke:#27AAE1;opacity:1;stroke-width:0.5;" x1="263" x2="3036" y1="1126" y2="1126"/>
  <line id="Capline-M" style="fill:none;stroke:#27AAE1;opacity:1;stroke-width:0.5;" x1="263" x2="3036" y1="1055.54" y2="1055.54"/>
  <g id="H-reference" style="fill:#27AAE1;stroke:none;" transform="matrix(1 0 0 1 339 1556)">
   <path d="M0.993654 0L3.63775 0L29.3281-67.1323L30.0303-67.1323L30.0303-70.459L28.1226-70.459ZM11.6885-24.4799L46.9815-24.4799L46.2315-26.7285L12.4385-26.7285ZM55.1196 0L57.7637 0L30.6382-70.459L29.4326-70.459L29.4326-67.1323Z"/>
  </g>
  <line id="Baseline-L" style="fill:none;stroke:#27AAE1;opacity:1;stroke-width:0.5;" x1="263" x2="3036" y1="1556" y2="1556"/>
  <line id="Capline-L" style="fill:none;stroke:#27AAE1;opacity:1;stroke-width:0.5;" x1="263" x2="3036" y1="1485.54" y2="1485.54"/>
  <line id="left-margin-Ultralight-S" style="fill:none;stroke:#00AEEF;stroke-width:0.5;opacity:1.0;" x1="515.423" x2="515.423" y1="600.785" y2="720.121"/>
  <line id="right-margin-Ultralight-S" style="fill:none;stroke:#00AEEF;stroke-width:0.5;opacity:1.0;" x1="604" x2="604" y1="600.785" y2="720.121"/>
  <line id="left-margin-Regular-S" style="fill:none;stroke:#00AEEF;stroke-width:0.5;opacity:1.0;" x1="1405.56" x2="1405.56" y1="600.785" y2="720.121"/>
  <line id="right-margin-Regular-S" style="fill:none;stroke:#00AEEF;stroke-width:0.5;opacity:1.0;" x1="1494.13" x2="1494.13" y1="600.785" y2="720.121"/>
  <line id="left-margin-Black-S" style="fill:none;stroke:#00AEEF;stroke-width:0.5;opacity:1.0;" x1="2889.11" x2="2889.11" y1="600.785" y2="720.121"/>
  <line id="right-margin-Black-S" style="fill:none;stroke:#00AEEF;stroke-width:0.5;opacity:1.0;" x1="2977.69" x2="2977.69" y1="600.785" y2="720.121"/>
 </g>
 <g id="Symbols">
  <g id="Black-S" transform="matrix(1.00656 0 0 1.00656 2889.11 696)">
   <path class="monochrome-9 multicolor-9:tintColor hierarchical-9:primary SFSymbolsPreviewWireframe" d="M62.861-25.37C62.861-22.879 62.861-20.488 62.861-18.097C62.854-14.335 60.158-11.588 56.379-11.547C53.984-11.521 51.585-11.566 49.187-11.569C47.326-11.569 46.242-10.487 46.242-8.652C46.242-6.191 46.242-3.726 46.242-1.264C46.242-0.185 46.057 0 44.998 0C37.855 0 30.711 0 23.568 0C22.446 0 22.212-0.234 22.242-1.342C22.368-6.335 22.576-11.325 22.602-16.318C22.617-19.425 22.509-22.549 22.179-25.637C21.982-27.476 21.343-29.292 20.723-31.053C19.847-33.541 18.685-35.932 17.853-38.434C13.643-51.112 20.701-64.961 33.325-68.913C42.734-71.86 53.672-68.668 60.117-61.143C63.849-56.787 65.984-51.771 66.441-46.07C66.567-44.498 66.463-42.912 66.519-41.333C66.537-40.766 66.637-40.176 66.834-39.65C68.249-35.876 69.652-32.091 71.163-28.355C71.813-26.749 70.848-25.244 69.073-25.345C67.035-25.459 64.989-25.37 62.858-25.37ZM32.701-1.687C32.701-1.909 32.701-2.065 32.701-2.224C32.701-11.566 32.701-20.907 32.701-30.245C32.701-30.338 32.701-30.43 32.701-30.523C32.66-31.183 32.326-31.613 31.677-31.754C30.774-31.954 30.336-31.769 30.009-31.101C29.308-29.656 27.637-28.84 26.111-29.196C24.436-29.585 23.334-30.961 23.341-32.655C23.345-34.297 24.511-35.75 26.081-36.072C27.704-36.406 29.378-35.624 30.002-34.115C30.236-33.548 30.522-33.381 31.068-33.444C32.987-33.67 34.42-32.188 34.406-30.108C34.335-20.907 34.376-11.707 34.376-2.506L34.376-1.713L37.034-1.713C37.034-2.046 37.034-2.324 37.034-2.602C37.034-14.242 37.034-25.886 37.034-37.526C37.034-38.96 37.821-40.091 39.143-40.328C39.711-40.432 39.945-40.71 40.213-41.129C41.081-42.5 42.778-43.049 44.315-42.497C45.804-41.959 46.807-40.402 46.632-38.901C46.435-37.196 45.166-35.932 43.435-35.724C41.976-35.55 40.406-36.543 39.867-37.985C39.774-38.234 39.7-38.493 39.615-38.76C38.79-38.493 38.698-37.885 38.701-37.192C38.709-25.597 38.705-14.001 38.705-2.41L38.705-1.698L44.575-1.698C44.575-4.104 44.687-6.472 44.542-8.83C44.408-11.054 46.547-13.293 48.96-13.241C51.333-13.189 53.709-13.223 56.082-13.219C59.208-13.212 61.187-15.173 61.191-18.29C61.194-20.752 61.191-23.217 61.191-25.678C61.191-26.838 61.391-27.035 62.579-27.035C64.744-27.035 66.908-27.042 69.073-27.027C69.604-27.027 69.801-27.139 69.574-27.71C68.594-30.212 67.632-32.725 66.689-35.242C66.559-35.591 66.385-35.694 66.032-35.691C64.079-35.676 62.122-35.691 60.166-35.68C59.252-35.672 58.822-35.22 58.811-34.282C58.799-33.259 58.811-32.236 58.811-31.216C58.811-29.255 57.712-28.158 55.747-28.154C53.538-28.154 51.329-28.154 49.138-28.154C48.229-26.09 46.744-25.174 44.961-25.545C43.413-25.867 42.232-27.25 42.192-28.796C42.143-30.56 43.183-31.943 44.887-32.377C46.614-32.818 48.091-31.947 49.164-29.826C51.403-29.826 53.657-29.811 55.914-29.834C56.724-29.841 57.125-30.293 57.136-31.127C57.151-32.173 57.136-33.218 57.14-34.263C57.14-36.236 58.268-37.348 60.262-37.351C62.096-37.351 63.927-37.351 65.843-37.351C65.713-37.73 65.639-38.045 65.501-38.326C64.929-39.501 64.766-40.732 64.807-42.037C64.885-44.406 64.814-46.771 64.298-49.106C64.209-49.507 64.079-49.64 63.674-49.636C61.488-49.618 59.301-49.636 57.11-49.625C56.212-49.621 55.755-49.143 55.74-48.228C55.729-47.483 55.762-46.741 55.729-45.996C55.707-45.562 55.84-45.362 56.263-45.188C57.89-44.517 58.736-42.782 58.306-41.144C57.867-39.487 56.453-38.426 54.756-38.482C53.178-38.53 51.775-39.728 51.455-41.296C51.125-42.912 51.982-44.558 53.564-45.195C54.01-45.373 54.091-45.603 54.08-46.018C54.054-46.83 54.065-47.646 54.073-48.457C54.088-49.807 54.971-50.923 56.282-51.23C56.572-51.297 56.88-51.293 57.181-51.293C59.338-51.297 61.495-51.293 63.671-51.293C61.009-60.605 51.934-67.882 41.779-68.216C41.779-67.989 41.779-67.763 41.779-67.537C41.779-65.747 41.779-63.96 41.779-62.17C41.779-60.042 41.865-59.956 44.026-59.938C45.756-59.923 46.94-58.733 46.948-56.991C46.951-55.482 46.963-53.97 46.94-52.461C46.933-52.027 47.022-51.771 47.464-51.56C48.949-50.845 49.666-49.273 49.317-47.664C48.916-45.807 47.029-44.636 45.11-45.043C43.335-45.421 42.121-47.253 42.466-49.043C42.767-50.596 43.781-51.486 45.229-51.923C45.247-51.994 45.27-52.038 45.27-52.083C45.273-53.362 45.281-54.637 45.281-55.916C45.281-58.159 45.192-58.248 42.923-58.274C41.289-58.292 40.123-59.456 40.116-61.095C40.109-63.233 40.116-65.369 40.116-67.508C40.116-67.756 40.116-68.004 40.116-68.301C37.84-68.227 35.69-67.919 33.618-67.192C33.451-67.133 33.288-66.788 33.284-66.573C33.255-65.25 33.262-63.927 33.269-62.6C33.277-61.639 33.615-61.28 34.584-61.165C36.321-60.957 37.316-59.834 37.316-58.066C37.316-56.209 37.328-54.348 37.316-52.491C37.305-50.863 36.073-49.651 34.435-49.633C33.878-49.625 33.321-49.633 32.783-49.633C31.71-47.497 30.314-46.652 28.58-47.064C26.913-47.46 25.769-48.884 25.803-50.526C25.832-52.161 27.013-53.595 28.595-53.914C30.388-54.277 31.803-53.406 32.779-51.297C33.269-51.297 33.778-51.286 34.287-51.297C35.148-51.323 35.635-51.786 35.642-52.639C35.657-54.474 35.657-56.309 35.642-58.147C35.635-58.941 35.263-59.319 34.469-59.438C32.427-59.741 31.599-60.698 31.599-62.752C31.599-63.945 31.599-65.139 31.599-66.451C27.177-64.423 23.846-61.398 21.451-57.35C19.316-53.74 18.295-49.825 18.329-45.581C19.019-45.581 19.621-45.581 20.222-45.581C22.034-45.573 23.196-44.432 23.215-42.645C23.226-41.381 23.627-40.984 24.889-40.981C25.424-40.981 25.962-41.014 26.493-40.973C27.05-40.929 27.325-41.088 27.544-41.663C28.216-43.423 30.225-44.257 31.985-43.598C33.708-42.953 34.643-41.04 34.094-39.279C33.537-37.489 31.662-36.458 29.839-36.944C28.591-37.277 27.811-38.111 27.351-39.312C26.371-39.312 25.394-39.305 24.418-39.312C23.1-39.324 22.038-40.095 21.678-41.37C21.559-41.785 21.577-42.237 21.544-42.675C21.492-43.379 21.11-43.85 20.445-43.894C19.803-43.939 19.153-43.905 18.299-43.905C18.67-42.278 18.897-40.714 19.394-39.242C20.074-37.225 21.009-35.301 21.748-33.303C22.758-30.564 23.824-27.832 24.024-24.874C24.485-18.097 24.373-11.314 24.102-4.534C24.065-3.596 24.098-2.654 24.098-1.69L32.72-1.69Z"/>
   <path class="monochrome-7 monochrome-9 multicolor-7:systemRedColor multicolor-9:tintColor hierarchical-7:primary hierarchical-9:primary SFSymbolsPreviewWireframe" d="M26.839-30.801C27.834-30.797 28.662-31.624 28.654-32.618C28.647-33.604 27.804-34.438 26.82-34.427C25.877-34.415 25.045-33.585 25.027-32.636C25.008-31.665 25.855-30.805 26.835-30.801Z"/>
   <path class="monochrome-6 monochrome-9 multicolor-6:systemOrangeColor multicolor-9:tintColor hierarchical-6:primary hierarchical-9:primary SFSymbolsPreviewWireframe" d="M54.927-43.779C53.921-43.787 53.096-42.986 53.089-41.989C53.082-41.018 53.943-40.161 54.916-40.169C55.862-40.176 56.694-40.995 56.72-41.948C56.746-42.934 55.926-43.776 54.927-43.783Z"/>
   <path class="monochrome-5 monochrome-9 multicolor-5:systemYellowColor multicolor-9:tintColor hierarchical-5:primary hierarchical-9:primary SFSymbolsPreviewWireframe" d="M27.503-50.504C27.5-49.488 28.298-48.669 29.289-48.672C30.254-48.672 31.06-49.473 31.075-50.437C31.094-51.46 30.325-52.268 29.315-52.287C28.302-52.305 27.503-51.523 27.5-50.504Z"/>
   <path class="monochrome-4 monochrome-9 multicolor-4:systemGreenColor multicolor-9:tintColor hierarchical-4:primary hierarchical-9:primary SFSymbolsPreviewWireframe" d="M45.656-27.161C46.669-27.154 47.501-27.951 47.501-28.937C47.501-29.919 46.666-30.742 45.671-30.742C44.701-30.742 43.892-29.956 43.87-28.988C43.847-27.991 44.649-27.172 45.656-27.161Z"/>
   <path class="monochrome-8 monochrome-9 multicolor-8:systemCyanColor multicolor-9:tintColor hierarchical-8:primary hierarchical-9:primary SFSymbolsPreviewWireframe" d="M45.93-46.678C46.959-46.682 47.727-47.468 47.713-48.491C47.698-49.481 46.925-50.244 45.938-50.248C44.909-50.255 44.133-49.488 44.13-48.461C44.126-47.434 44.898-46.671 45.93-46.678Z"/>
   <path class="monochrome-3 monochrome-9 multicolor-3:systemMintColor multicolor-9:tintColor hierarchical-3:primary hierarchical-9:primary SFSymbolsPreviewWireframe" d="M30.733-38.571C31.736-38.564 32.568-39.387 32.557-40.369C32.545-41.333 31.751-42.122 30.774-42.137C29.753-42.152 28.936-41.373 28.925-40.376C28.914-39.379 29.72-38.575 30.733-38.571Z"/>
   <path class="monochrome-2 monochrome-9 multicolor-2:systemIndigoColor multicolor-9:tintColor hierarchical-2:primary hierarchical-9:primary SFSymbolsPreviewWireframe" d="M41.334-39.216C41.345-38.189 42.125-37.437 43.161-37.451C44.152-37.463 44.909-38.23 44.917-39.223C44.924-40.25 44.152-41.018 43.12-41.018C42.088-41.018 41.326-40.247 41.338-39.216Z"/>
   <path class="monochrome-1 monochrome-9 multicolor-1:systemPinkColor multicolor-9:tintColor hierarchical-1:primary hierarchical-9:primary SFSymbolsPreviewWireframe" d="M27.949-11.658C27.949-10.079 27.941-8.5 27.952-6.921C27.956-6.335 27.789-5.901 27.132-5.861C26.56-5.824 26.278-6.194 26.278-6.951C26.278-10.131 26.282-13.312 26.271-16.492C26.271-17.078 26.43-17.512 27.087-17.552C27.655-17.59 27.941-17.211 27.941-16.463C27.941-14.861 27.941-13.26 27.941-11.658Z"/>
   <path class="monochrome-0 monochrome-9 multicolor-0:systemTealColor multicolor-9:tintColor hierarchical-0:primary hierarchical-9:primary SFSymbolsPreviewWireframe" d="M27.945-19.88C27.967-19.117 27.752-18.728 27.143-18.683C26.616-18.646 26.293-19.017 26.278-19.621C26.263-20.188 26.478-20.574 27.084-20.618C27.611-20.655 27.938-20.285 27.945-19.88Z"/>
  </g>
  <g id="Regular-S" transform="matrix(1.00656 0 0 1.00656 1405.56 696)">
   <path class="monochrome-9 multicolor-9:tintColor hierarchical-9:primary SFSymbolsPreviewWireframe" d="M62.861-25.37C62.861-22.879 62.861-20.488 62.861-18.097C62.854-14.335 60.158-11.588 56.379-11.547C53.984-11.521 51.585-11.566 49.187-11.569C47.327-11.569 46.242-10.487 46.242-8.652C46.242-6.191 46.242-3.726 46.242-1.264C46.242-0.185 46.057 0 44.999 0C37.855 0 30.711 0 23.568 0C22.446 0 22.212-0.234 22.242-1.342C22.368-6.335 22.576-11.325 22.602-16.318C22.617-19.425 22.509-22.549 22.179-25.637C21.982-27.476 21.344-29.292 20.723-31.053C19.847-33.541 18.685-35.932 17.853-38.434C13.643-51.112 20.701-64.961 33.325-68.913C42.734-71.86 53.672-68.668 60.118-61.143C63.849-56.787 65.984-51.771 66.441-46.07C66.567-44.498 66.463-42.912 66.519-41.333C66.537-40.766 66.637-40.176 66.834-39.65C68.249-35.876 69.652-32.091 71.163-28.355C71.813-26.749 70.848-25.244 69.073-25.345C67.035-25.459 64.989-25.37 62.858-25.37ZM32.701-1.687C32.701-1.909 32.701-2.065 32.701-2.224C32.701-11.566 32.701-20.907 32.701-30.245C32.701-30.338 32.701-30.43 32.701-30.523C32.66-31.183 32.326-31.613 31.677-31.754C30.774-31.954 30.336-31.769 30.009-31.101C29.308-29.656 27.637-28.84 26.111-29.196C24.436-29.585 23.334-30.961 23.341-32.655C23.345-34.297 24.511-35.75 26.081-36.072C27.704-36.406 29.378-35.624 30.002-34.115C30.236-33.548 30.522-33.381 31.068-33.444C32.987-33.67 34.42-32.188 34.406-30.108C34.335-20.907 34.376-11.707 34.376-2.506L34.376-1.713L37.034-1.713C37.034-2.046 37.034-2.324 37.034-2.602C37.034-14.242 37.034-25.886 37.034-37.526C37.034-38.96 37.821-40.091 39.143-40.328C39.711-40.432 39.945-40.71 40.213-41.129C41.081-42.5 42.778-43.049 44.315-42.497C45.804-41.959 46.807-40.402 46.632-38.901C46.435-37.196 45.166-35.932 43.435-35.724C41.976-35.55 40.406-36.543 39.867-37.985C39.774-38.234 39.7-38.493 39.615-38.76C38.791-38.493 38.698-37.885 38.701-37.192C38.709-25.597 38.705-14.001 38.705-2.41L38.705-1.698L44.575-1.698C44.575-4.104 44.687-6.472 44.542-8.83C44.408-11.054 46.547-13.293 48.96-13.241C51.333-13.189 53.709-13.223 56.082-13.219C59.208-13.212 61.187-15.173 61.191-18.29C61.194-20.752 61.191-23.217 61.191-25.678C61.191-26.838 61.391-27.035 62.579-27.035C64.744-27.035 66.908-27.042 69.073-27.027C69.604-27.027 69.801-27.139 69.574-27.71C68.594-30.212 67.633-32.725 66.689-35.242C66.559-35.591 66.385-35.694 66.032-35.691C64.079-35.676 62.123-35.691 60.166-35.68C59.252-35.672 58.822-35.22 58.811-34.282C58.799-33.259 58.811-32.236 58.811-31.216C58.811-29.255 57.712-28.158 55.747-28.154C53.538-28.154 51.329-28.154 49.138-28.154C48.229-26.09 46.744-25.174 44.961-25.545C43.413-25.867 42.232-27.25 42.192-28.796C42.143-30.56 43.183-31.943 44.887-32.377C46.614-32.818 48.091-31.947 49.164-29.826C51.403-29.826 53.657-29.811 55.915-29.834C56.724-29.841 57.125-30.293 57.136-31.127C57.151-32.173 57.136-33.218 57.14-34.263C57.14-36.236 58.269-37.348 60.262-37.351C62.097-37.351 63.927-37.351 65.843-37.351C65.713-37.73 65.639-38.045 65.501-38.326C64.93-39.501 64.766-40.732 64.807-42.037C64.885-44.406 64.814-46.771 64.298-49.106C64.209-49.507 64.079-49.64 63.675-49.636C61.488-49.618 59.301-49.636 57.11-49.625C56.212-49.621 55.755-49.143 55.74-48.228C55.729-47.483 55.762-46.741 55.729-45.996C55.707-45.562 55.84-45.362 56.264-45.188C57.89-44.517 58.736-42.782 58.306-41.144C57.868-39.487 56.453-38.426 54.756-38.482C53.178-38.53 51.775-39.728 51.455-41.296C51.125-42.912 51.983-44.558 53.564-45.195C54.01-45.373 54.091-45.603 54.08-46.018C54.054-46.83 54.065-47.646 54.073-48.457C54.088-49.807 54.971-50.923 56.282-51.23C56.572-51.297 56.88-51.293 57.181-51.293C59.338-51.297 61.495-51.293 63.671-51.293C61.009-60.605 51.934-67.882 41.779-68.216C41.779-67.989 41.779-67.763 41.779-67.537C41.779-65.747 41.779-63.96 41.779-62.17C41.779-60.042 41.865-59.956 44.026-59.938C45.756-59.923 46.94-58.733 46.948-56.991C46.952-55.482 46.963-53.97 46.94-52.461C46.933-52.027 47.022-51.771 47.464-51.56C48.949-50.845 49.666-49.273 49.317-47.664C48.916-45.807 47.03-44.636 45.11-45.043C43.335-45.421 42.121-47.253 42.466-49.043C42.767-50.596 43.781-51.486 45.229-51.923C45.247-51.994 45.27-52.038 45.27-52.083C45.273-53.362 45.281-54.637 45.281-55.916C45.281-58.159 45.192-58.248 42.923-58.274C41.289-58.292 40.123-59.456 40.116-61.095C40.109-63.233 40.116-65.369 40.116-67.508C40.116-67.756 40.116-68.004 40.116-68.301C37.84-68.227 35.69-67.919 33.618-67.192C33.451-67.133 33.288-66.788 33.284-66.573C33.255-65.25 33.262-63.927 33.269-62.6C33.277-61.639 33.615-61.28 34.584-61.165C36.321-60.957 37.316-59.834 37.316-58.066C37.316-56.209 37.328-54.348 37.316-52.491C37.305-50.863 36.073-49.651 34.435-49.633C33.878-49.625 33.321-49.633 32.783-49.633C31.71-47.497 30.314-46.652 28.58-47.064C26.913-47.46 25.769-48.884 25.803-50.526C25.832-52.161 27.013-53.595 28.595-53.914C30.388-54.277 31.803-53.406 32.779-51.297C33.269-51.297 33.778-51.286 34.287-51.297C35.148-51.323 35.635-51.786 35.642-52.639C35.657-54.474 35.657-56.309 35.642-58.147C35.635-58.941 35.263-59.319 34.469-59.438C32.427-59.741 31.599-60.698 31.599-62.752C31.599-63.945 31.599-65.139 31.599-66.451C27.177-64.423 23.846-61.398 21.451-57.35C19.316-53.74 18.295-49.825 18.329-45.581C19.019-45.581 19.621-45.581 20.222-45.581C22.034-45.573 23.196-44.432 23.215-42.645C23.226-41.381 23.627-40.984 24.889-40.981C25.424-40.981 25.962-41.014 26.493-40.973C27.05-40.929 27.325-41.088 27.544-41.663C28.216-43.423 30.225-44.257 31.985-43.598C33.708-42.953 34.643-41.04 34.094-39.279C33.537-37.489 31.662-36.458 29.839-36.944C28.591-37.277 27.811-38.111 27.351-39.312C26.371-39.312 25.394-39.305 24.418-39.312C23.1-39.324 22.038-40.095 21.678-41.37C21.559-41.785 21.577-42.237 21.544-42.675C21.492-43.379 21.11-43.85 20.445-43.894C19.803-43.939 19.153-43.905 18.299-43.905C18.67-42.278 18.897-40.714 19.394-39.242C20.074-37.225 21.009-35.301 21.748-33.303C22.758-30.564 23.824-27.832 24.024-24.874C24.485-18.097 24.373-11.314 24.102-4.534C24.065-3.596 24.099-2.654 24.099-1.69L32.72-1.69Z"/>
   <path class="monochrome-7 monochrome-9 multicolor-7:systemRedColor multicolor-9:tintColor hierarchical-7:primary hierarchical-9:primary SFSymbolsPreviewWireframe" d="M26.839-30.801C27.834-30.797 28.662-31.624 28.654-32.618C28.647-33.604 27.804-34.438 26.82-34.427C25.877-34.415 25.045-33.585 25.027-32.636C25.008-31.665 25.855-30.805 26.835-30.801Z"/>
   <path class="monochrome-6 monochrome-9 multicolor-6:systemOrangeColor multicolor-9:tintColor hierarchical-6:primary hierarchical-9:primary SFSymbolsPreviewWireframe" d="M54.927-43.779C53.921-43.787 53.096-42.986 53.089-41.989C53.082-41.018 53.943-40.161 54.916-40.169C55.863-40.176 56.694-40.995 56.72-41.948C56.746-42.934 55.926-43.776 54.927-43.783Z"/>
   <path class="monochrome-5 monochrome-9 multicolor-5:systemYellowColor multicolor-9:tintColor hierarchical-5:primary hierarchical-9:primary SFSymbolsPreviewWireframe" d="M27.503-50.504C27.5-49.488 28.298-48.669 29.289-48.672C30.255-48.672 31.06-49.473 31.075-50.437C31.094-51.46 30.325-52.268 29.315-52.287C28.302-52.305 27.503-51.523 27.5-50.504Z"/>
   <path class="monochrome-4 monochrome-9 multicolor-4:systemGreenColor multicolor-9:tintColor hierarchical-4:primary hierarchical-9:primary SFSymbolsPreviewWireframe" d="M45.656-27.161C46.669-27.154 47.501-27.951 47.501-28.937C47.501-29.919 46.666-30.742 45.671-30.742C44.701-30.742 43.892-29.956 43.87-28.988C43.848-27.991 44.65-27.172 45.656-27.161Z"/>
   <path class="monochrome-8 monochrome-9 multicolor-8:systemCyanColor multicolor-9:tintColor hierarchical-8:primary hierarchical-9:primary SFSymbolsPreviewWireframe" d="M45.93-46.678C46.959-46.682 47.728-47.468 47.713-48.491C47.698-49.481 46.926-50.244 45.938-50.248C44.909-50.255 44.133-49.488 44.13-48.461C44.126-47.434 44.898-46.671 45.93-46.678Z"/>
   <path class="monochrome-3 monochrome-9 multicolor-3:systemMintColor multicolor-9:tintColor hierarchical-3:primary hierarchical-9:primary SFSymbolsPreviewWireframe" d="M30.733-38.571C31.736-38.564 32.568-39.387 32.557-40.369C32.545-41.333 31.751-42.122 30.774-42.137C29.753-42.152 28.936-41.373 28.925-40.376C28.914-39.379 29.72-38.575 30.733-38.571Z"/>
   <path class="monochrome-2 monochrome-9 multicolor-2:systemIndigoColor multicolor-9:tintColor hierarchical-2:primary hierarchical-9:primary SFSymbolsPreviewWireframe" d="M41.334-39.216C41.345-38.189 42.125-37.437 43.161-37.451C44.152-37.463 44.909-38.23 44.917-39.223C44.924-40.25 44.152-41.018 43.12-41.018C42.088-41.018 41.326-40.247 41.338-39.216Z"/>
   <path class="monochrome-1 monochrome-9 multicolor-1:systemPinkColor multicolor-9:tintColor hierarchical-1:primary hierarchical-9:primary SFSymbolsPreviewWireframe" d="M27.949-11.658C27.949-10.079 27.941-8.5 27.953-6.921C27.956-6.335 27.789-5.901 27.132-5.861C26.56-5.824 26.278-6.194 26.278-6.951C26.278-10.131 26.282-13.312 26.271-16.492C26.271-17.078 26.43-17.512 27.087-17.552C27.655-17.59 27.941-17.211 27.941-16.463C27.941-14.861 27.941-13.26 27.941-11.658Z"/>
   <path class="monochrome-0 monochrome-9 multicolor-0:systemTealColor multicolor-9:tintColor hierarchical-0:primary hierarchical-9:primary SFSymbolsPreviewWireframe" d="M27.945-19.88C27.967-19.117 27.752-18.728 27.143-18.683C26.616-18.646 26.293-19.017 26.278-19.621C26.263-20.188 26.478-20.574 27.084-20.618C27.611-20.655 27.938-20.285 27.945-19.88Z"/>
  </g>
  <g id="Ultralight-S" transform="matrix(1.00656 0 0 1.00656 515.423 696)">
   <path class="monochrome-9 multicolor-9:tintColor hierarchical-9:primary SFSymbolsPreviewWireframe" d="M62.861-25.37C62.861-22.879 62.861-20.488 62.861-18.097C62.854-14.335 60.158-11.588 56.379-11.547C53.984-11.521 51.585-11.566 49.187-11.569C47.327-11.569 46.242-10.487 46.242-8.652C46.242-6.191 46.242-3.726 46.242-1.264C46.242-0.185 46.057 0 44.999 0C37.855 0 30.711 0 23.568 0C22.446 0 22.212-0.234 22.242-1.342C22.368-6.335 22.576-11.325 22.602-16.318C22.617-19.425 22.509-22.549 22.179-25.637C21.982-27.476 21.344-29.292 20.723-31.053C19.847-33.541 18.685-35.932 17.853-38.434C13.643-51.112 20.701-64.961 33.325-68.913C42.734-71.86 53.672-68.668 60.118-61.143C63.849-56.787 65.984-51.771 66.441-46.07C66.567-44.498 66.463-42.912 66.519-41.333C66.537-40.766 66.637-40.176 66.834-39.65C68.249-35.876 69.652-32.091 71.163-28.355C71.813-26.749 70.848-25.244 69.073-25.345C67.035-25.459 64.989-25.37 62.858-25.37ZM32.701-1.687C32.701-1.909 32.701-2.065 32.701-2.224C32.701-11.566 32.701-20.907 32.701-30.245C32.701-30.338 32.701-30.43 32.701-30.523C32.66-31.183 32.326-31.613 31.677-31.754C30.774-31.954 30.336-31.769 30.009-31.101C29.308-29.656 27.637-28.84 26.111-29.196C24.436-29.585 23.334-30.961 23.341-32.655C23.345-34.297 24.511-35.75 26.081-36.072C27.704-36.406 29.378-35.624 30.002-34.115C30.236-33.548 30.522-33.381 31.068-33.444C32.987-33.67 34.42-32.188 34.406-30.108C34.335-20.907 34.376-11.707 34.376-2.506L34.376-1.713L37.034-1.713C37.034-2.046 37.034-2.324 37.034-2.602C37.034-14.242 37.034-25.886 37.034-37.526C37.034-38.96 37.821-40.091 39.143-40.328C39.711-40.432 39.945-40.71 40.213-41.129C41.081-42.5 42.778-43.049 44.315-42.497C45.804-41.959 46.807-40.402 46.632-38.901C46.435-37.196 45.166-35.932 43.435-35.724C41.976-35.55 40.406-36.543 39.867-37.985C39.774-38.234 39.7-38.493 39.615-38.76C38.791-38.493 38.698-37.885 38.701-37.192C38.709-25.597 38.705-14.001 38.705-2.41L38.705-1.698L44.575-1.698C44.575-4.104 44.687-6.472 44.542-8.83C44.408-11.054 46.547-13.293 48.96-13.241C51.333-13.189 53.709-13.223 56.082-13.219C59.208-13.212 61.187-15.173 61.191-18.29C61.194-20.752 61.191-23.217 61.191-25.678C61.191-26.838 61.391-27.035 62.579-27.035C64.744-27.035 66.908-27.042 69.073-27.027C69.604-27.027 69.801-27.139 69.574-27.71C68.594-30.212 67.633-32.725 66.689-35.242C66.559-35.591 66.385-35.694 66.032-35.691C64.079-35.676 62.123-35.691 60.166-35.68C59.252-35.672 58.822-35.22 58.811-34.282C58.799-33.259 58.811-32.236 58.811-31.216C58.811-29.255 57.712-28.158 55.747-28.154C53.538-28.154 51.329-28.154 49.138-28.154C48.229-26.09 46.744-25.174 44.961-25.545C43.413-25.867 42.232-27.25 42.192-28.796C42.143-30.56 43.183-31.943 44.887-32.377C46.614-32.818 48.091-31.947 49.164-29.826C51.403-29.826 53.657-29.811 55.915-29.834C56.724-29.841 57.125-30.293 57.136-31.127C57.151-32.173 57.136-33.218 57.14-34.263C57.14-36.236 58.269-37.348 60.262-37.351C62.097-37.351 63.927-37.351 65.843-37.351C65.713-37.73 65.639-38.045 65.501-38.326C64.93-39.501 64.766-40.732 64.807-42.037C64.885-44.406 64.814-46.771 64.298-49.106C64.209-49.507 64.079-49.64 63.675-49.636C61.488-49.618 59.301-49.636 57.11-49.625C56.212-49.621 55.755-49.143 55.74-48.228C55.729-47.483 55.762-46.741 55.729-45.996C55.707-45.562 55.84-45.362 56.264-45.188C57.89-44.517 58.736-42.782 58.306-41.144C57.868-39.487 56.453-38.426 54.756-38.482C53.178-38.53 51.775-39.728 51.455-41.296C51.125-42.912 51.983-44.558 53.564-45.195C54.01-45.373 54.091-45.603 54.08-46.018C54.054-46.83 54.065-47.646 54.073-48.457C54.088-49.807 54.971-50.923 56.282-51.23C56.572-51.297 56.88-51.293 57.181-51.293C59.338-51.297 61.495-51.293 63.671-51.293C61.009-60.605 51.934-67.882 41.779-68.216C41.779-67.989 41.779-67.763 41.779-67.537C41.779-65.747 41.779-63.96 41.779-62.17C41.779-60.042 41.865-59.956 44.026-59.938C45.756-59.923 46.94-58.733 46.948-56.991C46.952-55.482 46.963-53.97 46.94-52.461C46.933-52.027 47.022-51.771 47.464-51.56C48.949-50.845 49.666-49.273 49.317-47.664C48.916-45.807 47.03-44.636 45.11-45.043C43.335-45.421 42.121-47.253 42.466-49.043C42.767-50.596 43.781-51.486 45.229-51.923C45.247-51.994 45.27-52.038 45.27-52.083C45.273-53.362 45.281-54.637 45.281-55.916C45.281-58.159 45.192-58.248 42.923-58.274C41.289-58.292 40.123-59.456 40.116-61.095C40.109-63.233 40.116-65.369 40.116-67.508C40.116-67.756 40.116-68.004 40.116-68.301C37.84-68.227 35.69-67.919 33.618-67.192C33.451-67.133 33.288-66.788 33.284-66.573C33.255-65.25 33.262-63.927 33.269-62.6C33.277-61.639 33.615-61.28 34.584-61.165C36.321-60.957 37.316-59.834 37.316-58.066C37.316-56.209 37.328-54.348 37.316-52.491C37.305-50.863 36.073-49.651 34.435-49.633C33.878-49.625 33.321-49.633 32.783-49.633C31.71-47.497 30.314-46.652 28.58-47.064C26.913-47.46 25.769-48.884 25.803-50.526C25.832-52.161 27.013-53.595 28.595-53.914C30.388-54.277 31.803-53.406 32.779-51.297C33.269-51.297 33.778-51.286 34.287-51.297C35.148-51.323 35.635-51.786 35.642-52.639C35.657-54.474 35.657-56.309 35.642-58.147C35.635-58.941 35.263-59.319 34.469-59.438C32.427-59.741 31.599-60.698 31.599-62.752C31.599-63.945 31.599-65.139 31.599-66.451C27.177-64.423 23.846-61.398 21.451-57.35C19.316-53.74 18.295-49.825 18.329-45.581C19.019-45.581 19.621-45.581 20.222-45.581C22.034-45.573 23.196-44.432 23.215-42.645C23.226-41.381 23.627-40.984 24.889-40.981C25.424-40.981 25.962-41.014 26.493-40.973C27.05-40.929 27.325-41.088 27.544-41.663C28.216-43.423 30.225-44.257 31.985-43.598C33.708-42.953 34.643-41.04 34.094-39.279C33.537-37.489 31.662-36.458 29.839-36.944C28.591-37.277 27.811-38.111 27.351-39.312C26.371-39.312 25.394-39.305 24.418-39.312C23.1-39.324 22.038-40.095 21.678-41.37C21.559-41.785 21.577-42.237 21.544-42.675C21.492-43.379 21.11-43.85 20.445-43.894C19.803-43.939 19.153-43.905 18.299-43.905C18.67-42.278 18.897-40.714 19.394-39.242C20.074-37.225 21.009-35.301 21.748-33.303C22.758-30.564 23.824-27.832 24.024-24.874C24.485-18.097 24.373-11.314 24.102-4.534C24.065-3.596 24.099-2.654 24.099-1.69L32.72-1.69Z"/>
   <path class="monochrome-7 monochrome-9 multicolor-7:systemRedColor multicolor-9:tintColor hierarchical-7:primary hierarchical-9:primary SFSymbolsPreviewWireframe" d="M26.839-30.801C27.834-30.797 28.662-31.624 28.654-32.618C28.647-33.604 27.804-34.438 26.82-34.427C25.877-34.415 25.045-33.585 25.027-32.636C25.008-31.665 25.855-30.805 26.835-30.801Z"/>
   <path class="monochrome-6 monochrome-9 multicolor-6:systemOrangeColor multicolor-9:tintColor hierarchical-6:primary hierarchical-9:primary SFSymbolsPreviewWireframe" d="M54.927-43.779C53.921-43.787 53.096-42.986 53.089-41.989C53.082-41.018 53.943-40.161 54.916-40.169C55.863-40.176 56.694-40.995 56.72-41.948C56.746-42.934 55.926-43.776 54.927-43.783Z"/>
   <path class="monochrome-5 monochrome-9 multicolor-5:systemYellowColor multicolor-9:tintColor hierarchical-5:primary hierarchical-9:primary SFSymbolsPreviewWireframe" d="M27.503-50.504C27.5-49.488 28.298-48.669 29.289-48.672C30.255-48.672 31.06-49.473 31.075-50.437C31.094-51.46 30.325-52.268 29.315-52.287C28.302-52.305 27.503-51.523 27.5-50.504Z"/>
   <path class="monochrome-4 monochrome-9 multicolor-4:systemGreenColor multicolor-9:tintColor hierarchical-4:primary hierarchical-9:primary SFSymbolsPreviewWireframe" d="M45.656-27.161C46.669-27.154 47.501-27.951 47.501-28.937C47.501-29.919 46.666-30.742 45.671-30.742C44.701-30.742 43.892-29.956 43.87-28.988C43.848-27.991 44.65-27.172 45.656-27.161Z"/>
   <path class="monochrome-8 monochrome-9 multicolor-8:systemCyanColor multicolor-9:tintColor hierarchical-8:primary hierarchical-9:primary SFSymbolsPreviewWireframe" d="M45.93-46.678C46.959-46.682 47.728-47.468 47.713-48.491C47.698-49.481 46.926-50.244 45.938-50.248C44.909-50.255 44.133-49.488 44.13-48.461C44.126-47.434 44.898-46.671 45.93-46.678Z"/>
   <path class="monochrome-3 monochrome-9 multicolor-3:systemMintColor multicolor-9:tintColor hierarchical-3:primary hierarchical-9:primary SFSymbolsPreviewWireframe" d="M30.733-38.571C31.736-38.564 32.568-39.387 32.557-40.369C32.545-41.333 31.751-42.122 30.774-42.137C29.753-42.152 28.936-41.373 28.925-40.376C28.914-39.379 29.72-38.575 30.733-38.571Z"/>
   <path class="monochrome-2 monochrome-9 multicolor-2:systemIndigoColor multicolor-9:tintColor hierarchical-2:primary hierarchical-9:primary SFSymbolsPreviewWireframe" d="M41.334-39.216C41.345-38.189 42.125-37.437 43.161-37.451C44.152-37.463 44.909-38.23 44.917-39.223C44.924-40.25 44.152-41.018 43.12-41.018C42.088-41.018 41.326-40.247 41.338-39.216Z"/>
   <path class="monochrome-1 monochrome-9 multicolor-1:systemPinkColor multicolor-9:tintColor hierarchical-1:primary hierarchical-9:primary SFSymbolsPreviewWireframe" d="M27.949-11.658C27.949-10.079 27.941-8.5 27.952-6.921C27.956-6.335 27.789-5.901 27.132-5.861C26.56-5.824 26.278-6.194 26.278-6.951C26.278-10.131 26.282-13.312 26.271-16.492C26.271-17.078 26.43-17.512 27.087-17.552C27.655-17.59 27.941-17.211 27.941-16.463C27.941-14.861 27.941-13.26 27.941-11.658Z"/>
   <path class="monochrome-0 monochrome-9 multicolor-0:systemTealColor multicolor-9:tintColor hierarchical-0:primary hierarchical-9:primary SFSymbolsPreviewWireframe" d="M27.945-19.88C27.967-19.117 27.752-18.728 27.143-18.683C26.616-18.646 26.293-19.017 26.278-19.621C26.263-20.188 26.478-20.574 27.084-20.618C27.611-20.655 27.938-20.285 27.945-19.88Z"/>
  </g>
 </g>
</svg>
