<?xml version="1.0" encoding="UTF-8"?>
<!--Generator: Apple Native CoreSVG 232.5-->
<!DOCTYPE svg
PUBLIC "-//W3C//DTD SVG 1.1//EN"
       "http://www.w3.org/Graphics/SVG/1.1/DTD/svg11.dtd">
<svg version="1.1" xmlns="http://www.w3.org/2000/svg" xmlns:xlink="http://www.w3.org/1999/xlink" width="3300" height="2200">
 <!--glyph: "uni100BCF.medium", point size: 100.0, font version: "19.0d7e1", template writer version: "128"-->
 <style>.monochrome-0 {-sfsymbols-motion-group:1}
.monochrome-1 {-sfsymbols-motion-group:0}

.multicolor-0:tintColor {-sfsymbols-motion-group:1}
.multicolor-1:tintColor {-sfsymbols-motion-group:0}

.hierarchical-0:secondary {-sfsymbols-motion-group:1}
.hierarchical-1:primary {-sfsymbols-motion-group:0}

.SFSymbolsPreviewWireframe {fill:none;opacity:1.0;stroke:black;stroke-width:0.5}
</style>
 <g id="Notes">
  <rect height="2200" id="artboard" style="fill:white;opacity:1" width="3300" x="0" y="0"/>
  <line style="fill:none;stroke:black;opacity:1;stroke-width:0.5;" x1="263" x2="3036" y1="292" y2="292"/>
  <text style="stroke:none;fill:black;font-family:sans-serif;font-size:13;font-weight:bold;" transform="matrix(1 0 0 1 263 322)">Weight/Scale Variations</text>
  <text style="stroke:none;fill:black;font-family:sans-serif;font-size:13;text-anchor:middle;" transform="matrix(1 0 0 1 559.711 322)">Ultralight</text>
  <text style="stroke:none;fill:black;font-family:sans-serif;font-size:13;text-anchor:middle;" transform="matrix(1 0 0 1 856.422 322)">Thin</text>
  <text style="stroke:none;fill:black;font-family:sans-serif;font-size:13;text-anchor:middle;" transform="matrix(1 0 0 1 1153.13 322)">Light</text>
  <text style="stroke:none;fill:black;font-family:sans-serif;font-size:13;text-anchor:middle;" transform="matrix(1 0 0 1 1449.84 322)">Regular</text>
  <text style="stroke:none;fill:black;font-family:sans-serif;font-size:13;text-anchor:middle;" transform="matrix(1 0 0 1 1746.56 322)">Medium</text>
  <text style="stroke:none;fill:black;font-family:sans-serif;font-size:13;text-anchor:middle;" transform="matrix(1 0 0 1 2043.27 322)">Semibold</text>
  <text style="stroke:none;fill:black;font-family:sans-serif;font-size:13;text-anchor:middle;" transform="matrix(1 0 0 1 2339.98 322)">Bold</text>
  <text style="stroke:none;fill:black;font-family:sans-serif;font-size:13;text-anchor:middle;" transform="matrix(1 0 0 1 2636.69 322)">Heavy</text>
  <text style="stroke:none;fill:black;font-family:sans-serif;font-size:13;text-anchor:middle;" transform="matrix(1 0 0 1 2933.4 322)">Black</text>
  <line style="fill:none;stroke:black;opacity:1;stroke-width:0.5;" x1="263" x2="3036" y1="1903" y2="1903"/>
  <g transform="matrix(0.2 0 0 0.2 263 1933)">
   <path d="m46.2402 4.15039c21.5332 0 39.4531-17.8711 39.4531-39.4043s-17.9688-39.4043-39.502-39.4043c-21.4844 0-39.3555 17.8711-39.3555 39.4043s17.9199 39.4043 39.4043 39.4043Zm0-7.42188c-17.7246 0-31.8848-14.209-31.8848-31.9824s14.1113-31.9824 31.8359-31.9824c17.7734 0 32.0312 14.209 32.0312 31.9824s-14.209 31.9824-31.9824 31.9824Zm-17.9688-31.9824c0 2.14844 1.51367 3.61328 3.75977 3.61328h10.498v10.5957c0 2.19727 1.46484 3.71094 3.61328 3.71094 2.24609 0 3.71094-1.51367 3.71094-3.71094v-10.5957h10.5957c2.19727 0 3.71094-1.46484 3.71094-3.61328 0-2.19727-1.51367-3.71094-3.71094-3.71094h-10.5957v-10.5469c0-2.24609-1.46484-3.75977-3.71094-3.75977-2.14844 0-3.61328 1.51367-3.61328 3.75977v10.5469h-10.498c-2.24609 0-3.75977 1.51367-3.75977 3.71094Z"/>
  </g>
  <g transform="matrix(0.2 0 0 0.2 281.506 1933)">
   <path d="m58.5449 14.5508c27.2461 0 49.8047-22.6074 49.8047-49.8047 0-27.2461-22.6074-49.8047-49.8535-49.8047-27.1973 0-49.7559 22.5586-49.7559 49.8047 0 27.1973 22.6074 49.8047 49.8047 49.8047Zm0-8.30078c-23.0469 0-41.4551-18.457-41.4551-41.5039s18.3594-41.5039 41.4062-41.5039 41.5527 18.457 41.5527 41.5039-18.457 41.5039-41.5039 41.5039Zm-22.6562-41.5039c0 2.39258 1.66016 4.00391 4.15039 4.00391h14.3555v14.4043c0 2.44141 1.66016 4.15039 4.05273 4.15039 2.44141 0 4.15039-1.66016 4.15039-4.15039v-14.4043h14.4043c2.44141 0 4.15039-1.61133 4.15039-4.00391 0-2.44141-1.70898-4.15039-4.15039-4.15039h-14.4043v-14.3555c0-2.49023-1.70898-4.19922-4.15039-4.19922-2.39258 0-4.05273 1.70898-4.05273 4.19922v14.3555h-14.3555c-2.49023 0-4.15039 1.70898-4.15039 4.15039Z"/>
  </g>
  <g transform="matrix(0.2 0 0 0.2 304.924 1933)">
   <path d="m74.8535 28.3203c34.8145 0 63.623-28.8086 63.623-63.5742 0-34.8145-28.8574-63.623-63.6719-63.623-34.7656 0-63.5254 28.8086-63.5254 63.623 0 34.7656 28.8086 63.5742 63.5742 63.5742Zm0-9.08203c-30.1758 0-54.4434-24.3164-54.4434-54.4922 0-30.2246 24.2188-54.4922 54.3945-54.4922 30.2246 0 54.541 24.2676 54.541 54.4922 0 30.1758-24.2676 54.4922-54.4922 54.4922Zm-28.8574-54.4922c0 2.58789 1.85547 4.39453 4.58984 4.39453h19.7266v19.7754c0 2.68555 1.85547 4.58984 4.44336 4.58984 2.68555 0 4.54102-1.85547 4.54102-4.58984v-19.7754h19.7754c2.68555 0 4.58984-1.80664 4.58984-4.39453 0-2.73438-1.85547-4.58984-4.58984-4.58984h-19.7754v-19.7266c0-2.73438-1.85547-4.63867-4.54102-4.63867-2.58789 0-4.44336 1.9043-4.44336 4.63867v19.7266h-19.7266c-2.73438 0-4.58984 1.85547-4.58984 4.58984Z"/>
  </g>
  <text style="stroke:none;fill:black;font-family:sans-serif;font-size:13;font-weight:bold;" transform="matrix(1 0 0 1 263 1953)">Design Variations</text>
  <text style="stroke:none;fill:black;font-family:sans-serif;font-size:13;" transform="matrix(1 0 0 1 263 1971)">Symbols are supported in up to nine weights and three scales.</text>
  <text style="stroke:none;fill:black;font-family:sans-serif;font-size:13;" transform="matrix(1 0 0 1 263 1989)">For optimal layout with text and other symbols, vertically align</text>
  <text style="stroke:none;fill:black;font-family:sans-serif;font-size:13;" transform="matrix(1 0 0 1 263 2007)">symbols with the adjacent text.</text>
  <line style="fill:none;stroke:#00AEEF;stroke-width:0.5;opacity:1.0;" x1="776" x2="776" y1="1919" y2="1933"/>
  <g transform="matrix(0.2 0 0 0.2 776 1933)">
   <path d="m16.5527 0.78125c2.58789 0 3.85742-0.976562 4.78516-3.71094l6.29883-17.2363h28.8086l6.29883 17.2363c0.927734 2.73438 2.19727 3.71094 4.73633 3.71094 2.58789 0 4.24805-1.5625 4.24805-4.00391 0-0.830078-0.146484-1.61133-0.537109-2.63672l-22.9004-60.9863c-1.12305-2.97852-3.125-4.49219-6.25-4.49219-3.02734 0-5.07812 1.46484-6.15234 4.44336l-22.9004 61.084c-0.390625 1.02539-0.537109 1.80664-0.537109 2.63672 0 2.44141 1.5625 3.95508 4.10156 3.95508Zm13.4766-28.3691 11.8652-32.8613h0.244141l11.8652 32.8613Z"/>
  </g>
  <line style="fill:none;stroke:#00AEEF;stroke-width:0.5;opacity:1.0;" x1="792.836" x2="792.836" y1="1919" y2="1933"/>
  <text style="stroke:none;fill:black;font-family:sans-serif;font-size:13;font-weight:bold;" transform="matrix(1 0 0 1 776 1953)">Margins</text>
  <text style="stroke:none;fill:black;font-family:sans-serif;font-size:13;" transform="matrix(1 0 0 1 776 1971)">Leading and trailing margins on the left and right side of each symbol</text>
  <text style="stroke:none;fill:black;font-family:sans-serif;font-size:13;" transform="matrix(1 0 0 1 776 1989)">can be adjusted by modifying the x-location of the margin guidelines.</text>
  <text style="stroke:none;fill:black;font-family:sans-serif;font-size:13;" transform="matrix(1 0 0 1 776 2007)">Modifications are automatically applied proportionally to all</text>
  <text style="stroke:none;fill:black;font-family:sans-serif;font-size:13;" transform="matrix(1 0 0 1 776 2025)">scales and weights.</text>
  <g transform="matrix(0.2 0 0 0.2 1289 1933)">
   <path d="m14.209 9.32617 8.49609 8.54492c4.29688 4.3457 9.22852 4.05273 13.8672-1.07422l53.4668-58.9355-4.83398-4.88281-53.0762 58.3984c-1.75781 2.00195-3.41797 2.49023-5.76172 0.146484l-5.85938-5.81055c-2.34375-2.29492-1.80664-4.00391 0.195312-5.81055l57.373-54.0039-4.88281-4.83398-57.959 54.4434c-4.93164 4.58984-5.32227 9.47266-1.02539 13.8184Zm32.0801-90.9668c-2.09961 2.05078-2.24609 4.93164-1.07422 6.88477 1.17188 1.80664 3.4668 2.97852 6.68945 2.14844 7.32422-1.70898 14.9414-2.00195 22.0703 2.68555l-2.92969 7.27539c-1.70898 4.15039-0.830078 7.08008 1.85547 9.81445l11.4746 11.5723c2.44141 2.44141 4.49219 2.53906 7.32422 2.05078l5.32227-0.976562 3.32031 3.36914-0.195312 2.7832c-0.195312 2.49023 0.439453 4.39453 2.88086 6.78711l3.80859 3.71094c2.39258 2.39258 5.46875 2.53906 7.8125 0.195312l14.5508-14.5996c2.34375-2.34375 2.24609-5.32227-0.146484-7.71484l-3.85742-3.80859c-2.39258-2.39258-4.24805-3.17383-6.64062-2.97852l-2.88086 0.244141-3.22266-3.17383 1.2207-5.61523c0.634766-2.83203-0.146484-5.0293-3.07617-7.95898l-10.9863-10.9375c-16.6992-16.6016-38.8672-16.2109-53.3203-1.75781Zm7.4707 1.85547c12.1582-8.88672 28.6133-7.37305 39.7461 3.75977l12.1582 12.0605c1.17188 1.17188 1.36719 2.09961 1.02539 3.80859l-1.61133 7.42188 7.51953 7.42188 4.93164-0.292969c1.26953-0.0488281 1.66016 0.0488281 2.63672 1.02539l2.88086 2.88086-12.207 12.207-2.88086-2.88086c-0.976562-0.976562-1.12305-1.36719-1.07422-2.68555l0.341797-4.88281-7.4707-7.42188-7.61719 1.26953c-1.61133 0.341797-2.34375 0.195312-3.56445-0.976562l-10.0098-10.0098c-1.26953-1.17188-1.41602-2.00195-0.634766-3.85742l4.39453-10.4492c-7.8125-7.27539-17.9688-10.4004-28.125-7.42188-0.78125 0.195312-1.07422-0.439453-0.439453-0.976562Z"/>
  </g>
  <text style="stroke:none;fill:black;font-family:sans-serif;font-size:13;font-weight:bold;" transform="matrix(1 0 0 1 1289 1953)">Exporting</text>
  <text style="stroke:none;fill:black;font-family:sans-serif;font-size:13;" transform="matrix(1 0 0 1 1289 1971)">Symbols should be outlined when exporting to ensure the</text>
  <text style="stroke:none;fill:black;font-family:sans-serif;font-size:13;" transform="matrix(1 0 0 1 1289 1989)">design is preserved when submitting to Xcode.</text>
  <text id="template-version" style="stroke:none;fill:black;font-family:sans-serif;font-size:13;text-anchor:end;" transform="matrix(1 0 0 1 3036 1933)">Template v.5.0</text>
  <text style="stroke:none;fill:black;font-family:sans-serif;font-size:13;text-anchor:end;" transform="matrix(1 0 0 1 3036 1951)">Requires Xcode 15 or greater</text>
  <text id="descriptive-name" style="stroke:none;fill:black;font-family:sans-serif;font-size:13;text-anchor:end;" transform="matrix(1 0 0 1 3036 1969)">Generated from brain.head.profile</text>
  <text style="stroke:none;fill:black;font-family:sans-serif;font-size:13;text-anchor:end;" transform="matrix(1 0 0 1 3036 1987)">Typeset at 100.0 points</text>
  <text style="stroke:none;fill:black;font-family:sans-serif;font-size:13;" transform="matrix(1 0 0 1 263 726)">Small</text>
  <text style="stroke:none;fill:black;font-family:sans-serif;font-size:13;" transform="matrix(1 0 0 1 263 1156)">Medium</text>
  <text style="stroke:none;fill:black;font-family:sans-serif;font-size:13;" transform="matrix(1 0 0 1 263 1586)">Large</text>
 </g>
 <g id="Guides">
  <g id="H-reference" style="fill:#27AAE1;stroke:none;" transform="matrix(1 0 0 1 339 696)">
   <path d="M0.993654 0L3.63775 0L29.3281-67.1323L30.0303-67.1323L30.0303-70.459L28.1226-70.459ZM11.6885-24.4799L46.9815-24.4799L46.2315-26.7285L12.4385-26.7285ZM55.1196 0L57.7637 0L30.6382-70.459L29.4326-70.459L29.4326-67.1323Z"/>
  </g>
  <line id="Baseline-S" style="fill:none;stroke:#27AAE1;opacity:1;stroke-width:0.5;" x1="263" x2="3036" y1="696" y2="696"/>
  <line id="Capline-S" style="fill:none;stroke:#27AAE1;opacity:1;stroke-width:0.5;" x1="263" x2="3036" y1="625.541" y2="625.541"/>
  <g id="H-reference" style="fill:#27AAE1;stroke:none;" transform="matrix(1 0 0 1 339 1126)">
   <path d="M0.993654 0L3.63775 0L29.3281-67.1323L30.0303-67.1323L30.0303-70.459L28.1226-70.459ZM11.6885-24.4799L46.9815-24.4799L46.2315-26.7285L12.4385-26.7285ZM55.1196 0L57.7637 0L30.6382-70.459L29.4326-70.459L29.4326-67.1323Z"/>
  </g>
  <line id="Baseline-M" style="fill:none;stroke:#27AAE1;opacity:1;stroke-width:0.5;" x1="263" x2="3036" y1="1126" y2="1126"/>
  <line id="Capline-M" style="fill:none;stroke:#27AAE1;opacity:1;stroke-width:0.5;" x1="263" x2="3036" y1="1055.54" y2="1055.54"/>
  <g id="H-reference" style="fill:#27AAE1;stroke:none;" transform="matrix(1 0 0 1 339 1556)">
   <path d="M0.993654 0L3.63775 0L29.3281-67.1323L30.0303-67.1323L30.0303-70.459L28.1226-70.459ZM11.6885-24.4799L46.9815-24.4799L46.2315-26.7285L12.4385-26.7285ZM55.1196 0L57.7637 0L30.6382-70.459L29.4326-70.459L29.4326-67.1323Z"/>
  </g>
  <line id="Baseline-L" style="fill:none;stroke:#27AAE1;opacity:1;stroke-width:0.5;" x1="263" x2="3036" y1="1556" y2="1556"/>
  <line id="Capline-L" style="fill:none;stroke:#27AAE1;opacity:1;stroke-width:0.5;" x1="263" x2="3036" y1="1485.54" y2="1485.54"/>
  <line id="left-margin-Ultralight-S" style="fill:none;stroke:#00AEEF;stroke-width:0.5;opacity:1.0;" x1="515.209" x2="515.209" y1="600.785" y2="720.121"/>
  <line id="right-margin-Ultralight-S" style="fill:none;stroke:#00AEEF;stroke-width:0.5;opacity:1.0;" x1="604.213" x2="604.213" y1="600.785" y2="720.121"/>
  <line id="left-margin-Regular-S" style="fill:none;stroke:#00AEEF;stroke-width:0.5;opacity:1.0;" x1="1401.19" x2="1401.19" y1="600.785" y2="720.121"/>
  <line id="right-margin-Regular-S" style="fill:none;stroke:#00AEEF;stroke-width:0.5;opacity:1.0;" x1="1498.5" x2="1498.5" y1="600.785" y2="720.121"/>
  <line id="left-margin-Black-S" style="fill:none;stroke:#00AEEF;stroke-width:0.5;opacity:1.0;" x1="2881.79" x2="2881.79" y1="600.785" y2="720.121"/>
  <line id="right-margin-Black-S" style="fill:none;stroke:#00AEEF;stroke-width:0.5;opacity:1.0;" x1="2985.01" x2="2985.01" y1="600.785" y2="720.121"/>
 </g>
 <g id="Symbols">
  <g id="Black-S" transform="matrix(1 0 0 1 2881.79 696)">
   <path class="monochrome-0 multicolor-0:tintColor hierarchical-0:secondary SFSymbolsPreviewWireframe" d="M58.1543 13.5254C74.0723 13.4766 83.9355 7.42188 83.9355-2.97852L83.9355-20.7031C89.9414-26.4648 93.457-35.4004 93.457-44.9707C93.457-68.4082 78.1738-84.0332 55.4199-84.0332C32.7148-84.0332 17.5293-68.7012 17.5293-45.8008C17.5293-44.873 17.5293-43.9941 17.5781-43.1641L11.6699-32.666C10.4492-30.4688 9.76562-28.1738 9.76562-26.0254C9.76562-22.3633 12.0605-19.1895 17.4805-18.5059L17.4805-15.5762C17.4805-5.56641 24.0234-0.244141 35.0586-1.41602L39.8926-1.9043L32.8125-5.46875L32.8125-2.97852C32.8125 7.42188 42.3828 13.5254 58.1543 13.5254ZM58.1543 1.31836C49.5117 1.31836 44.6289-1.02539 44.6289-4.29688L44.6289-10.9863C44.6289-13.1348 42.9688-14.5996 40.7715-14.3555L33.8379-13.623C31.0059-13.3301 29.6875-14.502 29.6875-16.5039L29.6875-24.9512C29.6875-26.4648 28.6621-27.5391 27.0508-27.5391L24.9512-27.5391C24.0234-27.5391 23.6328-27.9785 23.6328-28.5645C23.6328-28.8574 23.7305-29.1504 23.8281-29.3945L30.2246-40.8203C29.8828-42.5293 29.6875-44.0918 29.6875-45.8984C29.6875-61.4258 39.9902-71.8262 55.4199-71.8262C70.8496-71.8262 81.2012-61.084 81.2012-44.9707C81.2012-36.6211 77.5391-29.5898 71.582-26.9043L71.6309-4.29688C71.6309-1.02539 66.6992 1.31836 58.1543 1.31836Z"/>
   <path class="monochrome-1 multicolor-1:tintColor hierarchical-1:primary SFSymbolsPreviewWireframe" d="M33.4961-50.293C33.4961-43.8965 37.9395-39.5508 44.4824-39.5508C50.9277-39.5508 55.3711-43.5059 55.3711-49.3164C55.3711-51.7578 54.541-53.7598 52.9785-55.0293C52.0996-55.8105 51.5137-56.0059 50.6836-56.0059C49.3652-56.0059 48.3887-55.127 48.3887-53.9062C48.3887-52.7344 48.6816-52.6367 50.0488-51.3184C50.4883-50.8789 50.7324-50.293 50.7324-49.4141C50.7324-46.2891 48.291-44.2383 44.5801-44.2383C40.6738-44.2383 38.1836-46.6309 38.1836-50.3418C38.1836-52.7344 39.5508-54.834 41.748-55.8105L39.3066-59.8633C35.6934-58.0078 33.4961-54.3457 33.4961-50.293ZM37.5977-59.1309C37.5977-54.9316 40.5273-52.0508 44.9219-52.0508C46.1914-52.0508 47.2656-53.125 47.2656-54.3945C47.2656-55.6641 46.1914-56.7383 44.9219-56.7383C43.2617-56.7383 42.2852-57.6172 42.2852-59.1309C42.2852-60.6934 43.6035-61.7676 45.459-61.7676C46.7773-61.7676 48.0469-61.2305 49.1211-60.2051L51.8555-64.0137C50.0488-65.5762 47.7539-66.4551 45.459-66.4551C40.9668-66.4551 37.5977-63.3301 37.5977-59.1309ZM46.3867-59.9121C46.3867-58.4961 47.3145-57.4707 48.6816-57.4707C50-57.4707 50.9277-58.3984 50.9766-59.7168C51.0742-62.1582 52.7832-63.8672 55.2246-63.8672C56.5918-63.8672 57.9102-63.0859 58.4473-62.0117C58.7891-61.377 59.375-61.2305 60.0098-61.377C60.4492-61.5234 60.8887-61.5234 61.3281-61.5234C63.8184-61.5234 65.8691-59.5215 65.8691-57.0801C65.8691-50.4395 55.957-50.4883 55.957-42.8223C55.957-38.8184 58.8379-36.1816 63.1836-36.1816C63.2324-36.1816 63.2812-36.1816 63.3301-36.1816C64.0625-33.1055 66.3086-30.957 68.9941-30.957C73.0469-30.957 75.9277-34.9121 75.9277-41.1133C75.9277-43.9941 75.7812-45.6543 75.5371-47.2656L70.8984-46.0449C71.0938-44.5312 71.2891-43.1152 71.2891-41.1621C71.2891-37.0605 70.0684-35.6934 68.9941-35.6934C68.0176-35.6934 67.1875-37.2559 67.1875-39.3066C67.1875-39.9902 66.748-40.4297 66.0156-40.4297C65.8691-40.4297 65.8203-40.4297 64.9902-40.4297C62.5-40.4297 61.0352-41.5039 61.0352-43.1641C61.0352-47.3145 70.5078-47.3633 70.5078-57.0801C70.5078-62.207 66.6504-66.2109 61.7676-66.2109C61.5723-66.2109 61.3281-66.2109 61.084-66.2109C59.5703-67.627 57.4219-68.457 55.2246-68.457C50.2441-68.457 46.3867-64.9902 46.3867-59.9121ZM65.2832-43.8965C65.2832-42.627 66.2598-41.6504 67.5781-41.5527C73.6328-41.0645 77.7832-44.7266 77.7832-50.5371C77.7832-55.4688 74.0234-59.2773 68.6523-59.7168L67.8711-54.8828C70.9961-55.3711 73.0957-53.5645 73.0957-50.5371C73.0957-47.6074 70.9961-45.8984 67.6758-46.1914C66.3574-46.3379 65.2832-45.2148 65.2832-43.8965ZM58.1543-43.1641C57.2266-42.627 56.0059-42.2852 54.8828-42.2852C53.6621-42.2852 52.4902-42.6758 51.6113-43.4082L46.6797-40.0879C48.6816-38.5742 51.3672-37.6953 54.2969-37.6953C56.2012-37.6953 58.1055-38.0371 59.8145-38.623ZM51.1719-52.9785L52.7344-48.4375C57.5684-49.0723 60.3027-51.9043 60.1074-56.4941C60.0098-57.8125 58.9355-58.8379 57.666-58.8379C56.3477-58.8379 55.3223-57.8125 55.4199-56.4941C55.6152-54.0039 54.248-53.125 51.1719-52.9785Z"/>
  </g>
  <g id="Regular-S" transform="matrix(1 0 0 1 1401.19 696)">
   <path class="monochrome-0 multicolor-0:tintColor hierarchical-0:secondary SFSymbolsPreviewWireframe" d="M54.5898 10.9863C69.1406 10.9863 78.0273 5.81055 78.0273-3.22266L78.0273-21.8262C84.0332-27.1973 87.5488-35.7422 87.5488-45.0684C87.5488-67.0898 73.1934-81.7871 51.8555-81.7871C30.5664-81.7871 16.3086-67.3828 16.3086-45.8984C16.3086-44.7266 16.3574-43.75 16.4551-42.8223L11.7676-34.4727C10.4492-32.0801 9.76562-29.6875 9.76562-27.5391C9.76562-23.4863 12.207-20.166 16.3086-18.9453L16.3086-11.6699C16.3086-4.3457 21.582-0.78125 28.125-1.51367L36.5234-2.34375L31.543-7.66602L31.543-3.22266C31.543 5.76172 40.2344 10.9863 54.5898 10.9863ZM54.5898 3.95508C44.2871 3.95508 38.1836 0.78125 38.1836-4.44336L38.1836-8.98438C38.1836-9.47266 37.9395-9.7168 37.5-9.66797L27.1484-8.49609C24.707-8.25195 23.3398-9.22852 23.3398-12.1094L23.3398-24.1699C23.3398-24.5117 23.0957-24.7559 22.6074-24.7559L20.459-24.7559C18.1641-24.7559 16.8457-25.8789 16.8457-27.6367C16.8457-28.6133 17.1875-29.7363 17.8711-30.957L23.7305-41.4062C23.4863-42.9199 23.3398-44.4824 23.3398-45.9961C23.3398-63.2324 34.7168-74.707 51.8555-74.707C68.9941-74.707 80.5176-62.8906 80.5176-45.0684C80.5176-36.5234 76.9043-29.0039 70.9473-25.293L70.9473-4.44336C70.9473 0.78125 64.8438 3.95508 54.5898 3.95508Z"/>
   <path class="monochrome-1 multicolor-1:tintColor hierarchical-1:primary SFSymbolsPreviewWireframe" d="M28.9551-51.8066C28.9551-45.1172 33.6426-40.5273 40.5762-40.5273C47.4121-40.5273 52.002-44.6289 52.002-50.6836C52.002-53.2227 51.123-55.3223 49.5605-56.6406C48.7305-57.2754 48.2422-57.5684 47.4609-57.5684C46.3379-57.5684 45.5078-56.7871 45.5078-55.7617C45.5078-54.541 46.2891-54.1504 47.1191-53.3691C47.7051-52.7832 48.0469-51.9043 48.0469-50.7812C48.0469-46.9727 45.1172-44.5312 40.625-44.5312C36.0352-44.5312 32.959-47.3633 32.959-51.8066C32.959-54.4922 34.375-56.8848 36.7676-58.2031L34.668-61.6699C31.1523-59.668 28.9551-55.8594 28.9551-51.8066ZM33.8379-60.9375C33.8379-56.5918 36.8652-53.6621 41.3574-53.6621C42.4316-53.6621 43.3594-54.5898 43.3594-55.6641C43.3594-56.7871 42.4316-57.666 41.3574-57.666C39.2578-57.666 37.8418-58.9844 37.8418-60.9375C37.8418-62.9883 39.5996-64.502 41.9922-64.502C43.3594-64.502 44.7754-63.9648 45.9961-62.9883L48.291-66.3086C46.4844-67.7246 44.2871-68.5059 41.9922-68.5059C37.3535-68.5059 33.8379-65.2832 33.8379-60.9375ZM43.2129-61.377C43.1641-60.1562 43.9453-59.2285 45.166-59.2285C46.3379-59.2285 47.1191-60.0586 47.168-61.2305C47.3145-64.2578 49.4629-66.3574 52.4414-66.4062C54.248-66.4062 55.8594-65.4297 56.543-63.9648C56.8359-63.4277 57.4219-63.4766 58.3008-63.7207C58.5938-63.7695 58.9355-63.7695 59.3262-63.7695C62.4023-63.7695 64.8926-61.3281 64.8926-58.2031C64.8926-50.3418 53.418-51.8066 53.418-43.2129C53.418-39.3066 56.543-36.4258 60.9375-36.4258C61.2305-36.4258 61.5234-36.4258 61.9141-36.4258C62.5488-33.0078 64.8926-30.6641 67.7246-30.6641C71.875-30.6641 74.8535-35.2539 74.8535-41.4551C74.8535-44.1406 74.6582-45.8984 74.5117-47.5586L70.5078-46.3867C70.6543-44.873 70.8496-43.4082 70.8496-41.4551C70.8496-37.8418 69.3359-34.668 67.7246-34.668C66.2109-34.668 65.1855-36.5723 65.1855-39.3066C65.1855-39.7949 64.8438-39.9902 64.4043-39.9902C63.8184-39.9902 63.3301-39.9902 62.8418-39.9902C59.1797-39.9902 57.4219-41.0645 57.4219-43.2617C57.4219-49.1699 68.8965-47.3633 68.8965-58.2031C68.8965-63.623 64.8438-67.7734 59.7656-67.7734C59.4238-67.7734 59.1309-67.7246 58.7891-67.6758C57.1777-69.3848 54.834-70.3613 52.4414-70.3613C47.2168-70.3613 43.4082-66.6504 43.2129-61.377ZM63.5742-44.1895C63.5742-43.1152 64.3555-42.2852 65.5273-42.1387C71.875-41.6992 76.2207-45.459 76.2207-51.5625C76.2207-56.5918 72.5586-60.498 67.0898-61.0352L66.4551-57.0312C69.873-57.2266 72.2168-55.0781 72.2168-51.5625C72.2168-47.9492 69.6289-45.752 65.625-46.1426C64.502-46.2402 63.5742-45.2637 63.5742-44.1895ZM55.4688-42.5781C54.3945-42.1875 53.0762-41.9434 51.8066-41.9434C48.6328-41.9434 45.6055-43.2617 44.873-45.1172L41.5527-42.3828C43.5059-39.6484 47.3145-37.8906 51.4648-37.8906C53.2715-37.8906 55.127-38.2324 56.8359-38.8184ZM49.1699-55.0293L50.4395-51.1719C55.1758-51.9531 57.7148-54.834 57.7148-59.5215C57.7148-60.5469 56.7383-61.5234 55.6641-61.5234C54.5898-61.5234 53.7109-60.5957 53.7109-59.5215C53.7109-56.6406 52.3438-55.3223 49.1699-55.0293Z"/>
  </g>
  <g id="Ultralight-S" transform="matrix(1 0 0 1 515.209 696)">
   <path class="monochrome-0 multicolor-0:tintColor hierarchical-0:secondary SFSymbolsPreviewWireframe" d="M50.1851 6.71781C62.3292 6.71781 70.0806 2.3594 70.0806-4.53954L70.0806-23.4609C75.8594-28.0601 79.2388-35.8784 79.2388-44.6143C79.2388-64.229 66.5635-77.2461 47.4961-77.2461C28.6138-77.2461 15.9907-64.4766 15.9907-45.3535C15.9907-44.0454 15.9941-42.978 16.1372-41.9141L11.3589-33.2012C10.2222-31.3081 9.76562-29.5967 9.76562-27.7661C9.76562-24.3037 12.1162-21.3921 16.0815-20.9433L16.0815-13.4863C16.0815-8.43259 19.2207-5.59469 24.356-6.10006L31.7554-6.93014L30.1807-8.9829L30.1807-4.53954C30.1807 2.31057 38.0093 6.71781 50.1851 6.71781ZM50.1851 4.5C39.5191 4.5 32.5074 0.69043 32.5074-4.85205L32.5074-8.48487C32.5074-9.06397 32.127-9.30811 31.5967-9.30469L24.1514-8.40527C20.4839-7.97949 18.2994-10.0005 18.2994-13.8804L18.2994-22.5806C18.2994-22.9678 18.1006-23.1665 17.7032-23.1665L17.5073-23.1665C14.168-23.1665 12.1231-25.0161 12.1231-27.8638C12.1231-29.1128 12.5557-30.7353 13.2847-32.0923L18.4175-41.4062C18.2188-42.8291 18.2085-44.1646 18.2085-45.4512C18.2085-63.187 29.9034-75.0249 47.4961-75.0249C65.2251-75.0249 77.021-62.8906 77.021-44.6143C77.021-36.2056 73.5894-28.7314 67.7686-24.5664L67.8594-4.85205C67.8594 0.69043 60.8023 4.5 50.1851 4.5Z"/>
   <path class="monochrome-1 multicolor-1:tintColor hierarchical-1:primary SFSymbolsPreviewWireframe" d="M23.9146-51.0801C23.9146-44.7085 28.2842-40.4819 34.8545-40.4819C41.2818-40.4365 45.7354-44.2656 45.7354-49.8208C45.7354-52.042 44.7657-54.3687 43.3394-55.687C43.0542-55.8677 42.793-55.979 42.5113-55.979C41.9785-55.979 41.5118-55.4702 41.5118-54.9898C41.5118-54.5864 41.6119-54.3774 41.9424-54.0957C43.0279-52.9648 43.6875-51.4048 43.6875-49.8276C43.6875-45.4287 40.2129-42.5332 34.858-42.5332C29.4053-42.5332 25.9659-45.9102 25.9659-51.1255C25.9659-54.0835 27.5635-57.2935 29.9561-58.9751L29.4913-61.0796C26.2481-59.2593 23.9146-55.1328 23.9146-51.0801ZM28.2071-60.8467C28.2071-56.7734 31.2344-53.98 35.545-53.98C36.0743-53.98 36.6387-54.4536 36.6387-54.9829C36.6387-55.5156 36.0743-56.0313 35.545-56.0313C32.3555-56.0313 30.2584-57.9854 30.2584-60.8467C30.2584-64.0781 32.7427-66.3638 36.2251-66.3638C37.6832-66.3638 39.19-65.9629 40.5469-65.0771L41.752-66.8535C40.127-67.8154 38.293-68.415 36.2251-68.415C31.6319-68.415 28.2071-65.1924 28.2071-60.8467ZM38.0816-61.5586C38.1236-60.9736 38.4961-60.5 39.1265-60.5C39.7081-60.5 40.1714-60.9214 40.1749-61.4575C40.3668-65.6201 43.2872-68.4463 47.4917-68.4951C49.8433-68.4951 51.6817-67.3369 52.3653-65.1909C52.522-64.6992 53.0171-64.5664 53.5328-64.6743C54.416-65.1318 55.3482-65.2681 56.3291-65.2681C60.2681-65.2226 62.94-62.4634 62.94-58.1577C62.94-49.1157 49.3765-50.1265 49.3765-41.0332C49.3765-37.354 52.4561-34.8818 57.1231-34.8818C57.416-34.8818 57.7544-34.8818 58.145-34.8818C58.5982-30.8281 60.6695-28.2573 63.5923-28.2573C67.5157-28.2573 69.9493-33.1196 69.9493-41.0918C69.9493-42.5513 69.8448-44.0366 69.7437-45.4697L67.647-44.6611C67.7935-43.1021 67.898-42.0913 67.898-41.0464C67.898-34.2998 66.3389-30.3086 63.5923-30.3086C61.5337-30.3086 60.1905-32.5762 60.1905-36.128C60.1905-36.5708 59.8033-36.9932 59.3184-36.9932C58.9141-36.9932 57.5176-36.9024 57.211-36.9024C53.6851-36.9024 51.4278-38.5215 51.4278-41.0366C51.4278-48.9429 64.9912-47.3633 64.9912-58.1577C64.9912-63.5776 61.438-67.3193 56.3145-67.3193C55.6094-67.3193 54.7715-67.2705 53.8848-66.9946C52.5913-69.1577 50.2476-70.4976 47.4917-70.4976C42.2217-70.4976 38.3677-66.832 38.0816-61.5586ZM61.7578-43.2813C61.7578-42.752 62.2212-42.2397 62.7573-42.2295C68.6509-42.1987 72.7696-45.8677 72.7696-51.3355C72.7696-56.6372 68.7896-60.4072 63.1392-60.4902L63.0948-58.3935C67.6934-58.4526 70.7183-55.5776 70.7183-51.3355C70.7183-47.0864 67.5855-44.2534 62.7642-44.2808C62.2315-44.2876 61.7578-43.7651 61.7578-43.2813ZM50.837-39.6265C49.899-39.2813 48.1719-39.0371 46.9024-39.0371C43.5469-39.0371 40.4742-40.3555 39.1514-42.438L37.5113-41.1567C39.646-38.6494 42.9551-37.2095 46.8785-37.2095C48.1402-37.2095 49.9502-37.3696 51.2505-37.6831ZM43.7207-52.1685L44.4908-50.2637C49.0455-50.9995 51.4937-53.835 51.4483-58.3862C51.4483-58.9121 50.9712-59.4346 50.3965-59.4346C49.8672-59.4346 49.4424-58.9155 49.4424-58.3408C49.4424-54.5972 47.6665-52.6885 43.7207-52.1685Z"/>
  </g>
 </g>
</svg>
