<?xml version="1.0" encoding="UTF-8"?>
<!--Generator: Apple Native CoreSVG 232.5-->
<!DOCTYPE svg
PUBLIC "-//W3C//DTD SVG 1.1//EN"
       "http://www.w3.org/Graphics/SVG/1.1/DTD/svg11.dtd">
<svg version="1.1" xmlns="http://www.w3.org/2000/svg" xmlns:xlink="http://www.w3.org/1999/xlink" width="3300" height="2200">
 <!--glyph: "", point size: 100.0, font version: "19.0d7e1", template writer version: "128"-->
 <style>.monochrome-0 {-sfsymbols-variable-threshold:0.0;-sfsymbols-motion-group:1;-sfsymbols-always-pulses:true}
.monochrome-1 {-sfsymbols-variable-threshold:0.15;-sfsymbols-motion-group:1;-sfsymbols-always-pulses:true}
.monochrome-2 {-sfsymbols-variable-threshold:0.3;-sfsymbols-motion-group:1;-sfsymbols-always-pulses:true}
.monochrome-3 {-sfsymbols-variable-threshold:0.44;-sfsymbols-motion-group:1;-sfsymbols-always-pulses:true}
.monochrome-4 {-sfsymbols-variable-threshold:0.58;-sfsymbols-motion-group:1;-sfsymbols-always-pulses:true}
.monochrome-5 {-sfsymbols-variable-threshold:0.72;-sfsymbols-motion-group:1;-sfsymbols-always-pulses:true}
.monochrome-6 {-sfsymbols-variable-threshold:0.87;-sfsymbols-motion-group:1;-sfsymbols-always-pulses:true}
.monochrome-7 {-sfsymbols-motion-group:0}

.multicolor-0:systemYellowColor {-sfsymbols-variable-threshold:0.0;-sfsymbols-motion-group:1;-sfsymbols-always-pulses:true}
.multicolor-1:systemOrangeColor {-sfsymbols-variable-threshold:0.15;-sfsymbols-motion-group:1;-sfsymbols-always-pulses:true}
.multicolor-2:systemPinkColor {-sfsymbols-variable-threshold:0.3;-sfsymbols-motion-group:1;-sfsymbols-always-pulses:true}
.multicolor-3:systemPurpleColor {-sfsymbols-variable-threshold:0.44;-sfsymbols-motion-group:1;-sfsymbols-always-pulses:true}
.multicolor-4:systemPinkColor {-sfsymbols-variable-threshold:0.58;-sfsymbols-motion-group:1;-sfsymbols-always-pulses:true}
.multicolor-5:systemIndigoColor {-sfsymbols-variable-threshold:0.72;-sfsymbols-motion-group:1;-sfsymbols-always-pulses:true}
.multicolor-6:systemRedColor {-sfsymbols-variable-threshold:0.87;-sfsymbols-motion-group:1;-sfsymbols-always-pulses:true}
.multicolor-7:tintColor {-sfsymbols-motion-group:0}

.hierarchical-0:primary {-sfsymbols-variable-threshold:0.0;-sfsymbols-motion-group:1}
.hierarchical-1:primary {-sfsymbols-variable-threshold:0.15;-sfsymbols-motion-group:1}
.hierarchical-2:primary {-sfsymbols-variable-threshold:0.3;-sfsymbols-motion-group:1}
.hierarchical-3:primary {-sfsymbols-variable-threshold:0.44;-sfsymbols-motion-group:1}
.hierarchical-4:primary {-sfsymbols-variable-threshold:0.58;-sfsymbols-motion-group:1}
.hierarchical-5:primary {-sfsymbols-variable-threshold:0.72;-sfsymbols-motion-group:1}
.hierarchical-6:primary {-sfsymbols-variable-threshold:0.87;-sfsymbols-motion-group:1}
.hierarchical-7:primary {-sfsymbols-motion-group:0}

.SFSymbolsPreviewWireframe {fill:none;opacity:1.0;stroke:black;stroke-width:0.5}
</style>
 <g id="Notes">
  <rect height="2200" id="artboard" style="fill:white;opacity:1" width="3300" x="0" y="0"/>
  <line style="fill:none;stroke:black;opacity:1;stroke-width:0.5;" x1="263" x2="3036" y1="292" y2="292"/>
  <text style="stroke:none;fill:black;font-family:sans-serif;font-size:13;font-weight:bold;" transform="matrix(1 0 0 1 263 322)">Weight/Scale Variations</text>
  <text style="stroke:none;fill:black;font-family:sans-serif;font-size:13;text-anchor:middle;" transform="matrix(1 0 0 1 559.711 322)">Ultralight</text>
  <text style="stroke:none;fill:black;font-family:sans-serif;font-size:13;text-anchor:middle;" transform="matrix(1 0 0 1 856.422 322)">Thin</text>
  <text style="stroke:none;fill:black;font-family:sans-serif;font-size:13;text-anchor:middle;" transform="matrix(1 0 0 1 1153.13 322)">Light</text>
  <text style="stroke:none;fill:black;font-family:sans-serif;font-size:13;text-anchor:middle;" transform="matrix(1 0 0 1 1449.84 322)">Regular</text>
  <text style="stroke:none;fill:black;font-family:sans-serif;font-size:13;text-anchor:middle;" transform="matrix(1 0 0 1 1746.56 322)">Medium</text>
  <text style="stroke:none;fill:black;font-family:sans-serif;font-size:13;text-anchor:middle;" transform="matrix(1 0 0 1 2043.27 322)">Semibold</text>
  <text style="stroke:none;fill:black;font-family:sans-serif;font-size:13;text-anchor:middle;" transform="matrix(1 0 0 1 2339.98 322)">Bold</text>
  <text style="stroke:none;fill:black;font-family:sans-serif;font-size:13;text-anchor:middle;" transform="matrix(1 0 0 1 2636.69 322)">Heavy</text>
  <text style="stroke:none;fill:black;font-family:sans-serif;font-size:13;text-anchor:middle;" transform="matrix(1 0 0 1 2933.4 322)">Black</text>
  <line style="fill:none;stroke:black;opacity:1;stroke-width:0.5;" x1="263" x2="3036" y1="1903" y2="1903"/>
  <g transform="matrix(0.2 0 0 0.2 263 1933)">
   <path d="m46.2402 4.15039c21.5332 0 39.4531-17.8711 39.4531-39.4043s-17.9688-39.4043-39.502-39.4043c-21.4844 0-39.3555 17.8711-39.3555 39.4043s17.9199 39.4043 39.4043 39.4043Zm0-7.42188c-17.7246 0-31.8848-14.209-31.8848-31.9824s14.1113-31.9824 31.8359-31.9824c17.7734 0 32.0312 14.209 32.0312 31.9824s-14.209 31.9824-31.9824 31.9824Zm-17.9688-31.9824c0 2.14844 1.51367 3.61328 3.75977 3.61328h10.498v10.5957c0 2.19727 1.46484 3.71094 3.61328 3.71094 2.24609 0 3.71094-1.51367 3.71094-3.71094v-10.5957h10.5957c2.19727 0 3.71094-1.46484 3.71094-3.61328 0-2.19727-1.51367-3.71094-3.71094-3.71094h-10.5957v-10.5469c0-2.24609-1.46484-3.75977-3.71094-3.75977-2.14844 0-3.61328 1.51367-3.61328 3.75977v10.5469h-10.498c-2.24609 0-3.75977 1.51367-3.75977 3.71094Z"/>
  </g>
  <g transform="matrix(0.2 0 0 0.2 281.506 1933)">
   <path d="m58.5449 14.5508c27.2461 0 49.8047-22.6074 49.8047-49.8047 0-27.2461-22.6074-49.8047-49.8535-49.8047-27.1973 0-49.7559 22.5586-49.7559 49.8047 0 27.1973 22.6074 49.8047 49.8047 49.8047Zm0-8.30078c-23.0469 0-41.4551-18.457-41.4551-41.5039s18.3594-41.5039 41.4062-41.5039 41.5527 18.457 41.5527 41.5039-18.457 41.5039-41.5039 41.5039Zm-22.6562-41.5039c0 2.39258 1.66016 4.00391 4.15039 4.00391h14.3555v14.4043c0 2.44141 1.66016 4.15039 4.05273 4.15039 2.44141 0 4.15039-1.66016 4.15039-4.15039v-14.4043h14.4043c2.44141 0 4.15039-1.61133 4.15039-4.00391 0-2.44141-1.70898-4.15039-4.15039-4.15039h-14.4043v-14.3555c0-2.49023-1.70898-4.19922-4.15039-4.19922-2.39258 0-4.05273 1.70898-4.05273 4.19922v14.3555h-14.3555c-2.49023 0-4.15039 1.70898-4.15039 4.15039Z"/>
  </g>
  <g transform="matrix(0.2 0 0 0.2 304.924 1933)">
   <path d="m74.8535 28.3203c34.8145 0 63.623-28.8086 63.623-63.5742 0-34.8145-28.8574-63.623-63.6719-63.623-34.7656 0-63.5254 28.8086-63.5254 63.623 0 34.7656 28.8086 63.5742 63.5742 63.5742Zm0-9.08203c-30.1758 0-54.4434-24.3164-54.4434-54.4922 0-30.2246 24.2188-54.4922 54.3945-54.4922 30.2246 0 54.541 24.2676 54.541 54.4922 0 30.1758-24.2676 54.4922-54.4922 54.4922Zm-28.8574-54.4922c0 2.58789 1.85547 4.39453 4.58984 4.39453h19.7266v19.7754c0 2.68555 1.85547 4.58984 4.44336 4.58984 2.68555 0 4.54102-1.85547 4.54102-4.58984v-19.7754h19.7754c2.68555 0 4.58984-1.80664 4.58984-4.39453 0-2.73438-1.85547-4.58984-4.58984-4.58984h-19.7754v-19.7266c0-2.73438-1.85547-4.63867-4.54102-4.63867-2.58789 0-4.44336 1.9043-4.44336 4.63867v19.7266h-19.7266c-2.73438 0-4.58984 1.85547-4.58984 4.58984Z"/>
  </g>
  <text style="stroke:none;fill:black;font-family:sans-serif;font-size:13;font-weight:bold;" transform="matrix(1 0 0 1 263 1953)">Design Variations</text>
  <text style="stroke:none;fill:black;font-family:sans-serif;font-size:13;" transform="matrix(1 0 0 1 263 1971)">Symbols are supported in up to nine weights and three scales.</text>
  <text style="stroke:none;fill:black;font-family:sans-serif;font-size:13;" transform="matrix(1 0 0 1 263 1989)">For optimal layout with text and other symbols, vertically align</text>
  <text style="stroke:none;fill:black;font-family:sans-serif;font-size:13;" transform="matrix(1 0 0 1 263 2007)">symbols with the adjacent text.</text>
  <line style="fill:none;stroke:#00AEEF;stroke-width:0.5;opacity:1.0;" x1="776" x2="776" y1="1919" y2="1933"/>
  <g transform="matrix(0.2 0 0 0.2 776 1933)">
   <path d="m16.5527 0.78125c2.58789 0 3.85742-0.976562 4.78516-3.71094l6.29883-17.2363h28.8086l6.29883 17.2363c0.927734 2.73438 2.19727 3.71094 4.73633 3.71094 2.58789 0 4.24805-1.5625 4.24805-4.00391 0-0.830078-0.146484-1.61133-0.537109-2.63672l-22.9004-60.9863c-1.12305-2.97852-3.125-4.49219-6.25-4.49219-3.02734 0-5.07812 1.46484-6.15234 4.44336l-22.9004 61.084c-0.390625 1.02539-0.537109 1.80664-0.537109 2.63672 0 2.44141 1.5625 3.95508 4.10156 3.95508Zm13.4766-28.3691 11.8652-32.8613h0.244141l11.8652 32.8613Z"/>
  </g>
  <line style="fill:none;stroke:#00AEEF;stroke-width:0.5;opacity:1.0;" x1="792.836" x2="792.836" y1="1919" y2="1933"/>
  <text style="stroke:none;fill:black;font-family:sans-serif;font-size:13;font-weight:bold;" transform="matrix(1 0 0 1 776 1953)">Margins</text>
  <text style="stroke:none;fill:black;font-family:sans-serif;font-size:13;" transform="matrix(1 0 0 1 776 1971)">Leading and trailing margins on the left and right side of each symbol</text>
  <text style="stroke:none;fill:black;font-family:sans-serif;font-size:13;" transform="matrix(1 0 0 1 776 1989)">can be adjusted by modifying the x-location of the margin guidelines.</text>
  <text style="stroke:none;fill:black;font-family:sans-serif;font-size:13;" transform="matrix(1 0 0 1 776 2007)">Modifications are automatically applied proportionally to all</text>
  <text style="stroke:none;fill:black;font-family:sans-serif;font-size:13;" transform="matrix(1 0 0 1 776 2025)">scales and weights.</text>
  <g transform="matrix(0.2 0 0 0.2 1289 1933)">
   <path d="m14.209 9.32617 8.49609 8.54492c4.29688 4.3457 9.22852 4.05273 13.8672-1.07422l53.4668-58.9355-4.83398-4.88281-53.0762 58.3984c-1.75781 2.00195-3.41797 2.49023-5.76172 0.146484l-5.85938-5.81055c-2.34375-2.29492-1.80664-4.00391 0.195312-5.81055l57.373-54.0039-4.88281-4.83398-57.959 54.4434c-4.93164 4.58984-5.32227 9.47266-1.02539 13.8184Zm32.0801-90.9668c-2.09961 2.05078-2.24609 4.93164-1.07422 6.88477 1.17188 1.80664 3.4668 2.97852 6.68945 2.14844 7.32422-1.70898 14.9414-2.00195 22.0703 2.68555l-2.92969 7.27539c-1.70898 4.15039-0.830078 7.08008 1.85547 9.81445l11.4746 11.5723c2.44141 2.44141 4.49219 2.53906 7.32422 2.05078l5.32227-0.976562 3.32031 3.36914-0.195312 2.7832c-0.195312 2.49023 0.439453 4.39453 2.88086 6.78711l3.80859 3.71094c2.39258 2.39258 5.46875 2.53906 7.8125 0.195312l14.5508-14.5996c2.34375-2.34375 2.24609-5.32227-0.146484-7.71484l-3.85742-3.80859c-2.39258-2.39258-4.24805-3.17383-6.64062-2.97852l-2.88086 0.244141-3.22266-3.17383 1.2207-5.61523c0.634766-2.83203-0.146484-5.0293-3.07617-7.95898l-10.9863-10.9375c-16.6992-16.6016-38.8672-16.2109-53.3203-1.75781Zm7.4707 1.85547c12.1582-8.88672 28.6133-7.37305 39.7461 3.75977l12.1582 12.0605c1.17188 1.17188 1.36719 2.09961 1.02539 3.80859l-1.61133 7.42188 7.51953 7.42188 4.93164-0.292969c1.26953-0.0488281 1.66016 0.0488281 2.63672 1.02539l2.88086 2.88086-12.207 12.207-2.88086-2.88086c-0.976562-0.976562-1.12305-1.36719-1.07422-2.68555l0.341797-4.88281-7.4707-7.42188-7.61719 1.26953c-1.61133 0.341797-2.34375 0.195312-3.56445-0.976562l-10.0098-10.0098c-1.26953-1.17188-1.41602-2.00195-0.634766-3.85742l4.39453-10.4492c-7.8125-7.27539-17.9688-10.4004-28.125-7.42188-0.78125 0.195312-1.07422-0.439453-0.439453-0.976562Z"/>
  </g>
  <text style="stroke:none;fill:black;font-family:sans-serif;font-size:13;font-weight:bold;" transform="matrix(1 0 0 1 1289 1953)">Exporting</text>
  <text style="stroke:none;fill:black;font-family:sans-serif;font-size:13;" transform="matrix(1 0 0 1 1289 1971)">Symbols should be outlined when exporting to ensure the</text>
  <text style="stroke:none;fill:black;font-family:sans-serif;font-size:13;" transform="matrix(1 0 0 1 1289 1989)">design is preserved when submitting to Xcode.</text>
  <text id="template-version" style="stroke:none;fill:black;font-family:sans-serif;font-size:13;text-anchor:end;" transform="matrix(1 0 0 1 3036 1933)">Template v.5.0</text>
  <text style="stroke:none;fill:black;font-family:sans-serif;font-size:13;text-anchor:end;" transform="matrix(1 0 0 1 3036 1951)">Requires Xcode 15 or greater</text>
  <text id="descriptive-name" style="stroke:none;fill:black;font-family:sans-serif;font-size:13;text-anchor:end;" transform="matrix(1 0 0 1 3036 1969)">Generated from RoboEye2-symbol</text>
  <text style="stroke:none;fill:black;font-family:sans-serif;font-size:13;text-anchor:end;" transform="matrix(1 0 0 1 3036 1987)">Typeset at 100.0 points</text>
  <text style="stroke:none;fill:black;font-family:sans-serif;font-size:13;" transform="matrix(1 0 0 1 263 726)">Small</text>
  <text style="stroke:none;fill:black;font-family:sans-serif;font-size:13;" transform="matrix(1 0 0 1 263 1156)">Medium</text>
  <text style="stroke:none;fill:black;font-family:sans-serif;font-size:13;" transform="matrix(1 0 0 1 263 1586)">Large</text>
 </g>
 <g id="Guides">
  <g id="H-reference" style="fill:#27AAE1;stroke:none;" transform="matrix(1 0 0 1 339 696)">
   <path d="M0.993654 0L3.63775 0L29.3281-67.1323L30.0303-67.1323L30.0303-70.459L28.1226-70.459ZM11.6885-24.4799L46.9815-24.4799L46.2315-26.7285L12.4385-26.7285ZM55.1196 0L57.7637 0L30.6382-70.459L29.4326-70.459L29.4326-67.1323Z"/>
  </g>
  <line id="Baseline-S" style="fill:none;stroke:#27AAE1;opacity:1;stroke-width:0.5;" x1="263" x2="3036" y1="696" y2="696"/>
  <line id="Capline-S" style="fill:none;stroke:#27AAE1;opacity:1;stroke-width:0.5;" x1="263" x2="3036" y1="625.541" y2="625.541"/>
  <g id="H-reference" style="fill:#27AAE1;stroke:none;" transform="matrix(1 0 0 1 339 1126)">
   <path d="M0.993654 0L3.63775 0L29.3281-67.1323L30.0303-67.1323L30.0303-70.459L28.1226-70.459ZM11.6885-24.4799L46.9815-24.4799L46.2315-26.7285L12.4385-26.7285ZM55.1196 0L57.7637 0L30.6382-70.459L29.4326-70.459L29.4326-67.1323Z"/>
  </g>
  <line id="Baseline-M" style="fill:none;stroke:#27AAE1;opacity:1;stroke-width:0.5;" x1="263" x2="3036" y1="1126" y2="1126"/>
  <line id="Capline-M" style="fill:none;stroke:#27AAE1;opacity:1;stroke-width:0.5;" x1="263" x2="3036" y1="1055.54" y2="1055.54"/>
  <g id="H-reference" style="fill:#27AAE1;stroke:none;" transform="matrix(1 0 0 1 339 1556)">
   <path d="M0.993654 0L3.63775 0L29.3281-67.1323L30.0303-67.1323L30.0303-70.459L28.1226-70.459ZM11.6885-24.4799L46.9815-24.4799L46.2315-26.7285L12.4385-26.7285ZM55.1196 0L57.7637 0L30.6382-70.459L29.4326-70.459L29.4326-67.1323Z"/>
  </g>
  <line id="Baseline-L" style="fill:none;stroke:#27AAE1;opacity:1;stroke-width:0.5;" x1="263" x2="3036" y1="1556" y2="1556"/>
  <line id="Capline-L" style="fill:none;stroke:#27AAE1;opacity:1;stroke-width:0.5;" x1="263" x2="3036" y1="1485.54" y2="1485.54"/>
  <line id="left-margin-Ultralight-S" style="fill:none;stroke:#00AEEF;stroke-width:0.5;opacity:1.0;" x1="514.414" x2="514.414" y1="600.785" y2="720.121"/>
  <line id="right-margin-Ultralight-S" style="fill:none;stroke:#00AEEF;stroke-width:0.5;opacity:1.0;" x1="605.008" x2="605.008" y1="600.785" y2="720.121"/>
  <line id="left-margin-Regular-S" style="fill:none;stroke:#00AEEF;stroke-width:0.5;opacity:1.0;" x1="1404.55" x2="1404.55" y1="600.785" y2="720.121"/>
  <line id="right-margin-Regular-S" style="fill:none;stroke:#00AEEF;stroke-width:0.5;opacity:1.0;" x1="1495.14" x2="1495.14" y1="600.785" y2="720.121"/>
  <line id="left-margin-Black-S" style="fill:none;stroke:#00AEEF;stroke-width:0.5;opacity:1.0;" x1="2888.1" x2="2888.1" y1="600.785" y2="720.121"/>
  <line id="right-margin-Black-S" style="fill:none;stroke:#00AEEF;stroke-width:0.5;opacity:1.0;" x1="2978.7" x2="2978.7" y1="600.785" y2="720.121"/>
 </g>
 <g id="Symbols">
  <g id="Black-S" transform="matrix(1.00656 0 0 1.00656 2888.1 696)">
   <path class="monochrome-7 multicolor-7:tintColor hierarchical-7:primary SFSymbolsPreviewWireframe" d="M80.004-34.591C78.04-31.046 75.671-27.804 72.755-24.975C67.804-20.175 62.01-16.843 55.347-15.025C55.064-14.946 54.627-14.726 54.607-14.541C54.56-14.045 54.351-13.463 54.969-13.069C55.583-12.68 56.189-12.251 56.693-11.736C56.996-11.429 57.126-10.937 57.287-10.508C57.354-10.327 57.315-10.099 57.295-9.898C57.193-8.789 57.311-7.947 58.488-7.247C60.027-6.33 60.424-4.225 59.739-2.549C59.051-0.861 57.339 0.154 55.465-0.019C53.757-0.173 52.281-1.53 51.892-3.308C51.522-5.004 52.376-6.822 53.946-7.707C54.214-7.856 54.662-7.868 54.564-8.368C54.434-9.009 54.906-9.78 54.104-10.284C53.623-10.587 53.21-10.996 52.734-11.303C52.053-11.744 51.734-12.326 51.821-13.14C51.856-13.475 51.825-13.817 51.825-14.179C49.999-13.986 48.223-13.801 46.35-13.605C46.35-12.971 46.311-12.294 46.374-11.626C46.393-11.441 46.685-11.232 46.897-11.118C48.393-10.308 49.219-8.769 49.074-7.026C48.944-5.496 47.775-4.064 46.26-3.568C44.272-2.919 42.104-3.879 41.238-5.787C40.372-7.695 41.061-9.981 42.91-10.984C43.524-11.319 43.686-11.688 43.627-12.306C43.587-12.731 43.619-13.164 43.619-13.64C42.67-13.711 41.769-13.758 40.872-13.852C39.99-13.947 39.116-14.092 38.144-14.226C38.144-13.75 38.124-13.306 38.148-12.861C38.18-12.255 37.928-11.81 37.451-11.464C36.975-11.114 36.531-10.709 36.027-10.406C35.503-10.095 35.409-9.682 35.385-9.111C35.358-8.368 35.527-7.927 36.243-7.526C37.849-6.625 38.51-4.662 37.979-2.903C37.428-1.085 35.736 0.075 33.752-0.007C32.004-0.078 30.477-1.392 30.037-3.202C29.608-4.957 30.434-6.857 32.095-7.691C32.607-7.951 32.681-8.246 32.685-8.734C32.713-11.716 32.245-11.008 34.748-12.845C35.409-13.333 35.48-13.884 35.385-14.537C35.362-14.706 35.043-14.907 34.826-14.966C31.221-15.926 27.817-17.358 24.617-19.274C18.525-22.929 13.762-27.871 10.271-34.055C9.894-34.728 9.917-35.314 10.295-35.975C15.86-45.634 23.991-51.992 34.74-54.998C34.984-55.065 35.373-55.281 35.373-55.431C35.373-55.895 35.366-56.481 35.094-56.792C34.63-57.331 33.968-57.709 33.382-58.138C32.886-58.504 32.614-58.964 32.674-59.594C32.685-59.727 32.666-59.869 32.674-60.003C32.752-61.14 32.634-61.966 31.461-62.784C28.911-64.567 29.627-68.564 32.536-69.709C32.78-69.807 33.004-69.902 33.232-69.996C33.779-69.996 34.327-69.996 34.874-69.996C35.102-69.902 35.33-69.811 35.554-69.717C37.042-69.087 37.943-67.97 38.128-66.376C38.321-64.693 37.684-63.296 36.216-62.442C35.558-62.06 35.393-61.671 35.393-60.971C35.393-60.31 35.551-59.861 36.129-59.519C36.613-59.228 37.042-58.842 37.499-58.504C37.947-58.165 38.184-57.737 38.156-57.158C38.136-56.71 38.152-56.257 38.152-55.813C39.998-56.009 41.781-56.202 43.627-56.399C43.627-56.898 43.587-57.422 43.638-57.933C43.686-58.433 43.512-58.685 43.056-58.921C41.423-59.771 40.572-61.62 40.958-63.343C41.395-65.283 43.005-66.605 44.957-66.624C46.877-66.644 48.499-65.373 48.979-63.473C49.444-61.632 48.562-59.759 46.818-58.83C46.63-58.732 46.393-58.519 46.378-58.342C46.327-57.693 46.358-57.036 46.358-56.395C48.208-56.202 49.987-56.013 51.774-55.828C51.785-55.852 51.813-55.891 51.817-55.935C51.829-56.049 51.844-56.167 51.829-56.277C51.612-57.567 52.124-58.476 53.253-59.082C53.352-59.133 53.423-59.239 53.525-59.291C54.41-59.727 54.702-60.424 54.588-61.392C54.536-61.809 54.473-62.045 54.056-62.265C52.454-63.119 51.679-64.508 51.856-66.313C52.021-67.997 52.974-69.154 54.56-69.768C54.745-69.839 54.93-69.921 55.111-70C55.658-70 56.205-70 56.752-70C56.98-69.906 57.205-69.811 57.433-69.721C60.338-68.576 61.054-64.578 58.508-62.8C57.339-61.982 57.217-61.156 57.295-60.018C57.303-59.881 57.287-59.743 57.295-59.609C57.354-58.98 57.083-58.516 56.587-58.15C56.02-57.733 55.473-57.28 54.895-56.879C54.332-56.489 54.584-55.927 54.595-55.443C54.595-55.293 54.993-55.108 55.237-55.014C57.614-54.117 60.042-53.338 62.361-52.315C64.033-51.575 65.58-50.533 67.15-49.577C67.874-49.136 68.016-48.333 67.599-47.68C67.178-47.023 66.418-46.858 65.682-47.267C65.525-47.358 65.371-47.46 65.222-47.558C62.376-49.435 59.318-50.871 56.071-51.906C55.591-52.059 55.099-52.177 54.556-52.327C54.556-50.843 54.572-49.478 54.548-48.113C54.54-47.688 54.67-47.421 55.005-47.141C58.354-44.332 60.33-40.748 60.672-36.392C61.105-30.888 59.118-26.332 54.891-22.756C54.737-22.626 54.576-22.402 54.572-22.217C54.544-20.742 54.556-19.262 54.556-17.744C54.757-17.771 54.914-17.771 55.06-17.814C64.466-20.604 71.716-26.187 76.781-34.587C76.907-34.795 76.903-35.216 76.773-35.425C76.01-36.636 75.167-37.797 74.412-39.017C74.18-39.39 74.026-39.902 74.061-40.331C74.109-40.882 74.549-41.236 75.12-41.346C75.73-41.464 76.21-41.22 76.533-40.732C77.698-38.97 78.843-37.191 79.993-35.421L79.993-34.602ZM35.421-52.244C35.299-52.244 35.232-52.252 35.165-52.244C35.055-52.224 34.94-52.201 34.834-52.165C25.526-49.396 18.344-43.86 13.263-35.59C13.003-35.169 12.995-34.854 13.259-34.425C17.891-26.836 24.389-21.528 32.748-18.507C33.606-18.196 34.488-17.96 35.425-17.665C35.425-19.18 35.405-20.545 35.436-21.91C35.444-22.347 35.291-22.599 34.964-22.878C30.737-26.498 28.813-31.113 29.328-36.636C29.73-40.929 31.733-44.454 35.051-47.224C35.208-47.358 35.405-47.566 35.405-47.747C35.432-49.246 35.421-50.749 35.421-52.248ZM44.969-47.995C37.806-47.991 31.993-42.164 31.993-34.996C31.993-27.835 37.821-22.008 44.981-22.008C52.179-22.008 58-27.839 57.992-35.043C57.984-42.192 52.143-48.003 44.969-47.995ZM51.805-53.023C50.018-53.22 48.231-53.421 46.393-53.621L46.393-50.871C48.235-50.367 50.018-49.88 51.805-49.392L51.805-53.023ZM43.587-53.637C41.871-53.432 40.206-53.24 38.55-53.019C38.404-53 38.176-52.787 38.172-52.661C38.14-51.54 38.156-50.415 38.156-49.384C39.986-49.887 41.769-50.375 43.587-50.875L43.587-53.641ZM51.809-16.984L51.809-20.612C50.018-20.124 48.22-19.632 46.413-19.14L46.413-16.382C48.247-16.587 50.022-16.784 51.809-16.984ZM38.156-16.988C39.978-16.787 41.765-16.587 43.595-16.382L43.595-19.132C41.745-19.64 39.966-20.128 38.156-20.62L38.156-16.984Z"/>
   <path class="monochrome-5 monochrome-7 multicolor-5:systemIndigoColor multicolor-7:tintColor hierarchical-5:primary hierarchical-7:primary SFSymbolsPreviewWireframe" d="M34.023-64.535C34.724-64.515 35.385-65.141 35.413-65.853C35.44-66.55 34.822-67.218 34.114-67.258C33.39-67.297 32.697-66.64 32.693-65.908C32.685-65.204 33.319-64.555 34.027-64.535Z"/>
   <path class="monochrome-4 monochrome-7 multicolor-4:systemPinkColor multicolor-7:tintColor hierarchical-4:primary hierarchical-7:primary SFSymbolsPreviewWireframe" d="M55.945-64.535C56.654-64.543 57.291-65.184 57.295-65.889C57.299-66.593 56.666-67.242 55.957-67.258C55.229-67.273 54.552-66.597 54.572-65.869C54.591-65.161 55.241-64.527 55.941-64.535Z"/>
   <path class="monochrome-2 monochrome-7 multicolor-2:systemPinkColor multicolor-7:tintColor hierarchical-2:primary hierarchical-7:primary SFSymbolsPreviewWireframe" d="M34.086-2.75C34.795-2.773 35.425-3.426 35.417-4.127C35.405-4.862 34.708-5.515 33.988-5.472C33.276-5.429 32.662-4.76 32.693-4.064C32.725-3.352 33.386-2.73 34.086-2.754Z"/>
   <path class="monochrome-0 monochrome-7 multicolor-0:systemYellowColor multicolor-7:tintColor hierarchical-0:primary hierarchical-7:primary SFSymbolsPreviewWireframe" d="M57.299-4.083C57.315-4.784 56.689-5.445 55.981-5.472C55.284-5.5 54.615-4.882 54.576-4.17C54.536-3.446 55.194-2.754 55.926-2.75C56.63-2.742 57.28-3.375 57.299-4.083Z"/>
   <path class="monochrome-3 monochrome-7 multicolor-3:systemPurpleColor multicolor-7:tintColor hierarchical-3:primary hierarchical-7:primary SFSymbolsPreviewWireframe" d="M45.016-63.858C44.264-63.87 43.646-63.28 43.631-62.548C43.615-61.824 44.229-61.203 44.973-61.191C45.716-61.179 46.342-61.773 46.358-62.505C46.374-63.233 45.764-63.851 45.016-63.862Z"/>
   <path class="monochrome-1 monochrome-7 multicolor-1:systemOrangeColor multicolor-7:tintColor hierarchical-1:primary hierarchical-7:primary SFSymbolsPreviewWireframe" d="M44.992-6.145C45.74-6.145 46.354-6.743 46.358-7.475C46.358-8.203 45.744-8.812 44.996-8.812C44.252-8.812 43.631-8.21 43.631-7.479C43.631-6.747 44.244-6.141 44.988-6.141Z"/>
   <path class="monochrome-7 multicolor-7:tintColor hierarchical-7:primary SFSymbolsPreviewWireframe" d="M63.596-35.008C63.596-35.326 63.581-35.645 63.596-35.96C63.64-36.668 64.167-37.183 64.872-37.215C65.604-37.25 66.245-36.762 66.3-36.046C66.351-35.346 66.355-34.634 66.3-33.937C66.245-33.225 65.584-32.737 64.86-32.781C64.159-32.824 63.636-33.343 63.596-34.052C63.577-34.37 63.596-34.689 63.596-35.004ZM62.9-42.255C62.29-42.263 61.916-42.727 61.613-43.333C61.302-43.95 61.081-44.545 61.55-45.174C61.928-45.686 62.616-45.866 63.195-45.623C63.805-45.363 64.51-44.041 64.38-43.396C64.25-42.75 63.683-42.27 62.904-42.255ZM64.423-26.084C64.171-25.687 63.88-25.034 63.411-24.55C62.982-24.109 62.353-24.18 61.845-24.546C61.337-24.912 61.137-25.447 61.341-26.045C61.479-26.446 61.68-26.844 61.924-27.19C62.286-27.705 62.825-27.882 63.427-27.686C64.053-27.481 64.364-27.005 64.427-26.084ZM72.617-44.541C72.609-43.762 72.011-43.187 71.22-43.199C70.441-43.211 69.866-43.821 69.89-44.604C69.913-45.339 70.515-45.926 71.251-45.926C72.019-45.926 72.625-45.312 72.617-44.541ZM26.392-34.956C26.392-34.661 26.404-34.366 26.392-34.071C26.353-33.328 25.806-32.8 25.074-32.781C24.346-32.761 23.728-33.265 23.68-33.993C23.637-34.65 23.641-35.311 23.676-35.968C23.72-36.727 24.342-37.254 25.097-37.223C25.821-37.195 26.357-36.656 26.392-35.909C26.408-35.59 26.392-35.271 26.392-34.956ZM27.097-42.255C26.046-42.255 25.369-43.167 25.68-44.037C25.814-44.419 25.999-44.792 26.223-45.127C26.64-45.745 27.4-45.902 28.025-45.544C28.624-45.202 28.88-44.505 28.604-43.844C28.289-43.093 28.006-42.282 27.101-42.251ZM26.735-27.737C27.9-27.8 28.454-26.844 28.691-25.797C28.852-25.077 28.281-24.416 27.537-24.302C26.805-24.188 26.349-24.519 25.869-25.502C25.467-26.324 25.495-26.903 26.03-27.359C26.274-27.568 26.609-27.674 26.735-27.741ZM52.384-34.953C52.368-30.876 49.074-27.611 44.981-27.615C40.868-27.619 37.589-30.924 37.605-35.051C37.621-39.154 40.939-42.412 45.075-42.385C49.148-42.357 52.395-39.056 52.38-34.953Z"/>
   <path class="monochrome-6 monochrome-7 multicolor-6:systemRedColor multicolor-7:tintColor hierarchical-6:primary hierarchical-7:primary SFSymbolsPreviewWireframe" d="M45.02-39.65C42.473-39.662 40.352-37.565 40.34-35.023C40.328-32.478 42.43-30.357 44.969-30.345C47.511-30.334 49.636-32.435 49.648-34.972C49.66-37.518 47.562-39.634 45.02-39.646Z"/>
  </g>
  <g id="Regular-S" transform="matrix(1.00656 0 0 1.00656 1404.55 696)">
   <path class="monochrome-7 multicolor-7:tintColor hierarchical-7:primary SFSymbolsPreviewWireframe" d="M80.004-34.591C78.04-31.046 75.671-27.804 72.755-24.975C67.804-20.175 62.01-16.843 55.347-15.025C55.064-14.946 54.627-14.726 54.607-14.541C54.56-14.045 54.351-13.463 54.969-13.069C55.583-12.68 56.189-12.251 56.693-11.736C56.996-11.429 57.126-10.937 57.287-10.508C57.354-10.327 57.315-10.099 57.295-9.898C57.193-8.789 57.311-7.947 58.488-7.247C60.027-6.33 60.424-4.225 59.739-2.549C59.051-0.861 57.339 0.154 55.465-0.019C53.757-0.173 52.281-1.53 51.892-3.308C51.522-5.004 52.376-6.822 53.946-7.707C54.214-7.856 54.662-7.868 54.564-8.368C54.434-9.009 54.906-9.78 54.103-10.284C53.623-10.587 53.21-10.996 52.734-11.303C52.053-11.744 51.734-12.326 51.821-13.14C51.856-13.475 51.825-13.817 51.825-14.179C49.999-13.986 48.224-13.801 46.35-13.605C46.35-12.971 46.311-12.294 46.374-11.626C46.393-11.441 46.685-11.232 46.897-11.118C48.393-10.308 49.219-8.769 49.074-7.026C48.944-5.496 47.775-4.064 46.26-3.568C44.272-2.919 42.104-3.879 41.238-5.787C40.372-7.695 41.061-9.981 42.91-10.984C43.524-11.319 43.686-11.688 43.627-12.306C43.587-12.731 43.619-13.164 43.619-13.64C42.67-13.711 41.769-13.758 40.872-13.852C39.99-13.947 39.116-14.092 38.144-14.226C38.144-13.75 38.124-13.306 38.148-12.861C38.18-12.255 37.928-11.81 37.451-11.464C36.975-11.114 36.531-10.709 36.027-10.406C35.503-10.095 35.409-9.682 35.385-9.111C35.358-8.368 35.527-7.927 36.243-7.526C37.849-6.625 38.51-4.662 37.979-2.903C37.428-1.085 35.736 0.075 33.752-0.007C32.004-0.078 30.477-1.392 30.037-3.202C29.608-4.957 30.434-6.857 32.095-7.691C32.607-7.951 32.681-8.246 32.685-8.734C32.713-11.716 32.245-11.008 34.748-12.845C35.409-13.333 35.48-13.884 35.385-14.537C35.362-14.706 35.043-14.907 34.826-14.966C31.221-15.926 27.817-17.358 24.617-19.274C18.525-22.929 13.762-27.871 10.271-34.055C9.894-34.728 9.917-35.314 10.295-35.975C15.86-45.634 23.991-51.992 34.74-54.998C34.984-55.065 35.373-55.281 35.373-55.431C35.373-55.895 35.366-56.481 35.094-56.792C34.63-57.331 33.968-57.709 33.382-58.138C32.886-58.504 32.614-58.964 32.674-59.594C32.685-59.727 32.666-59.869 32.674-60.003C32.752-61.14 32.634-61.966 31.461-62.784C28.911-64.567 29.627-68.564 32.536-69.709C32.78-69.807 33.004-69.902 33.232-69.996C33.779-69.996 34.327-69.996 34.874-69.996C35.102-69.902 35.33-69.811 35.554-69.717C37.042-69.087 37.943-67.97 38.128-66.376C38.321-64.693 37.684-63.296 36.216-62.442C35.558-62.06 35.393-61.671 35.393-60.971C35.393-60.31 35.551-59.861 36.129-59.519C36.613-59.228 37.042-58.842 37.499-58.504C37.947-58.165 38.184-57.737 38.156-57.158C38.136-56.71 38.152-56.257 38.152-55.813C39.998-56.009 41.781-56.202 43.627-56.399C43.627-56.898 43.587-57.422 43.638-57.933C43.686-58.433 43.512-58.685 43.056-58.921C41.423-59.771 40.572-61.62 40.958-63.343C41.395-65.283 43.005-66.605 44.957-66.624C46.877-66.644 48.499-65.373 48.979-63.473C49.444-61.632 48.562-59.759 46.818-58.83C46.63-58.732 46.393-58.519 46.378-58.342C46.327-57.693 46.358-57.036 46.358-56.395C48.208-56.202 49.987-56.013 51.774-55.828C51.785-55.852 51.813-55.891 51.817-55.935C51.829-56.049 51.844-56.167 51.829-56.277C51.612-57.567 52.124-58.476 53.253-59.082C53.352-59.133 53.423-59.239 53.525-59.291C54.41-59.727 54.702-60.424 54.588-61.392C54.536-61.809 54.473-62.045 54.056-62.265C52.454-63.119 51.679-64.508 51.856-66.313C52.021-67.997 52.974-69.154 54.56-69.768C54.745-69.839 54.93-69.921 55.111-70C55.658-70 56.205-70 56.752-70C56.98-69.906 57.205-69.811 57.433-69.721C60.338-68.576 61.054-64.578 58.508-62.8C57.339-61.982 57.217-61.156 57.295-60.018C57.303-59.881 57.287-59.743 57.295-59.609C57.354-58.98 57.083-58.516 56.587-58.15C56.02-57.733 55.473-57.28 54.895-56.879C54.332-56.489 54.584-55.927 54.595-55.443C54.595-55.293 54.993-55.108 55.237-55.014C57.614-54.117 60.042-53.338 62.361-52.315C64.033-51.575 65.58-50.533 67.15-49.577C67.875-49.136 68.016-48.333 67.599-47.68C67.178-47.023 66.418-46.858 65.682-47.267C65.525-47.358 65.371-47.46 65.222-47.558C62.376-49.435 59.318-50.871 56.071-51.906C55.591-52.059 55.099-52.177 54.556-52.327C54.556-50.843 54.572-49.478 54.548-48.113C54.54-47.688 54.67-47.421 55.005-47.141C58.354-44.332 60.33-40.748 60.672-36.392C61.105-30.888 59.118-26.332 54.891-22.756C54.737-22.626 54.576-22.402 54.572-22.217C54.544-20.742 54.556-19.262 54.556-17.744C54.757-17.771 54.914-17.771 55.06-17.814C64.466-20.604 71.716-26.187 76.781-34.587C76.907-34.795 76.903-35.216 76.773-35.425C76.01-36.636 75.167-37.797 74.412-39.017C74.18-39.39 74.026-39.902 74.061-40.331C74.109-40.882 74.549-41.236 75.12-41.346C75.73-41.464 76.21-41.22 76.533-40.732C77.698-38.97 78.843-37.191 79.993-35.421L79.993-34.602ZM35.421-52.244C35.299-52.244 35.232-52.252 35.165-52.244C35.055-52.224 34.941-52.201 34.834-52.165C25.526-49.396 18.344-43.86 13.263-35.59C13.003-35.169 12.995-34.854 13.259-34.425C17.891-26.836 24.389-21.528 32.748-18.507C33.606-18.196 34.488-17.96 35.425-17.665C35.425-19.18 35.405-20.545 35.436-21.91C35.444-22.347 35.291-22.599 34.964-22.878C30.737-26.498 28.813-31.113 29.328-36.636C29.73-40.929 31.733-44.454 35.051-47.224C35.208-47.358 35.405-47.566 35.405-47.747C35.432-49.246 35.421-50.749 35.421-52.248ZM44.969-47.995C37.806-47.991 31.993-42.164 31.993-34.996C31.993-27.835 37.821-22.008 44.98-22.008C52.179-22.008 58-27.839 57.992-35.043C57.984-42.192 52.143-48.003 44.969-47.995ZM51.805-53.023C50.018-53.22 48.231-53.421 46.393-53.621L46.393-50.871C48.235-50.367 50.018-49.88 51.805-49.392L51.805-53.023ZM43.587-53.637C41.871-53.432 40.206-53.24 38.55-53.019C38.404-53 38.176-52.787 38.172-52.661C38.14-51.54 38.156-50.415 38.156-49.384C39.986-49.887 41.769-50.375 43.587-50.875L43.587-53.641ZM51.809-16.984L51.809-20.612C50.018-20.124 48.22-19.632 46.413-19.14L46.413-16.382C48.247-16.587 50.022-16.784 51.809-16.984ZM38.156-16.988C39.978-16.787 41.765-16.587 43.595-16.382L43.595-19.132C41.745-19.64 39.966-20.128 38.156-20.62L38.156-16.984Z"/>
   <path class="monochrome-5 monochrome-7 multicolor-5:systemIndigoColor multicolor-7:tintColor hierarchical-5:primary hierarchical-7:primary SFSymbolsPreviewWireframe" d="M34.023-64.535C34.724-64.515 35.385-65.141 35.413-65.853C35.44-66.55 34.822-67.218 34.114-67.258C33.39-67.297 32.697-66.64 32.693-65.908C32.685-65.204 33.319-64.555 34.027-64.535Z"/>
   <path class="monochrome-4 monochrome-7 multicolor-4:systemPinkColor multicolor-7:tintColor hierarchical-4:primary hierarchical-7:primary SFSymbolsPreviewWireframe" d="M55.945-64.535C56.654-64.543 57.291-65.184 57.295-65.889C57.299-66.593 56.666-67.242 55.957-67.258C55.229-67.273 54.552-66.597 54.572-65.869C54.592-65.161 55.241-64.527 55.941-64.535Z"/>
   <path class="monochrome-2 monochrome-7 multicolor-2:systemPinkColor multicolor-7:tintColor hierarchical-2:primary hierarchical-7:primary SFSymbolsPreviewWireframe" d="M34.086-2.75C34.795-2.773 35.425-3.426 35.417-4.127C35.405-4.862 34.708-5.515 33.988-5.472C33.276-5.429 32.662-4.76 32.693-4.064C32.725-3.352 33.386-2.73 34.086-2.754Z"/>
   <path class="monochrome-0 monochrome-7 multicolor-0:systemYellowColor multicolor-7:tintColor hierarchical-0:primary hierarchical-7:primary SFSymbolsPreviewWireframe" d="M57.299-4.083C57.315-4.784 56.689-5.445 55.981-5.472C55.284-5.5 54.615-4.882 54.576-4.17C54.536-3.446 55.194-2.754 55.926-2.75C56.63-2.742 57.28-3.375 57.299-4.083Z"/>
   <path class="monochrome-3 monochrome-7 multicolor-3:systemPurpleColor multicolor-7:tintColor hierarchical-3:primary hierarchical-7:primary SFSymbolsPreviewWireframe" d="M45.016-63.858C44.264-63.87 43.646-63.28 43.631-62.548C43.615-61.824 44.229-61.203 44.973-61.191C45.716-61.179 46.342-61.773 46.358-62.505C46.374-63.233 45.764-63.851 45.016-63.862Z"/>
   <path class="monochrome-1 monochrome-7 multicolor-1:systemOrangeColor multicolor-7:tintColor hierarchical-1:primary hierarchical-7:primary SFSymbolsPreviewWireframe" d="M44.992-6.145C45.74-6.145 46.354-6.743 46.358-7.475C46.358-8.203 45.744-8.812 44.996-8.812C44.252-8.812 43.631-8.21 43.631-7.479C43.631-6.747 44.245-6.141 44.988-6.141Z"/>
   <path class="monochrome-7 multicolor-7:tintColor hierarchical-7:primary SFSymbolsPreviewWireframe" d="M63.596-35.008C63.596-35.326 63.581-35.645 63.596-35.96C63.64-36.668 64.167-37.183 64.872-37.215C65.604-37.25 66.245-36.762 66.3-36.046C66.351-35.346 66.355-34.634 66.3-33.937C66.245-33.225 65.584-32.737 64.86-32.781C64.159-32.824 63.636-33.343 63.596-34.052C63.577-34.37 63.596-34.689 63.596-35.004ZM62.9-42.255C62.29-42.263 61.916-42.727 61.613-43.333C61.302-43.95 61.081-44.545 61.55-45.174C61.928-45.686 62.616-45.866 63.195-45.623C63.805-45.363 64.509-44.041 64.38-43.396C64.25-42.75 63.683-42.27 62.904-42.255ZM64.423-26.084C64.171-25.687 63.88-25.034 63.411-24.55C62.982-24.109 62.353-24.18 61.845-24.546C61.337-24.912 61.137-25.447 61.341-26.045C61.479-26.446 61.68-26.844 61.924-27.19C62.286-27.705 62.825-27.882 63.427-27.686C64.053-27.481 64.364-27.005 64.427-26.084ZM72.617-44.541C72.609-43.762 72.011-43.187 71.22-43.199C70.441-43.211 69.866-43.821 69.89-44.604C69.913-45.339 70.515-45.926 71.251-45.926C72.019-45.926 72.625-45.312 72.617-44.541ZM26.392-34.956C26.392-34.661 26.404-34.366 26.392-34.071C26.353-33.328 25.806-32.8 25.074-32.781C24.346-32.761 23.728-33.265 23.68-33.993C23.637-34.65 23.641-35.311 23.676-35.968C23.72-36.727 24.342-37.254 25.097-37.223C25.821-37.195 26.357-36.656 26.392-35.909C26.408-35.59 26.392-35.271 26.392-34.956ZM27.097-42.255C26.046-42.255 25.369-43.167 25.68-44.037C25.814-44.419 25.999-44.792 26.223-45.127C26.64-45.745 27.4-45.902 28.025-45.544C28.624-45.202 28.88-44.505 28.604-43.844C28.289-43.093 28.006-42.282 27.101-42.251ZM26.735-27.737C27.9-27.8 28.454-26.844 28.691-25.797C28.852-25.077 28.281-24.416 27.537-24.302C26.805-24.188 26.349-24.519 25.869-25.502C25.467-26.324 25.495-26.903 26.03-27.359C26.274-27.568 26.609-27.674 26.735-27.741ZM52.384-34.953C52.368-30.876 49.074-27.611 44.981-27.615C40.868-27.619 37.589-30.924 37.605-35.051C37.621-39.154 40.939-42.412 45.075-42.385C49.148-42.357 52.395-39.056 52.38-34.953Z"/>
   <path class="monochrome-6 monochrome-7 multicolor-6:systemRedColor multicolor-7:tintColor hierarchical-6:primary hierarchical-7:primary SFSymbolsPreviewWireframe" d="M45.02-39.65C42.473-39.662 40.352-37.565 40.34-35.023C40.328-32.478 42.43-30.357 44.969-30.345C47.511-30.334 49.636-32.435 49.648-34.972C49.66-37.518 47.562-39.634 45.02-39.646Z"/>
  </g>
  <g id="Ultralight-S" transform="matrix(1.00656 0 0 1.00656 514.414 696)">
   <path class="monochrome-7 multicolor-7:tintColor hierarchical-7:primary SFSymbolsPreviewWireframe" d="M80.004-34.591C78.04-31.046 75.671-27.804 72.755-24.975C67.804-20.175 62.01-16.843 55.347-15.025C55.064-14.946 54.627-14.726 54.607-14.541C54.56-14.045 54.351-13.463 54.969-13.069C55.583-12.68 56.189-12.251 56.693-11.736C56.996-11.429 57.126-10.937 57.287-10.508C57.354-10.327 57.315-10.099 57.295-9.898C57.193-8.789 57.311-7.947 58.488-7.247C60.027-6.33 60.424-4.225 59.739-2.549C59.051-0.861 57.339 0.154 55.465-0.019C53.757-0.173 52.281-1.53 51.892-3.308C51.522-5.004 52.376-6.822 53.946-7.707C54.214-7.856 54.662-7.868 54.564-8.368C54.434-9.009 54.906-9.78 54.103-10.284C53.623-10.587 53.21-10.996 52.734-11.303C52.053-11.744 51.734-12.326 51.821-13.14C51.856-13.475 51.825-13.817 51.825-14.179C49.999-13.986 48.224-13.801 46.35-13.605C46.35-12.971 46.311-12.294 46.374-11.626C46.393-11.441 46.685-11.232 46.897-11.118C48.393-10.308 49.219-8.769 49.074-7.026C48.944-5.496 47.775-4.064 46.26-3.568C44.272-2.919 42.104-3.879 41.238-5.787C40.372-7.695 41.061-9.981 42.91-10.984C43.524-11.319 43.686-11.688 43.627-12.306C43.587-12.731 43.619-13.164 43.619-13.64C42.67-13.711 41.769-13.758 40.872-13.852C39.99-13.947 39.116-14.092 38.144-14.226C38.144-13.75 38.124-13.306 38.148-12.861C38.18-12.255 37.928-11.81 37.451-11.464C36.975-11.114 36.531-10.709 36.027-10.406C35.503-10.095 35.409-9.682 35.385-9.111C35.358-8.368 35.527-7.927 36.243-7.526C37.849-6.625 38.51-4.662 37.979-2.903C37.428-1.085 35.736 0.075 33.752-0.007C32.004-0.078 30.477-1.392 30.037-3.202C29.608-4.957 30.434-6.857 32.095-7.691C32.607-7.951 32.681-8.246 32.685-8.734C32.713-11.716 32.245-11.008 34.748-12.845C35.409-13.333 35.48-13.884 35.385-14.537C35.362-14.706 35.043-14.907 34.826-14.966C31.221-15.926 27.817-17.358 24.617-19.274C18.525-22.929 13.762-27.871 10.271-34.055C9.894-34.728 9.917-35.314 10.295-35.975C15.86-45.634 23.991-51.992 34.74-54.998C34.984-55.065 35.373-55.281 35.373-55.431C35.373-55.895 35.366-56.481 35.094-56.792C34.63-57.331 33.968-57.709 33.382-58.138C32.886-58.504 32.614-58.964 32.674-59.594C32.685-59.727 32.666-59.869 32.674-60.003C32.752-61.14 32.634-61.966 31.461-62.784C28.911-64.567 29.627-68.564 32.536-69.709C32.78-69.807 33.004-69.902 33.232-69.996C33.779-69.996 34.327-69.996 34.874-69.996C35.102-69.902 35.33-69.811 35.554-69.717C37.042-69.087 37.943-67.97 38.128-66.376C38.321-64.693 37.684-63.296 36.216-62.442C35.558-62.06 35.393-61.671 35.393-60.971C35.393-60.31 35.551-59.861 36.129-59.519C36.613-59.228 37.042-58.842 37.499-58.504C37.947-58.165 38.184-57.737 38.156-57.158C38.136-56.71 38.152-56.257 38.152-55.813C39.998-56.009 41.781-56.202 43.627-56.399C43.627-56.898 43.587-57.422 43.638-57.933C43.686-58.433 43.512-58.685 43.056-58.921C41.423-59.771 40.572-61.62 40.958-63.343C41.395-65.283 43.005-66.605 44.957-66.624C46.877-66.644 48.499-65.373 48.979-63.473C49.444-61.632 48.562-59.759 46.818-58.83C46.63-58.732 46.393-58.519 46.378-58.342C46.327-57.693 46.358-57.036 46.358-56.395C48.208-56.202 49.987-56.013 51.774-55.828C51.785-55.852 51.813-55.891 51.817-55.935C51.829-56.049 51.844-56.167 51.829-56.277C51.612-57.567 52.124-58.476 53.253-59.082C53.352-59.133 53.423-59.239 53.525-59.291C54.41-59.727 54.702-60.424 54.588-61.392C54.536-61.809 54.473-62.045 54.056-62.265C52.454-63.119 51.679-64.508 51.856-66.313C52.021-67.997 52.974-69.154 54.56-69.768C54.745-69.839 54.93-69.921 55.111-70C55.658-70 56.205-70 56.752-70C56.98-69.906 57.205-69.811 57.433-69.721C60.338-68.576 61.054-64.578 58.508-62.8C57.339-61.982 57.217-61.156 57.295-60.018C57.303-59.881 57.287-59.743 57.295-59.609C57.354-58.98 57.083-58.516 56.587-58.15C56.02-57.733 55.473-57.28 54.895-56.879C54.332-56.489 54.584-55.927 54.595-55.443C54.595-55.293 54.993-55.108 55.237-55.014C57.614-54.117 60.042-53.338 62.361-52.315C64.033-51.575 65.58-50.533 67.15-49.577C67.875-49.136 68.016-48.333 67.599-47.68C67.178-47.023 66.418-46.858 65.682-47.267C65.525-47.358 65.371-47.46 65.222-47.558C62.376-49.435 59.318-50.871 56.071-51.906C55.591-52.059 55.099-52.177 54.556-52.327C54.556-50.843 54.572-49.478 54.548-48.113C54.54-47.688 54.67-47.421 55.005-47.141C58.354-44.332 60.33-40.748 60.672-36.392C61.105-30.888 59.118-26.332 54.891-22.756C54.737-22.626 54.576-22.402 54.572-22.217C54.544-20.742 54.556-19.262 54.556-17.744C54.757-17.771 54.914-17.771 55.06-17.814C64.466-20.604 71.716-26.187 76.781-34.587C76.907-34.795 76.903-35.216 76.773-35.425C76.01-36.636 75.167-37.797 74.412-39.017C74.18-39.39 74.026-39.902 74.061-40.331C74.109-40.882 74.549-41.236 75.12-41.346C75.73-41.464 76.21-41.22 76.533-40.732C77.698-38.97 78.843-37.191 79.993-35.421L79.993-34.602ZM35.421-52.244C35.299-52.244 35.232-52.252 35.165-52.244C35.055-52.224 34.94-52.201 34.834-52.165C25.526-49.396 18.344-43.86 13.263-35.59C13.003-35.169 12.995-34.854 13.259-34.425C17.891-26.836 24.389-21.528 32.748-18.507C33.606-18.196 34.488-17.96 35.425-17.665C35.425-19.18 35.405-20.545 35.436-21.91C35.444-22.347 35.291-22.599 34.964-22.878C30.737-26.498 28.813-31.113 29.328-36.636C29.73-40.929 31.733-44.454 35.051-47.224C35.208-47.358 35.405-47.566 35.405-47.747C35.432-49.246 35.421-50.749 35.421-52.248ZM44.969-47.995C37.806-47.991 31.993-42.164 31.993-34.996C31.993-27.835 37.821-22.008 44.98-22.008C52.179-22.008 58-27.839 57.992-35.043C57.984-42.192 52.143-48.003 44.969-47.995ZM51.805-53.023C50.018-53.22 48.231-53.421 46.393-53.621L46.393-50.871C48.235-50.367 50.018-49.88 51.805-49.392L51.805-53.023ZM43.587-53.637C41.871-53.432 40.206-53.24 38.55-53.019C38.404-53 38.176-52.787 38.172-52.661C38.14-51.54 38.156-50.415 38.156-49.384C39.986-49.887 41.769-50.375 43.587-50.875L43.587-53.641ZM51.809-16.984L51.809-20.612C50.018-20.124 48.22-19.632 46.413-19.14L46.413-16.382C48.247-16.587 50.022-16.784 51.809-16.984ZM38.156-16.988C39.978-16.787 41.765-16.587 43.595-16.382L43.595-19.132C41.745-19.64 39.966-20.128 38.156-20.62L38.156-16.984Z"/>
   <path class="monochrome-5 monochrome-7 multicolor-5:systemIndigoColor multicolor-7:tintColor hierarchical-5:primary hierarchical-7:primary SFSymbolsPreviewWireframe" d="M34.023-64.535C34.724-64.515 35.385-65.141 35.413-65.853C35.44-66.55 34.822-67.218 34.114-67.258C33.39-67.297 32.697-66.64 32.693-65.908C32.685-65.204 33.319-64.555 34.027-64.535Z"/>
   <path class="monochrome-4 monochrome-7 multicolor-4:systemPinkColor multicolor-7:tintColor hierarchical-4:primary hierarchical-7:primary SFSymbolsPreviewWireframe" d="M55.945-64.535C56.654-64.543 57.291-65.184 57.295-65.889C57.299-66.593 56.666-67.242 55.957-67.258C55.229-67.273 54.552-66.597 54.572-65.869C54.592-65.161 55.241-64.527 55.941-64.535Z"/>
   <path class="monochrome-2 monochrome-7 multicolor-2:systemPinkColor multicolor-7:tintColor hierarchical-2:primary hierarchical-7:primary SFSymbolsPreviewWireframe" d="M34.086-2.75C34.795-2.773 35.425-3.426 35.417-4.127C35.405-4.862 34.708-5.515 33.988-5.472C33.276-5.429 32.662-4.76 32.693-4.064C32.725-3.352 33.386-2.73 34.086-2.754Z"/>
   <path class="monochrome-0 monochrome-7 multicolor-0:systemYellowColor multicolor-7:tintColor hierarchical-0:primary hierarchical-7:primary SFSymbolsPreviewWireframe" d="M57.299-4.083C57.315-4.784 56.689-5.445 55.981-5.472C55.284-5.5 54.615-4.882 54.576-4.17C54.536-3.446 55.194-2.754 55.926-2.75C56.63-2.742 57.28-3.375 57.299-4.083Z"/>
   <path class="monochrome-3 monochrome-7 multicolor-3:systemPurpleColor multicolor-7:tintColor hierarchical-3:primary hierarchical-7:primary SFSymbolsPreviewWireframe" d="M45.016-63.858C44.264-63.87 43.646-63.28 43.631-62.548C43.615-61.824 44.229-61.203 44.973-61.191C45.716-61.179 46.342-61.773 46.358-62.505C46.374-63.233 45.764-63.851 45.016-63.862Z"/>
   <path class="monochrome-1 monochrome-7 multicolor-1:systemOrangeColor multicolor-7:tintColor hierarchical-1:primary hierarchical-7:primary SFSymbolsPreviewWireframe" d="M44.992-6.145C45.74-6.145 46.354-6.743 46.358-7.475C46.358-8.203 45.744-8.812 44.996-8.812C44.252-8.812 43.631-8.21 43.631-7.479C43.631-6.747 44.245-6.141 44.988-6.141Z"/>
   <path class="monochrome-7 multicolor-7:tintColor hierarchical-7:primary SFSymbolsPreviewWireframe" d="M63.596-35.008C63.596-35.326 63.581-35.645 63.596-35.96C63.64-36.668 64.167-37.183 64.872-37.215C65.604-37.25 66.245-36.762 66.3-36.046C66.351-35.346 66.355-34.634 66.3-33.937C66.245-33.225 65.584-32.737 64.86-32.781C64.159-32.824 63.636-33.343 63.596-34.052C63.577-34.37 63.596-34.689 63.596-35.004ZM62.9-42.255C62.29-42.263 61.916-42.727 61.613-43.333C61.302-43.95 61.081-44.545 61.55-45.174C61.928-45.686 62.616-45.866 63.195-45.623C63.805-45.363 64.509-44.041 64.38-43.396C64.25-42.75 63.683-42.27 62.904-42.255ZM64.423-26.084C64.171-25.687 63.88-25.034 63.411-24.55C62.982-24.109 62.353-24.18 61.845-24.546C61.337-24.912 61.137-25.447 61.341-26.045C61.479-26.446 61.68-26.844 61.924-27.19C62.286-27.705 62.825-27.882 63.427-27.686C64.053-27.481 64.364-27.005 64.427-26.084ZM72.617-44.541C72.609-43.762 72.011-43.187 71.22-43.199C70.441-43.211 69.866-43.821 69.89-44.604C69.913-45.339 70.515-45.926 71.251-45.926C72.019-45.926 72.625-45.312 72.617-44.541ZM26.392-34.956C26.392-34.661 26.404-34.366 26.392-34.071C26.353-33.328 25.806-32.8 25.074-32.781C24.346-32.761 23.728-33.265 23.68-33.993C23.637-34.65 23.641-35.311 23.676-35.968C23.72-36.727 24.342-37.254 25.097-37.223C25.821-37.195 26.357-36.656 26.392-35.909C26.408-35.59 26.392-35.271 26.392-34.956ZM27.097-42.255C26.046-42.255 25.369-43.167 25.68-44.037C25.814-44.419 25.999-44.792 26.223-45.127C26.64-45.745 27.4-45.902 28.025-45.544C28.624-45.202 28.88-44.505 28.604-43.844C28.289-43.093 28.006-42.282 27.101-42.251ZM26.735-27.737C27.9-27.8 28.454-26.844 28.691-25.797C28.852-25.077 28.281-24.416 27.537-24.302C26.805-24.188 26.349-24.519 25.869-25.502C25.467-26.324 25.495-26.903 26.03-27.359C26.274-27.568 26.609-27.674 26.735-27.741ZM52.384-34.953C52.368-30.876 49.074-27.611 44.981-27.615C40.868-27.619 37.589-30.924 37.605-35.051C37.621-39.154 40.939-42.412 45.075-42.385C49.148-42.357 52.395-39.056 52.38-34.953Z"/>
   <path class="monochrome-6 monochrome-7 multicolor-6:systemRedColor multicolor-7:tintColor hierarchical-6:primary hierarchical-7:primary SFSymbolsPreviewWireframe" d="M45.02-39.65C42.473-39.662 40.352-37.565 40.34-35.023C40.328-32.478 42.43-30.357 44.969-30.345C47.511-30.334 49.636-32.435 49.648-34.972C49.66-37.518 47.562-39.634 45.02-39.646Z"/>
  </g>
 </g>
</svg>
