<?xml version="1.0" encoding="UTF-8"?>
<!--Generator: Apple Native CoreSVG 232.5-->
<!DOCTYPE svg
PUBLIC "-//W3C//DTD SVG 1.1//EN"
       "http://www.w3.org/Graphics/SVG/1.1/DTD/svg11.dtd">
<svg version="1.1" xmlns="http://www.w3.org/2000/svg" xmlns:xlink="http://www.w3.org/1999/xlink" width="3300" height="2200">
 <!--glyph: "", point size: 100.0, font version: "19.0d7e1", template writer version: "128"-->
 <style>.monochrome-0 {-sfsymbols-variable-threshold:0.0;-sfsymbols-motion-group:12;-sfsymbols-always-pulses:true}
.monochrome-1 {-sfsymbols-variable-threshold:0.09;-sfsymbols-motion-group:11;-sfsymbols-always-pulses:true}
.monochrome-2 {-sfsymbols-variable-threshold:0.18;-sfsymbols-motion-group:10;-sfsymbols-always-pulses:true}
.monochrome-3 {-sfsymbols-variable-threshold:0.26;-sfsymbols-motion-group:9;-sfsymbols-always-pulses:true}
.monochrome-4 {-sfsymbols-variable-threshold:0.34;-sfsymbols-motion-group:8;-sfsymbols-always-pulses:true}
.monochrome-5 {-sfsymbols-variable-threshold:0.43;-sfsymbols-motion-group:7;-sfsymbols-always-pulses:true}
.monochrome-6 {-sfsymbols-variable-threshold:0.51;-sfsymbols-motion-group:6;-sfsymbols-always-pulses:true}
.monochrome-7 {-sfsymbols-variable-threshold:0.59;-sfsymbols-motion-group:5;-sfsymbols-always-pulses:true}
.monochrome-8 {-sfsymbols-variable-threshold:0.68;-sfsymbols-motion-group:4;-sfsymbols-always-pulses:true}
.monochrome-9 {-sfsymbols-variable-threshold:0.76;-sfsymbols-motion-group:3;-sfsymbols-always-pulses:true}
.monochrome-10 {-sfsymbols-variable-threshold:0.84;-sfsymbols-motion-group:2;-sfsymbols-always-pulses:true}
.monochrome-11 {-sfsymbols-variable-threshold:0.93;-sfsymbols-motion-group:1;-sfsymbols-always-pulses:true}
.monochrome-12 {-sfsymbols-motion-group:0}

.multicolor-0:systemTealColor {-sfsymbols-variable-threshold:0.0;-sfsymbols-motion-group:12;-sfsymbols-always-pulses:true}
.multicolor-1:systemBlueColor {-sfsymbols-variable-threshold:0.09;-sfsymbols-motion-group:11;-sfsymbols-always-pulses:true}
.multicolor-2:systemPinkColor {-sfsymbols-variable-threshold:0.18;-sfsymbols-motion-group:10;-sfsymbols-always-pulses:true}
.multicolor-3:systemPurpleColor {-sfsymbols-variable-threshold:0.26;-sfsymbols-motion-group:9;-sfsymbols-always-pulses:true}
.multicolor-4:systemIndigoColor {-sfsymbols-variable-threshold:0.34;-sfsymbols-motion-group:8;-sfsymbols-always-pulses:true}
.multicolor-5:systemGreenColor {-sfsymbols-variable-threshold:0.43;-sfsymbols-motion-group:7;-sfsymbols-always-pulses:true}
.multicolor-6:black {-sfsymbols-variable-threshold:0.51;-sfsymbols-motion-group:6;-sfsymbols-always-pulses:true}
.multicolor-7:systemGreenColor {-sfsymbols-variable-threshold:0.59;-sfsymbols-motion-group:5;-sfsymbols-always-pulses:true}
.multicolor-8:systemRedColor {-sfsymbols-variable-threshold:0.68;-sfsymbols-motion-group:4;-sfsymbols-always-pulses:true}
.multicolor-9:systemGreenColor {-sfsymbols-variable-threshold:0.76;-sfsymbols-motion-group:3;-sfsymbols-always-pulses:true}
.multicolor-10:systemRedColor {-sfsymbols-variable-threshold:0.84;-sfsymbols-motion-group:2;-sfsymbols-always-pulses:true}
.multicolor-11:systemGreenColor {-sfsymbols-variable-threshold:0.93;-sfsymbols-motion-group:1;-sfsymbols-always-pulses:true}
.multicolor-12:tintColor {-sfsymbols-motion-group:0}

.hierarchical-0:primary {-sfsymbols-variable-threshold:0.0;-sfsymbols-motion-group:12}
.hierarchical-1:primary {-sfsymbols-variable-threshold:0.09;-sfsymbols-motion-group:11}
.hierarchical-2:primary {-sfsymbols-variable-threshold:0.18;-sfsymbols-motion-group:10}
.hierarchical-3:primary {-sfsymbols-variable-threshold:0.26;-sfsymbols-motion-group:9}
.hierarchical-4:primary {-sfsymbols-variable-threshold:0.34;-sfsymbols-motion-group:8}
.hierarchical-5:primary {-sfsymbols-variable-threshold:0.43;-sfsymbols-motion-group:7}
.hierarchical-6:primary {-sfsymbols-variable-threshold:0.51;-sfsymbols-motion-group:6}
.hierarchical-7:primary {-sfsymbols-variable-threshold:0.59;-sfsymbols-motion-group:5}
.hierarchical-8:primary {-sfsymbols-variable-threshold:0.68;-sfsymbols-motion-group:4}
.hierarchical-9:primary {-sfsymbols-variable-threshold:0.76;-sfsymbols-motion-group:3}
.hierarchical-10:primary {-sfsymbols-variable-threshold:0.84;-sfsymbols-motion-group:2}
.hierarchical-11:primary {-sfsymbols-variable-threshold:0.93;-sfsymbols-motion-group:1}
.hierarchical-12:primary {-sfsymbols-motion-group:0}

.SFSymbolsPreviewWireframe {fill:none;opacity:1.0;stroke:black;stroke-width:0.5}
</style>
 <g id="Notes">
  <rect height="2200" id="artboard" style="fill:white;opacity:1" width="3300" x="0" y="0"/>
  <line style="fill:none;stroke:black;opacity:1;stroke-width:0.5;" x1="263" x2="3036" y1="292" y2="292"/>
  <text style="stroke:none;fill:black;font-family:sans-serif;font-size:13;font-weight:bold;" transform="matrix(1 0 0 1 263 322)">Weight/Scale Variations</text>
  <text style="stroke:none;fill:black;font-family:sans-serif;font-size:13;text-anchor:middle;" transform="matrix(1 0 0 1 559.711 322)">Ultralight</text>
  <text style="stroke:none;fill:black;font-family:sans-serif;font-size:13;text-anchor:middle;" transform="matrix(1 0 0 1 856.422 322)">Thin</text>
  <text style="stroke:none;fill:black;font-family:sans-serif;font-size:13;text-anchor:middle;" transform="matrix(1 0 0 1 1153.13 322)">Light</text>
  <text style="stroke:none;fill:black;font-family:sans-serif;font-size:13;text-anchor:middle;" transform="matrix(1 0 0 1 1449.84 322)">Regular</text>
  <text style="stroke:none;fill:black;font-family:sans-serif;font-size:13;text-anchor:middle;" transform="matrix(1 0 0 1 1746.56 322)">Medium</text>
  <text style="stroke:none;fill:black;font-family:sans-serif;font-size:13;text-anchor:middle;" transform="matrix(1 0 0 1 2043.27 322)">Semibold</text>
  <text style="stroke:none;fill:black;font-family:sans-serif;font-size:13;text-anchor:middle;" transform="matrix(1 0 0 1 2339.98 322)">Bold</text>
  <text style="stroke:none;fill:black;font-family:sans-serif;font-size:13;text-anchor:middle;" transform="matrix(1 0 0 1 2636.69 322)">Heavy</text>
  <text style="stroke:none;fill:black;font-family:sans-serif;font-size:13;text-anchor:middle;" transform="matrix(1 0 0 1 2933.4 322)">Black</text>
  <line style="fill:none;stroke:black;opacity:1;stroke-width:0.5;" x1="263" x2="3036" y1="1903" y2="1903"/>
  <g transform="matrix(0.2 0 0 0.2 263 1933)">
   <path d="m46.2402 4.15039c21.5332 0 39.4531-17.8711 39.4531-39.4043s-17.9688-39.4043-39.502-39.4043c-21.4844 0-39.3555 17.8711-39.3555 39.4043s17.9199 39.4043 39.4043 39.4043Zm0-7.42188c-17.7246 0-31.8848-14.209-31.8848-31.9824s14.1113-31.9824 31.8359-31.9824c17.7734 0 32.0312 14.209 32.0312 31.9824s-14.209 31.9824-31.9824 31.9824Zm-17.9688-31.9824c0 2.14844 1.51367 3.61328 3.75977 3.61328h10.498v10.5957c0 2.19727 1.46484 3.71094 3.61328 3.71094 2.24609 0 3.71094-1.51367 3.71094-3.71094v-10.5957h10.5957c2.19727 0 3.71094-1.46484 3.71094-3.61328 0-2.19727-1.51367-3.71094-3.71094-3.71094h-10.5957v-10.5469c0-2.24609-1.46484-3.75977-3.71094-3.75977-2.14844 0-3.61328 1.51367-3.61328 3.75977v10.5469h-10.498c-2.24609 0-3.75977 1.51367-3.75977 3.71094Z"/>
  </g>
  <g transform="matrix(0.2 0 0 0.2 281.506 1933)">
   <path d="m58.5449 14.5508c27.2461 0 49.8047-22.6074 49.8047-49.8047 0-27.2461-22.6074-49.8047-49.8535-49.8047-27.1973 0-49.7559 22.5586-49.7559 49.8047 0 27.1973 22.6074 49.8047 49.8047 49.8047Zm0-8.30078c-23.0469 0-41.4551-18.457-41.4551-41.5039s18.3594-41.5039 41.4062-41.5039 41.5527 18.457 41.5527 41.5039-18.457 41.5039-41.5039 41.5039Zm-22.6562-41.5039c0 2.39258 1.66016 4.00391 4.15039 4.00391h14.3555v14.4043c0 2.44141 1.66016 4.15039 4.05273 4.15039 2.44141 0 4.15039-1.66016 4.15039-4.15039v-14.4043h14.4043c2.44141 0 4.15039-1.61133 4.15039-4.00391 0-2.44141-1.70898-4.15039-4.15039-4.15039h-14.4043v-14.3555c0-2.49023-1.70898-4.19922-4.15039-4.19922-2.39258 0-4.05273 1.70898-4.05273 4.19922v14.3555h-14.3555c-2.49023 0-4.15039 1.70898-4.15039 4.15039Z"/>
  </g>
  <g transform="matrix(0.2 0 0 0.2 304.924 1933)">
   <path d="m74.8535 28.3203c34.8145 0 63.623-28.8086 63.623-63.5742 0-34.8145-28.8574-63.623-63.6719-63.623-34.7656 0-63.5254 28.8086-63.5254 63.623 0 34.7656 28.8086 63.5742 63.5742 63.5742Zm0-9.08203c-30.1758 0-54.4434-24.3164-54.4434-54.4922 0-30.2246 24.2188-54.4922 54.3945-54.4922 30.2246 0 54.541 24.2676 54.541 54.4922 0 30.1758-24.2676 54.4922-54.4922 54.4922Zm-28.8574-54.4922c0 2.58789 1.85547 4.39453 4.58984 4.39453h19.7266v19.7754c0 2.68555 1.85547 4.58984 4.44336 4.58984 2.68555 0 4.54102-1.85547 4.54102-4.58984v-19.7754h19.7754c2.68555 0 4.58984-1.80664 4.58984-4.39453 0-2.73438-1.85547-4.58984-4.58984-4.58984h-19.7754v-19.7266c0-2.73438-1.85547-4.63867-4.54102-4.63867-2.58789 0-4.44336 1.9043-4.44336 4.63867v19.7266h-19.7266c-2.73438 0-4.58984 1.85547-4.58984 4.58984Z"/>
  </g>
  <text style="stroke:none;fill:black;font-family:sans-serif;font-size:13;font-weight:bold;" transform="matrix(1 0 0 1 263 1953)">Design Variations</text>
  <text style="stroke:none;fill:black;font-family:sans-serif;font-size:13;" transform="matrix(1 0 0 1 263 1971)">Symbols are supported in up to nine weights and three scales.</text>
  <text style="stroke:none;fill:black;font-family:sans-serif;font-size:13;" transform="matrix(1 0 0 1 263 1989)">For optimal layout with text and other symbols, vertically align</text>
  <text style="stroke:none;fill:black;font-family:sans-serif;font-size:13;" transform="matrix(1 0 0 1 263 2007)">symbols with the adjacent text.</text>
  <line style="fill:none;stroke:#00AEEF;stroke-width:0.5;opacity:1.0;" x1="776" x2="776" y1="1919" y2="1933"/>
  <g transform="matrix(0.2 0 0 0.2 776 1933)">
   <path d="m16.5527 0.78125c2.58789 0 3.85742-0.976562 4.78516-3.71094l6.29883-17.2363h28.8086l6.29883 17.2363c0.927734 2.73438 2.19727 3.71094 4.73633 3.71094 2.58789 0 4.24805-1.5625 4.24805-4.00391 0-0.830078-0.146484-1.61133-0.537109-2.63672l-22.9004-60.9863c-1.12305-2.97852-3.125-4.49219-6.25-4.49219-3.02734 0-5.07812 1.46484-6.15234 4.44336l-22.9004 61.084c-0.390625 1.02539-0.537109 1.80664-0.537109 2.63672 0 2.44141 1.5625 3.95508 4.10156 3.95508Zm13.4766-28.3691 11.8652-32.8613h0.244141l11.8652 32.8613Z"/>
  </g>
  <line style="fill:none;stroke:#00AEEF;stroke-width:0.5;opacity:1.0;" x1="792.836" x2="792.836" y1="1919" y2="1933"/>
  <text style="stroke:none;fill:black;font-family:sans-serif;font-size:13;font-weight:bold;" transform="matrix(1 0 0 1 776 1953)">Margins</text>
  <text style="stroke:none;fill:black;font-family:sans-serif;font-size:13;" transform="matrix(1 0 0 1 776 1971)">Leading and trailing margins on the left and right side of each symbol</text>
  <text style="stroke:none;fill:black;font-family:sans-serif;font-size:13;" transform="matrix(1 0 0 1 776 1989)">can be adjusted by modifying the x-location of the margin guidelines.</text>
  <text style="stroke:none;fill:black;font-family:sans-serif;font-size:13;" transform="matrix(1 0 0 1 776 2007)">Modifications are automatically applied proportionally to all</text>
  <text style="stroke:none;fill:black;font-family:sans-serif;font-size:13;" transform="matrix(1 0 0 1 776 2025)">scales and weights.</text>
  <g transform="matrix(0.2 0 0 0.2 1289 1933)">
   <path d="m14.209 9.32617 8.49609 8.54492c4.29688 4.3457 9.22852 4.05273 13.8672-1.07422l53.4668-58.9355-4.83398-4.88281-53.0762 58.3984c-1.75781 2.00195-3.41797 2.49023-5.76172 0.146484l-5.85938-5.81055c-2.34375-2.29492-1.80664-4.00391 0.195312-5.81055l57.373-54.0039-4.88281-4.83398-57.959 54.4434c-4.93164 4.58984-5.32227 9.47266-1.02539 13.8184Zm32.0801-90.9668c-2.09961 2.05078-2.24609 4.93164-1.07422 6.88477 1.17188 1.80664 3.4668 2.97852 6.68945 2.14844 7.32422-1.70898 14.9414-2.00195 22.0703 2.68555l-2.92969 7.27539c-1.70898 4.15039-0.830078 7.08008 1.85547 9.81445l11.4746 11.5723c2.44141 2.44141 4.49219 2.53906 7.32422 2.05078l5.32227-0.976562 3.32031 3.36914-0.195312 2.7832c-0.195312 2.49023 0.439453 4.39453 2.88086 6.78711l3.80859 3.71094c2.39258 2.39258 5.46875 2.53906 7.8125 0.195312l14.5508-14.5996c2.34375-2.34375 2.24609-5.32227-0.146484-7.71484l-3.85742-3.80859c-2.39258-2.39258-4.24805-3.17383-6.64062-2.97852l-2.88086 0.244141-3.22266-3.17383 1.2207-5.61523c0.634766-2.83203-0.146484-5.0293-3.07617-7.95898l-10.9863-10.9375c-16.6992-16.6016-38.8672-16.2109-53.3203-1.75781Zm7.4707 1.85547c12.1582-8.88672 28.6133-7.37305 39.7461 3.75977l12.1582 12.0605c1.17188 1.17188 1.36719 2.09961 1.02539 3.80859l-1.61133 7.42188 7.51953 7.42188 4.93164-0.292969c1.26953-0.0488281 1.66016 0.0488281 2.63672 1.02539l2.88086 2.88086-12.207 12.207-2.88086-2.88086c-0.976562-0.976562-1.12305-1.36719-1.07422-2.68555l0.341797-4.88281-7.4707-7.42188-7.61719 1.26953c-1.61133 0.341797-2.34375 0.195312-3.56445-0.976562l-10.0098-10.0098c-1.26953-1.17188-1.41602-2.00195-0.634766-3.85742l4.39453-10.4492c-7.8125-7.27539-17.9688-10.4004-28.125-7.42188-0.78125 0.195312-1.07422-0.439453-0.439453-0.976562Z"/>
  </g>
  <text style="stroke:none;fill:black;font-family:sans-serif;font-size:13;font-weight:bold;" transform="matrix(1 0 0 1 1289 1953)">Exporting</text>
  <text style="stroke:none;fill:black;font-family:sans-serif;font-size:13;" transform="matrix(1 0 0 1 1289 1971)">Symbols should be outlined when exporting to ensure the</text>
  <text style="stroke:none;fill:black;font-family:sans-serif;font-size:13;" transform="matrix(1 0 0 1 1289 1989)">design is preserved when submitting to Xcode.</text>
  <text id="template-version" style="stroke:none;fill:black;font-family:sans-serif;font-size:13;text-anchor:end;" transform="matrix(1 0 0 1 3036 1933)">Template v.5.0</text>
  <text style="stroke:none;fill:black;font-family:sans-serif;font-size:13;text-anchor:end;" transform="matrix(1 0 0 1 3036 1951)">Requires Xcode 15 or greater</text>
  <text id="descriptive-name" style="stroke:none;fill:black;font-family:sans-serif;font-size:13;text-anchor:end;" transform="matrix(1 0 0 1 3036 1969)">Generated from RoboHand</text>
  <text style="stroke:none;fill:black;font-family:sans-serif;font-size:13;text-anchor:end;" transform="matrix(1 0 0 1 3036 1987)">Typeset at 100.0 points</text>
  <text style="stroke:none;fill:black;font-family:sans-serif;font-size:13;" transform="matrix(1 0 0 1 263 726)">Small</text>
  <text style="stroke:none;fill:black;font-family:sans-serif;font-size:13;" transform="matrix(1 0 0 1 263 1156)">Medium</text>
  <text style="stroke:none;fill:black;font-family:sans-serif;font-size:13;" transform="matrix(1 0 0 1 263 1586)">Large</text>
 </g>
 <g id="Guides">
  <g id="H-reference" style="fill:#27AAE1;stroke:none;" transform="matrix(1 0 0 1 339 696)">
   <path d="M0.993654 0L3.63775 0L29.3281-67.1323L30.0303-67.1323L30.0303-70.459L28.1226-70.459ZM11.6885-24.4799L46.9815-24.4799L46.2315-26.7285L12.4385-26.7285ZM55.1196 0L57.7637 0L30.6382-70.459L29.4326-70.459L29.4326-67.1323Z"/>
  </g>
  <line id="Baseline-S" style="fill:none;stroke:#27AAE1;opacity:1;stroke-width:0.5;" x1="263" x2="3036" y1="696" y2="696"/>
  <line id="Capline-S" style="fill:none;stroke:#27AAE1;opacity:1;stroke-width:0.5;" x1="263" x2="3036" y1="625.541" y2="625.541"/>
  <g id="H-reference" style="fill:#27AAE1;stroke:none;" transform="matrix(1 0 0 1 339 1126)">
   <path d="M0.993654 0L3.63775 0L29.3281-67.1323L30.0303-67.1323L30.0303-70.459L28.1226-70.459ZM11.6885-24.4799L46.9815-24.4799L46.2315-26.7285L12.4385-26.7285ZM55.1196 0L57.7637 0L30.6382-70.459L29.4326-70.459L29.4326-67.1323Z"/>
  </g>
  <line id="Baseline-M" style="fill:none;stroke:#27AAE1;opacity:1;stroke-width:0.5;" x1="263" x2="3036" y1="1126" y2="1126"/>
  <line id="Capline-M" style="fill:none;stroke:#27AAE1;opacity:1;stroke-width:0.5;" x1="263" x2="3036" y1="1055.54" y2="1055.54"/>
  <g id="H-reference" style="fill:#27AAE1;stroke:none;" transform="matrix(1 0 0 1 339 1556)">
   <path d="M0.993654 0L3.63775 0L29.3281-67.1323L30.0303-67.1323L30.0303-70.459L28.1226-70.459ZM11.6885-24.4799L46.9815-24.4799L46.2315-26.7285L12.4385-26.7285ZM55.1196 0L57.7637 0L30.6382-70.459L29.4326-70.459L29.4326-67.1323Z"/>
  </g>
  <line id="Baseline-L" style="fill:none;stroke:#27AAE1;opacity:1;stroke-width:0.5;" x1="263" x2="3036" y1="1556" y2="1556"/>
  <line id="Capline-L" style="fill:none;stroke:#27AAE1;opacity:1;stroke-width:0.5;" x1="263" x2="3036" y1="1485.54" y2="1485.54"/>
  <line id="left-margin-Ultralight-S" style="fill:none;stroke:#00AEEF;stroke-width:0.5;opacity:1.0;" x1="515.423" x2="515.423" y1="600.785" y2="720.121"/>
  <line id="right-margin-Ultralight-S" style="fill:none;stroke:#00AEEF;stroke-width:0.5;opacity:1.0;" x1="604" x2="604" y1="600.785" y2="720.121"/>
  <line id="left-margin-Regular-S" style="fill:none;stroke:#00AEEF;stroke-width:0.5;opacity:1.0;" x1="1405.56" x2="1405.56" y1="600.785" y2="720.121"/>
  <line id="right-margin-Regular-S" style="fill:none;stroke:#00AEEF;stroke-width:0.5;opacity:1.0;" x1="1494.13" x2="1494.13" y1="600.785" y2="720.121"/>
  <line id="left-margin-Black-S" style="fill:none;stroke:#00AEEF;stroke-width:0.5;opacity:1.0;" x1="2889.11" x2="2889.11" y1="600.785" y2="720.121"/>
  <line id="right-margin-Black-S" style="fill:none;stroke:#00AEEF;stroke-width:0.5;opacity:1.0;" x1="2977.69" x2="2977.69" y1="600.785" y2="720.121"/>
 </g>
 <g id="Symbols">
  <g id="Black-S" transform="matrix(1.00656 0 0 1.00656 2889.11 696)">
   <path class="monochrome-12 multicolor-12:tintColor hierarchical-12:primary SFSymbolsPreviewWireframe" d="M57.615-38.384L57.615-36.162L64.314-36.162L64.314-38.384C63.638-38.384 62.943-38.376 62.247-38.384C61.397-38.396 60.982-38.794 60.982-39.635C60.979-45.279 60.971-50.923 60.982-56.567C60.986-58.323 62.469-59.803 64.227-59.819C64.974-59.827 65.749-59.846 66.464-59.669C67.919-59.31 68.879-57.991 68.879-56.492C68.887-50.895 68.883-45.299 68.879-39.702C68.879-38.775 68.48-38.396 67.539-38.384C67.263-38.384 66.982-38.384 66.666-38.384L66.666-36.122C66.966-36.122 67.243-36.122 67.52-36.122C68.543-36.115 68.986-35.645 68.863-34.619C68.678-33.056 68.452-31.501 68.247-29.942C67.749-26.173 67.255-22.404 66.757-18.63C66.508-16.72 66.306-14.806 66.002-12.904C65.512-9.817 63.338-7.974 60.224-7.903C60.129-7.903 60.038-7.891 59.84-7.876C59.84-7.627 59.84-7.378 59.84-7.13C59.84-5.2 59.84-3.274 59.84-1.344C59.84-0.4 59.453-0.002 58.528-0.002C52.995-0.002 47.461 0.002 41.928-0.002C41.035-0.002 40.64-0.404 40.636-1.292C40.628-3.246 40.636-5.196 40.636-7.149C40.636-7.378 40.636-7.607 40.636-7.832C39.802-7.907 39.019-7.899 38.272-8.053C35.719-8.574 33.873-10.855 33.857-13.456C33.846-15.714 33.846-17.971 33.857-20.229C33.857-20.616 33.774-20.864 33.411-21.077C31.786-22.025 30.19-23.019 28.573-23.978C28.431-24.061 28.182-24.049 28.012-23.99C27.502-23.816 27.012-23.584 26.506-23.394C25.743-23.114 25.186-23.311 24.886-24.041C23.012-28.596 21.135-33.151 19.309-37.725C18.819-38.952 19.052-40.188 20.008-41.119C21.127-42.204 22.518-42.792 24.111-42.595C25.289-42.449 26.174-41.762 26.629-40.669C28.506-36.142 30.36-31.599 32.201-27.057C32.545-26.208 32.273-25.806 30.992-25.174C31.944-24.606 32.842-24.069 33.853-23.465C33.853-23.86 33.853-24.109 33.853-24.357C33.853-27.791 33.853-31.225 33.853-34.658C33.853-35.779 34.201-36.122 35.328-36.126C35.893-36.126 36.458-36.13 37.023-36.134C37.067-36.134 37.11-36.158 37.245-36.197L37.245-38.388C36.486-38.388 35.786-38.38 35.087-38.388C34.28-38.4 33.857-38.802 33.857-39.6C33.853-46.771 33.846-53.942 33.857-61.117C33.857-62.834 35.347-64.314 37.063-64.334C37.833-64.342 38.632-64.361 39.371-64.18C40.794-63.825 41.75-62.506 41.754-61.046C41.762-53.922 41.758-46.794 41.754-39.671C41.754-38.786 41.347-38.4 40.45-38.388C40.169-38.384 39.885-38.388 39.549-38.388L39.549-36.174L46.24-36.174L46.24-38.388C45.592-38.388 44.924-38.388 44.252-38.388C43.272-38.396 42.893-38.771 42.893-39.757C42.893-48.693 42.893-57.628 42.893-66.564C42.893-68.537 44.351-69.982 46.327-69.99C46.916-69.99 47.517-70.037 48.086-69.93C49.691-69.626 50.793-68.253 50.793-66.611C50.797-57.652 50.793-48.693 50.793-39.734C50.793-38.79 50.402-38.404 49.477-38.392C49.197-38.392 48.916-38.392 48.584-38.392L48.584-36.174L55.283-36.174L55.283-38.392C54.647-38.392 53.999-38.392 53.35-38.392C52.311-38.396 51.932-38.759 51.932-39.773C51.932-46.826 51.928-53.883 51.932-60.936C51.932-62.901 53.398-64.342 55.378-64.346C55.967-64.346 56.568-64.393 57.137-64.283C58.765-63.967 59.832-62.589 59.832-60.884C59.832-53.899 59.832-46.917 59.832-39.931C59.832-38.712 59.512-38.396 58.291-38.388C58.081-38.388 57.872-38.388 57.599-38.388ZM36.134-33.837C36.122-33.664 36.11-33.569 36.11-33.478C36.11-26.871 36.098-20.264 36.114-13.658C36.118-11.641 37.577-10.192 39.592-10.165C41.335-10.141 43.078-10.161 44.817-10.161C49.928-10.161 55.034-10.157 60.145-10.161C62.073-10.161 63.378-11.238 63.706-13.097C63.868-14.021 63.97-14.956 64.093-15.887C64.591-19.657 65.085-23.426 65.579-27.199C65.868-29.401 66.156-31.607 66.449-33.841L36.134-33.841Z"/>
   <path class="monochrome-4 monochrome-12 multicolor-4:systemIndigoColor multicolor-12:tintColor hierarchical-4:primary hierarchical-12:primary SFSymbolsPreviewWireframe" d="M48.548-40.653L48.548-41.478C48.548-45.922 48.548-50.366 48.548-54.81C48.548-58.619 48.564-62.428 48.529-66.236C48.525-66.658 48.311-67.365 48.054-67.44C47.347-67.637 46.537-67.704 45.821-67.562C45.145-67.428 45.153-66.702 45.153-66.094C45.157-61.626 45.153-57.159 45.153-52.691C45.153-52.442 45.153-52.198 45.153-51.929C45.426-51.929 45.592-51.929 45.758-51.929C46.928-51.921 47.426-51.578 47.414-50.785C47.402-50.015 46.916-49.687 45.794-49.676C45.592-49.676 45.39-49.648 45.213-49.636L45.213-40.657L48.552-40.657Z"/>
   <path class="monochrome-12 multicolor-12:tintColor hierarchical-12:primary SFSymbolsPreviewWireframe" d="M57.56-7.856L42.948-7.856L42.948-2.295L57.56-2.295L57.56-7.856Z"/>
   <path class="monochrome-3 monochrome-12 multicolor-3:systemPurpleColor multicolor-12:tintColor hierarchical-3:primary hierarchical-12:primary SFSymbolsPreviewWireframe" d="M39.493-49.64C38.581-49.766 37.304-49.336 37.28-50.769C37.256-52.257 38.561-51.838 39.414-51.945C39.454-52.028 39.49-52.067 39.49-52.111C39.497-55.027 39.513-57.94 39.482-60.857C39.482-61.184 39.245-61.753 39.027-61.796C38.3-61.95 37.509-62.057 36.79-61.922C36.11-61.796 36.102-61.078 36.106-60.466C36.11-54.116 36.106-47.769 36.106-41.419L36.106-40.693L39.49-40.693L39.49-49.64Z"/>
   <path class="monochrome-2 monochrome-12 multicolor-2:systemPinkColor multicolor-12:tintColor hierarchical-2:primary hierarchical-12:primary SFSymbolsPreviewWireframe" d="M57.508-40.669C57.544-40.744 57.576-40.784 57.576-40.823C57.583-47.501 57.591-54.179 57.583-60.853C57.583-61.626 57.113-62.045 56.331-62.084C56.121-62.096 55.908-62.084 55.694-62.084C54.603-62.076 54.196-61.682 54.196-60.6C54.192-58.272 54.196-55.943 54.196-53.618C54.196-53.441 54.228-53.259 54.244-53.09C56.05-52.951 56.465-52.766 56.441-51.992C56.394-50.449 55.113-50.911 54.248-50.753L54.248-40.665L57.508-40.665Z"/>
   <path class="monochrome-1 monochrome-12 multicolor-1:systemBlueColor multicolor-12:tintColor hierarchical-1:primary hierarchical-12:primary SFSymbolsPreviewWireframe" d="M66.587-40.669L66.587-48.511C65.698-48.626 64.468-48.215 64.409-49.593C64.346-51.14 65.706-50.69 66.63-50.832C66.63-52.73 66.654-54.585 66.611-56.436C66.603-56.74 66.35-57.261 66.14-57.297C65.405-57.431 64.615-57.538 63.899-57.391C63.227-57.253 63.239-56.527 63.239-55.919C63.243-51.077 63.239-46.234 63.239-41.387C63.239-41.158 63.239-40.93 63.239-40.669L66.587-40.669Z"/>
   <path class="monochrome-0 monochrome-12 multicolor-0:systemTealColor multicolor-12:tintColor hierarchical-0:primary hierarchical-12:primary SFSymbolsPreviewWireframe" d="M29.707-27.155C28.96-28.971 28.249-30.7 27.538-32.436C26.577-34.781 25.629-37.129 24.66-39.469C24.301-40.342 23.791-40.547 22.921-40.215C22.724-40.14 22.53-40.053 22.336-39.971C21.404-39.576 21.19-39.075 21.577-38.131C23.174-34.224 24.771-30.317 26.376-26.409C26.443-26.248 26.542-26.098 26.644-25.912C27.664-26.327 28.64-26.721 29.707-27.159Z"/>
   <path class="monochrome-11 monochrome-12 multicolor-11:systemGreenColor multicolor-12:tintColor hierarchical-11:primary hierarchical-12:primary SFSymbolsPreviewWireframe" d="M51.943-14.881C51.659-15.88 52.236-16.685 53.074-17.446C54.133-18.409 55.125-19.447 56.117-20.481C56.303-20.675 56.425-20.995 56.445-21.267C56.489-21.969 56.433-22.676 56.473-23.378C56.493-23.773 56.331-23.947 56.003-24.124C54.576-24.898 53.896-26.437 54.295-27.929C54.71-29.488 55.995-30.486 57.587-30.486C59.184-30.486 60.465-29.496 60.884-27.933C61.283-26.445 60.611-24.89 59.18-24.132C58.797-23.931 58.702-23.706 58.714-23.315C58.738-22.4 58.773-21.48 58.698-20.568C58.662-20.142 58.477-19.645 58.192-19.337C57.07-18.133 55.9-16.977 54.706-15.844C54.311-15.465 54.149-15.078 54.192-14.549C54.224-14.198 54.216-13.843 54.192-13.492C54.149-12.837 53.667-12.402 53.038-12.422C52.437-12.438 51.987-12.864 51.951-13.492C51.928-13.89 51.947-14.289 51.947-14.881Z"/>
   <path class="monochrome-10 monochrome-12 multicolor-10:systemRedColor multicolor-12:tintColor hierarchical-10:primary hierarchical-12:primary SFSymbolsPreviewWireframe" d="M58.714-27.076C58.726-27.657 58.188-28.205 57.607-28.217C57.022-28.225 56.477-27.696 56.465-27.108C56.453-26.528 56.987-25.979 57.572-25.967C58.153-25.956 58.702-26.492 58.714-27.076Z"/>
   <path class="monochrome-9 monochrome-12 multicolor-9:systemGreenColor multicolor-12:tintColor hierarchical-9:primary hierarchical-12:primary SFSymbolsPreviewWireframe" d="M41.766-19.124C41.766-19.361 41.742-19.597 41.77-19.83C41.829-20.308 41.651-20.56 41.201-20.797C39.865-21.508 39.217-23.098 39.588-24.523C39.995-26.082 41.284-27.096 42.873-27.096C44.477-27.096 45.758-26.113 46.177-24.551C46.564-23.118 45.916-21.567 44.612-20.793C43.782-20.304 43.734-18.871 44.529-18.342C45.272-17.845 46.011-17.348 46.762-16.862C47.216-16.566 47.434-16.176 47.414-15.623C47.39-14.94 47.422-14.257 47.402-13.579C47.382-12.864 46.916-12.41 46.256-12.422C45.628-12.434 45.062-12.904 45.177-13.547C45.426-14.94 44.738-15.674 43.612-16.215C43.442-16.294 43.304-16.436 43.138-16.519C42.039-17.056 41.454-17.857 41.758-19.128Z"/>
   <path class="monochrome-8 monochrome-12 multicolor-8:systemRedColor multicolor-12:tintColor hierarchical-8:primary hierarchical-12:primary SFSymbolsPreviewWireframe" d="M41.766-23.722C41.754-23.142 42.288-22.593 42.873-22.581C43.454-22.569 44.003-23.106 44.015-23.69C44.027-24.27 43.489-24.819 42.904-24.831C42.319-24.839 41.774-24.31 41.766-23.722Z"/>
   <path class="monochrome-7 monochrome-12 multicolor-7:systemGreenColor multicolor-12:tintColor hierarchical-7:primary hierarchical-12:primary SFSymbolsPreviewWireframe" d="M48.548-18.658C48.548-20.28 48.544-21.902 48.548-23.524C48.548-24.357 48.975-24.839 49.687-24.831C50.39-24.823 50.801-24.345 50.801-23.501C50.801-20.256 50.801-17.008 50.801-13.764C50.801-12.912 50.398-12.434 49.698-12.422C48.967-12.41 48.552-12.896 48.548-13.788C48.548-15.41 48.548-17.032 48.548-18.654Z"/>
   <path class="monochrome-6 monochrome-12 multicolor-6:black multicolor-12:tintColor hierarchical-6:primary hierarchical-12:primary SFSymbolsPreviewWireframe" d="M42.288-30.483C41.039-30.483 39.79-30.479 38.545-30.483C37.711-30.486 37.237-30.917 37.249-31.631C37.26-32.31 37.731-32.728 38.521-32.732C41.063-32.74 43.608-32.74 46.149-32.732C46.936-32.732 47.406-32.302 47.41-31.623C47.418-30.94 46.948-30.494 46.173-30.486C44.877-30.475 43.584-30.486 42.288-30.486Z"/>
   <path class="monochrome-12 multicolor-12:tintColor hierarchical-12:primary SFSymbolsPreviewWireframe" d="M62.109-19.151C62.109-18.421 62.125-17.691 62.109-16.965C62.089-16.254 61.623-15.797 60.963-15.812C60.334-15.824 59.872-16.27 59.868-16.945C59.852-18.449 59.852-19.957 59.868-21.46C59.876-22.131 60.342-22.573 60.979-22.577C61.611-22.581 62.089-22.147 62.109-21.48C62.133-20.706 62.113-19.929 62.117-19.151Z"/>
   <path class="monochrome-5 monochrome-12 multicolor-5:systemGreenColor multicolor-12:tintColor hierarchical-5:primary hierarchical-12:primary SFSymbolsPreviewWireframe" d="M50.189-30.486C49.975-30.486 49.762-30.467 49.552-30.486C48.948-30.554 48.525-31.039 48.552-31.643C48.584-32.27 48.936-32.649 49.552-32.72C49.971-32.768 50.398-32.748 50.821-32.728C51.489-32.697 51.928-32.239 51.928-31.607C51.928-30.976 51.485-30.526 50.817-30.486C50.608-30.475 50.394-30.486 50.181-30.486L50.181-30.486Z"/>
   <path class="monochrome-12 multicolor-12:tintColor hierarchical-12:primary SFSymbolsPreviewWireframe" d="M40.628-15.197C40.628-14.984 40.648-14.77 40.628-14.561C40.565-13.954 40.086-13.539 39.482-13.551C38.881-13.563 38.426-13.989 38.387-14.613C38.363-15.011 38.367-15.414 38.387-15.812C38.418-16.483 38.865-16.925 39.501-16.929C40.134-16.933 40.592-16.495 40.636-15.832C40.648-15.623 40.636-15.41 40.636-15.197L40.636-15.197Z"/>
  </g>
  <g id="Regular-S" transform="matrix(1.00656 0 0 1.00656 1405.56 696)">
   <path class="monochrome-12 multicolor-12:tintColor hierarchical-12:primary SFSymbolsPreviewWireframe" d="M57.615-38.384L57.615-36.162L64.314-36.162L64.314-38.384C63.638-38.384 62.943-38.376 62.247-38.384C61.397-38.396 60.983-38.794 60.983-39.635C60.979-45.279 60.971-50.923 60.983-56.567C60.986-58.323 62.469-59.803 64.227-59.819C64.974-59.827 65.749-59.846 66.464-59.669C67.919-59.31 68.879-57.991 68.879-56.492C68.887-50.895 68.883-45.299 68.879-39.702C68.879-38.775 68.48-38.396 67.539-38.384C67.263-38.384 66.982-38.384 66.666-38.384L66.666-36.122C66.966-36.122 67.243-36.122 67.52-36.122C68.543-36.115 68.986-35.645 68.864-34.619C68.678-33.056 68.452-31.501 68.247-29.942C67.749-26.173 67.255-22.404 66.757-18.63C66.508-16.72 66.306-14.806 66.002-12.904C65.512-9.817 63.338-7.974 60.224-7.903C60.129-7.903 60.038-7.891 59.84-7.876C59.84-7.627 59.84-7.378 59.84-7.13C59.84-5.2 59.84-3.274 59.84-1.344C59.84-0.4 59.453-0.002 58.528-0.002C52.995-0.002 47.461 0.002 41.928-0.002C41.035-0.002 40.64-0.404 40.636-1.292C40.628-3.246 40.636-5.196 40.636-7.149C40.636-7.378 40.636-7.607 40.636-7.832C39.802-7.907 39.019-7.899 38.272-8.053C35.719-8.574 33.873-10.855 33.857-13.456C33.846-15.714 33.846-17.971 33.857-20.229C33.857-20.616 33.774-20.864 33.411-21.077C31.786-22.025 30.19-23.019 28.573-23.978C28.431-24.061 28.182-24.049 28.012-23.99C27.502-23.816 27.012-23.584 26.506-23.394C25.743-23.114 25.186-23.311 24.886-24.041C23.012-28.596 21.135-33.151 19.309-37.725C18.819-38.952 19.052-40.188 20.008-41.119C21.127-42.204 22.518-42.792 24.111-42.595C25.289-42.449 26.174-41.762 26.629-40.669C28.506-36.142 30.36-31.599 32.201-27.057C32.545-26.208 32.273-25.806 30.992-25.174C31.945-24.606 32.842-24.069 33.853-23.465C33.853-23.86 33.853-24.109 33.853-24.357C33.853-27.791 33.853-31.225 33.853-34.658C33.853-35.779 34.201-36.122 35.328-36.126C35.893-36.126 36.458-36.13 37.023-36.134C37.067-36.134 37.11-36.158 37.245-36.197L37.245-38.388C36.486-38.388 35.786-38.38 35.087-38.388C34.28-38.4 33.857-38.802 33.857-39.6C33.853-46.771 33.846-53.942 33.857-61.117C33.857-62.834 35.347-64.314 37.063-64.334C37.834-64.342 38.632-64.361 39.371-64.18C40.794-63.825 41.75-62.506 41.754-61.046C41.762-53.922 41.758-46.794 41.754-39.671C41.754-38.786 41.347-38.4 40.45-38.388C40.169-38.384 39.885-38.388 39.549-38.388L39.549-36.174L46.24-36.174L46.24-38.388C45.592-38.388 44.924-38.388 44.252-38.388C43.272-38.396 42.893-38.771 42.893-39.757C42.893-48.693 42.893-57.628 42.893-66.564C42.893-68.537 44.351-69.982 46.327-69.99C46.916-69.99 47.517-70.037 48.086-69.93C49.691-69.626 50.793-68.253 50.793-66.611C50.797-57.652 50.793-48.693 50.793-39.734C50.793-38.79 50.402-38.404 49.477-38.392C49.197-38.392 48.916-38.392 48.584-38.392L48.584-36.174L55.283-36.174L55.283-38.392C54.647-38.392 53.999-38.392 53.35-38.392C52.311-38.396 51.932-38.759 51.932-39.773C51.932-46.826 51.928-53.883 51.932-60.936C51.932-62.901 53.398-64.342 55.378-64.346C55.967-64.346 56.568-64.393 57.137-64.283C58.765-63.967 59.832-62.589 59.832-60.884C59.832-53.899 59.832-46.917 59.832-39.931C59.832-38.712 59.512-38.396 58.291-38.388C58.081-38.388 57.872-38.388 57.599-38.388ZM36.134-33.837C36.122-33.664 36.11-33.569 36.11-33.478C36.11-26.871 36.098-20.264 36.114-13.658C36.118-11.641 37.577-10.192 39.592-10.165C41.335-10.141 43.078-10.161 44.817-10.161C49.928-10.161 55.034-10.157 60.145-10.161C62.073-10.161 63.378-11.238 63.706-13.097C63.868-14.021 63.97-14.956 64.093-15.887C64.591-19.657 65.085-23.426 65.579-27.199C65.868-29.401 66.156-31.607 66.449-33.841L36.134-33.841Z"/>
   <path class="monochrome-4 monochrome-12 multicolor-4:systemIndigoColor multicolor-12:tintColor hierarchical-4:primary hierarchical-12:primary SFSymbolsPreviewWireframe" d="M48.548-40.653L48.548-41.478C48.548-45.922 48.548-50.366 48.548-54.81C48.548-58.619 48.564-62.428 48.529-66.236C48.525-66.658 48.311-67.365 48.054-67.44C47.347-67.637 46.537-67.704 45.821-67.562C45.145-67.428 45.153-66.702 45.153-66.094C45.157-61.626 45.153-57.159 45.153-52.691C45.153-52.442 45.153-52.198 45.153-51.929C45.426-51.929 45.592-51.929 45.758-51.929C46.928-51.921 47.426-51.578 47.414-50.785C47.402-50.015 46.916-49.687 45.794-49.676C45.592-49.676 45.39-49.648 45.213-49.636L45.213-40.657L48.552-40.657Z"/>
   <path class="monochrome-12 multicolor-12:tintColor hierarchical-12:primary SFSymbolsPreviewWireframe" d="M57.56-7.856L42.948-7.856L42.948-2.295L57.56-2.295L57.56-7.856Z"/>
   <path class="monochrome-3 monochrome-12 multicolor-3:systemPurpleColor multicolor-12:tintColor hierarchical-3:primary hierarchical-12:primary SFSymbolsPreviewWireframe" d="M39.493-49.64C38.581-49.766 37.304-49.336 37.28-50.769C37.256-52.257 38.561-51.838 39.414-51.945C39.454-52.028 39.49-52.067 39.49-52.111C39.497-55.027 39.513-57.94 39.482-60.857C39.482-61.184 39.245-61.753 39.027-61.796C38.3-61.95 37.509-62.057 36.79-61.922C36.11-61.796 36.102-61.078 36.106-60.466C36.11-54.116 36.106-47.769 36.106-41.419L36.106-40.693L39.49-40.693L39.49-49.64Z"/>
   <path class="monochrome-2 monochrome-12 multicolor-2:systemPinkColor multicolor-12:tintColor hierarchical-2:primary hierarchical-12:primary SFSymbolsPreviewWireframe" d="M57.508-40.669C57.544-40.744 57.576-40.784 57.576-40.823C57.583-47.501 57.591-54.179 57.583-60.853C57.583-61.626 57.113-62.045 56.331-62.084C56.121-62.096 55.908-62.084 55.694-62.084C54.603-62.076 54.196-61.682 54.196-60.6C54.192-58.272 54.196-55.943 54.196-53.618C54.196-53.441 54.228-53.259 54.244-53.09C56.05-52.951 56.465-52.766 56.441-51.992C56.394-50.449 55.113-50.911 54.248-50.753L54.248-40.665L57.508-40.665Z"/>
   <path class="monochrome-1 monochrome-12 multicolor-1:systemBlueColor multicolor-12:tintColor hierarchical-1:primary hierarchical-12:primary SFSymbolsPreviewWireframe" d="M66.587-40.669L66.587-48.511C65.698-48.626 64.468-48.215 64.409-49.593C64.346-51.14 65.706-50.69 66.63-50.832C66.63-52.73 66.654-54.585 66.611-56.436C66.603-56.74 66.35-57.261 66.14-57.297C65.405-57.431 64.615-57.538 63.899-57.391C63.227-57.253 63.239-56.527 63.239-55.919C63.243-51.077 63.239-46.234 63.239-41.387C63.239-41.158 63.239-40.93 63.239-40.669L66.587-40.669Z"/>
   <path class="monochrome-0 monochrome-12 multicolor-0:systemTealColor multicolor-12:tintColor hierarchical-0:primary hierarchical-12:primary SFSymbolsPreviewWireframe" d="M29.707-27.155C28.96-28.971 28.249-30.7 27.538-32.436C26.577-34.781 25.629-37.129 24.66-39.469C24.301-40.342 23.791-40.547 22.921-40.215C22.724-40.14 22.53-40.053 22.336-39.971C21.404-39.576 21.19-39.075 21.577-38.131C23.174-34.224 24.771-30.317 26.376-26.409C26.443-26.248 26.542-26.098 26.644-25.912C27.664-26.327 28.64-26.721 29.707-27.159Z"/>
   <path class="monochrome-11 monochrome-12 multicolor-11:systemGreenColor multicolor-12:tintColor hierarchical-11:primary hierarchical-12:primary SFSymbolsPreviewWireframe" d="M51.943-14.881C51.659-15.88 52.236-16.685 53.074-17.446C54.133-18.409 55.125-19.447 56.117-20.481C56.303-20.675 56.425-20.995 56.445-21.267C56.489-21.969 56.433-22.676 56.473-23.378C56.493-23.773 56.331-23.947 56.003-24.124C54.576-24.898 53.896-26.437 54.295-27.929C54.71-29.488 55.995-30.486 57.587-30.486C59.184-30.486 60.465-29.496 60.884-27.933C61.283-26.445 60.611-24.89 59.18-24.132C58.797-23.931 58.702-23.706 58.714-23.315C58.738-22.4 58.773-21.48 58.698-20.568C58.662-20.142 58.477-19.645 58.192-19.337C57.07-18.133 55.9-16.977 54.706-15.844C54.311-15.465 54.149-15.078 54.192-14.549C54.224-14.198 54.216-13.843 54.192-13.492C54.149-12.837 53.667-12.402 53.038-12.422C52.438-12.438 51.987-12.864 51.951-13.492C51.928-13.89 51.947-14.289 51.947-14.881Z"/>
   <path class="monochrome-10 monochrome-12 multicolor-10:systemRedColor multicolor-12:tintColor hierarchical-10:primary hierarchical-12:primary SFSymbolsPreviewWireframe" d="M58.714-27.076C58.726-27.657 58.188-28.205 57.607-28.217C57.022-28.225 56.477-27.696 56.465-27.108C56.453-26.528 56.987-25.979 57.572-25.967C58.153-25.956 58.702-26.492 58.714-27.076Z"/>
   <path class="monochrome-9 monochrome-12 multicolor-9:systemGreenColor multicolor-12:tintColor hierarchical-9:primary hierarchical-12:primary SFSymbolsPreviewWireframe" d="M41.766-19.124C41.766-19.361 41.742-19.597 41.77-19.83C41.829-20.308 41.651-20.56 41.201-20.797C39.865-21.508 39.217-23.098 39.588-24.523C39.995-26.082 41.284-27.096 42.873-27.096C44.477-27.096 45.758-26.113 46.177-24.551C46.564-23.118 45.916-21.567 44.612-20.793C43.782-20.304 43.734-18.871 44.529-18.342C45.272-17.845 46.011-17.348 46.762-16.862C47.216-16.566 47.434-16.176 47.414-15.623C47.39-14.94 47.422-14.257 47.402-13.579C47.382-12.864 46.916-12.41 46.256-12.422C45.628-12.434 45.062-12.904 45.177-13.547C45.426-14.94 44.738-15.674 43.612-16.215C43.442-16.294 43.304-16.436 43.138-16.519C42.039-17.056 41.454-17.857 41.758-19.128Z"/>
   <path class="monochrome-8 monochrome-12 multicolor-8:systemRedColor multicolor-12:tintColor hierarchical-8:primary hierarchical-12:primary SFSymbolsPreviewWireframe" d="M41.766-23.722C41.754-23.142 42.288-22.593 42.873-22.581C43.454-22.569 44.003-23.106 44.015-23.69C44.027-24.27 43.489-24.819 42.904-24.831C42.319-24.839 41.774-24.31 41.766-23.722Z"/>
   <path class="monochrome-7 monochrome-12 multicolor-7:systemGreenColor multicolor-12:tintColor hierarchical-7:primary hierarchical-12:primary SFSymbolsPreviewWireframe" d="M48.548-18.658C48.548-20.28 48.544-21.902 48.548-23.524C48.548-24.357 48.975-24.839 49.687-24.831C50.39-24.823 50.801-24.345 50.801-23.501C50.801-20.256 50.801-17.008 50.801-13.764C50.801-12.912 50.398-12.434 49.698-12.422C48.967-12.41 48.552-12.896 48.548-13.788C48.548-15.41 48.548-17.032 48.548-18.654Z"/>
   <path class="monochrome-6 monochrome-12 multicolor-6:black multicolor-12:tintColor hierarchical-6:primary hierarchical-12:primary SFSymbolsPreviewWireframe" d="M42.288-30.483C41.039-30.483 39.79-30.479 38.545-30.483C37.711-30.486 37.237-30.917 37.249-31.631C37.26-32.31 37.731-32.728 38.521-32.732C41.063-32.74 43.608-32.74 46.149-32.732C46.936-32.732 47.406-32.302 47.41-31.623C47.418-30.94 46.948-30.494 46.173-30.486C44.877-30.475 43.584-30.486 42.288-30.486Z"/>
   <path class="monochrome-12 multicolor-12:tintColor hierarchical-12:primary SFSymbolsPreviewWireframe" d="M62.109-19.151C62.109-18.421 62.125-17.691 62.109-16.965C62.089-16.254 61.623-15.797 60.963-15.812C60.334-15.824 59.872-16.27 59.868-16.945C59.852-18.449 59.852-19.957 59.868-21.46C59.876-22.131 60.342-22.573 60.979-22.577C61.611-22.581 62.089-22.147 62.109-21.48C62.133-20.706 62.113-19.929 62.117-19.151Z"/>
   <path class="monochrome-5 monochrome-12 multicolor-5:systemGreenColor multicolor-12:tintColor hierarchical-5:primary hierarchical-12:primary SFSymbolsPreviewWireframe" d="M50.189-30.486C49.975-30.486 49.762-30.467 49.552-30.486C48.948-30.554 48.525-31.039 48.552-31.643C48.584-32.27 48.936-32.649 49.552-32.72C49.971-32.768 50.398-32.748 50.821-32.728C51.489-32.697 51.928-32.239 51.928-31.607C51.928-30.976 51.485-30.526 50.817-30.486C50.608-30.475 50.394-30.486 50.181-30.486L50.181-30.486Z"/>
   <path class="monochrome-12 multicolor-12:tintColor hierarchical-12:primary SFSymbolsPreviewWireframe" d="M40.628-15.197C40.628-14.984 40.648-14.77 40.628-14.561C40.565-13.954 40.086-13.539 39.482-13.551C38.881-13.563 38.426-13.989 38.387-14.613C38.363-15.011 38.367-15.414 38.387-15.812C38.418-16.483 38.865-16.925 39.501-16.929C40.134-16.933 40.592-16.495 40.636-15.832C40.648-15.623 40.636-15.41 40.636-15.197L40.636-15.197Z"/>
  </g>
  <g id="Ultralight-S" transform="matrix(1.00656 0 0 1.00656 515.423 696)">
   <path class="monochrome-12 multicolor-12:tintColor hierarchical-12:primary SFSymbolsPreviewWireframe" d="M57.615-38.384L57.615-36.162L64.314-36.162L64.314-38.384C63.638-38.384 62.943-38.376 62.247-38.384C61.397-38.396 60.983-38.794 60.983-39.635C60.979-45.279 60.971-50.923 60.983-56.567C60.986-58.323 62.469-59.803 64.227-59.819C64.974-59.827 65.749-59.846 66.464-59.669C67.919-59.31 68.879-57.991 68.879-56.492C68.887-50.895 68.883-45.299 68.879-39.702C68.879-38.775 68.48-38.396 67.539-38.384C67.263-38.384 66.982-38.384 66.666-38.384L66.666-36.122C66.966-36.122 67.243-36.122 67.52-36.122C68.543-36.115 68.986-35.645 68.864-34.619C68.678-33.056 68.452-31.501 68.247-29.942C67.749-26.173 67.255-22.404 66.757-18.63C66.508-16.72 66.306-14.806 66.002-12.904C65.512-9.817 63.338-7.974 60.224-7.903C60.129-7.903 60.038-7.891 59.84-7.876C59.84-7.627 59.84-7.378 59.84-7.13C59.84-5.2 59.84-3.274 59.84-1.344C59.84-0.4 59.453-0.002 58.528-0.002C52.995-0.002 47.461 0.002 41.928-0.002C41.035-0.002 40.64-0.404 40.636-1.292C40.628-3.246 40.636-5.196 40.636-7.149C40.636-7.378 40.636-7.607 40.636-7.832C39.802-7.907 39.019-7.899 38.272-8.053C35.719-8.574 33.873-10.855 33.857-13.456C33.846-15.714 33.846-17.971 33.857-20.229C33.857-20.616 33.774-20.864 33.411-21.077C31.786-22.025 30.19-23.019 28.573-23.978C28.431-24.061 28.182-24.049 28.012-23.99C27.502-23.816 27.012-23.584 26.506-23.394C25.743-23.114 25.186-23.311 24.886-24.041C23.012-28.596 21.135-33.151 19.309-37.725C18.819-38.952 19.052-40.188 20.008-41.119C21.127-42.204 22.518-42.792 24.111-42.595C25.289-42.449 26.174-41.762 26.629-40.669C28.506-36.142 30.36-31.599 32.201-27.057C32.545-26.208 32.273-25.806 30.992-25.174C31.945-24.606 32.842-24.069 33.854-23.465C33.854-23.86 33.854-24.109 33.854-24.357C33.854-27.791 33.854-31.225 33.854-34.658C33.854-35.779 34.201-36.122 35.328-36.126C35.893-36.126 36.458-36.13 37.023-36.134C37.067-36.134 37.11-36.158 37.245-36.197L37.245-38.388C36.486-38.388 35.786-38.38 35.087-38.388C34.28-38.4 33.857-38.802 33.857-39.6C33.854-46.771 33.846-53.942 33.857-61.117C33.857-62.834 35.347-64.314 37.063-64.334C37.834-64.342 38.632-64.361 39.371-64.18C40.794-63.825 41.75-62.506 41.754-61.046C41.762-53.922 41.758-46.794 41.754-39.671C41.754-38.786 41.347-38.4 40.45-38.388C40.169-38.384 39.885-38.388 39.549-38.388L39.549-36.174L46.24-36.174L46.24-38.388C45.592-38.388 44.924-38.388 44.252-38.388C43.272-38.396 42.893-38.771 42.893-39.757C42.893-48.693 42.893-57.628 42.893-66.564C42.893-68.537 44.351-69.982 46.327-69.99C46.916-69.99 47.517-70.037 48.086-69.93C49.691-69.626 50.793-68.253 50.793-66.611C50.797-57.652 50.793-48.693 50.793-39.734C50.793-38.79 50.402-38.404 49.477-38.392C49.197-38.392 48.916-38.392 48.584-38.392L48.584-36.174L55.283-36.174L55.283-38.392C54.647-38.392 53.999-38.392 53.35-38.392C52.311-38.396 51.932-38.759 51.932-39.773C51.932-46.826 51.928-53.883 51.932-60.936C51.932-62.901 53.398-64.342 55.378-64.346C55.967-64.346 56.568-64.393 57.137-64.283C58.765-63.967 59.832-62.589 59.832-60.884C59.832-53.899 59.832-46.917 59.832-39.931C59.832-38.712 59.512-38.396 58.291-38.388C58.081-38.388 57.872-38.388 57.599-38.388ZM36.134-33.837C36.122-33.664 36.11-33.569 36.11-33.478C36.11-26.871 36.098-20.264 36.114-13.658C36.118-11.641 37.577-10.192 39.592-10.165C41.335-10.141 43.078-10.161 44.817-10.161C49.928-10.161 55.034-10.157 60.145-10.161C62.073-10.161 63.378-11.238 63.706-13.097C63.868-14.021 63.97-14.956 64.093-15.887C64.591-19.657 65.085-23.426 65.579-27.199C65.868-29.401 66.156-31.607 66.449-33.841L36.134-33.841Z"/>
   <path class="monochrome-4 monochrome-12 multicolor-4:systemIndigoColor multicolor-12:tintColor hierarchical-4:primary hierarchical-12:primary SFSymbolsPreviewWireframe" d="M48.548-40.653L48.548-41.478C48.548-45.922 48.548-50.366 48.548-54.81C48.548-58.619 48.564-62.428 48.529-66.236C48.525-66.658 48.311-67.365 48.054-67.44C47.347-67.637 46.537-67.704 45.821-67.562C45.145-67.428 45.153-66.702 45.153-66.094C45.157-61.626 45.153-57.159 45.153-52.691C45.153-52.442 45.153-52.198 45.153-51.929C45.426-51.929 45.592-51.929 45.758-51.929C46.928-51.921 47.426-51.578 47.414-50.785C47.402-50.015 46.916-49.687 45.794-49.676C45.592-49.676 45.39-49.648 45.213-49.636L45.213-40.657L48.552-40.657Z"/>
   <path class="monochrome-12 multicolor-12:tintColor hierarchical-12:primary SFSymbolsPreviewWireframe" d="M57.56-7.856L42.948-7.856L42.948-2.295L57.56-2.295L57.56-7.856Z"/>
   <path class="monochrome-3 monochrome-12 multicolor-3:systemPurpleColor multicolor-12:tintColor hierarchical-3:primary hierarchical-12:primary SFSymbolsPreviewWireframe" d="M39.493-49.64C38.581-49.766 37.304-49.336 37.28-50.769C37.256-52.257 38.561-51.838 39.414-51.945C39.454-52.028 39.49-52.067 39.49-52.111C39.497-55.027 39.513-57.94 39.482-60.857C39.482-61.184 39.245-61.753 39.027-61.796C38.3-61.95 37.509-62.057 36.79-61.922C36.11-61.796 36.102-61.078 36.106-60.466C36.11-54.116 36.106-47.769 36.106-41.419L36.106-40.693L39.49-40.693L39.49-49.64Z"/>
   <path class="monochrome-2 monochrome-12 multicolor-2:systemPinkColor multicolor-12:tintColor hierarchical-2:primary hierarchical-12:primary SFSymbolsPreviewWireframe" d="M57.508-40.669C57.544-40.744 57.576-40.784 57.576-40.823C57.583-47.501 57.591-54.179 57.583-60.853C57.583-61.626 57.113-62.045 56.331-62.084C56.121-62.096 55.908-62.084 55.694-62.084C54.603-62.076 54.196-61.682 54.196-60.6C54.192-58.272 54.196-55.943 54.196-53.618C54.196-53.441 54.228-53.259 54.244-53.09C56.05-52.951 56.465-52.766 56.441-51.992C56.394-50.449 55.113-50.911 54.248-50.753L54.248-40.665L57.508-40.665Z"/>
   <path class="monochrome-1 monochrome-12 multicolor-1:systemBlueColor multicolor-12:tintColor hierarchical-1:primary hierarchical-12:primary SFSymbolsPreviewWireframe" d="M66.587-40.669L66.587-48.511C65.698-48.626 64.468-48.215 64.409-49.593C64.346-51.14 65.706-50.69 66.63-50.832C66.63-52.73 66.654-54.585 66.611-56.436C66.603-56.74 66.35-57.261 66.14-57.297C65.405-57.431 64.615-57.538 63.899-57.391C63.227-57.253 63.239-56.527 63.239-55.919C63.243-51.077 63.239-46.234 63.239-41.387C63.239-41.158 63.239-40.93 63.239-40.669L66.587-40.669Z"/>
   <path class="monochrome-0 monochrome-12 multicolor-0:systemTealColor multicolor-12:tintColor hierarchical-0:primary hierarchical-12:primary SFSymbolsPreviewWireframe" d="M29.707-27.155C28.96-28.971 28.249-30.7 27.538-32.436C26.577-34.781 25.629-37.129 24.66-39.469C24.301-40.342 23.791-40.547 22.921-40.215C22.724-40.14 22.53-40.053 22.336-39.971C21.404-39.576 21.19-39.075 21.577-38.131C23.174-34.224 24.771-30.317 26.376-26.409C26.443-26.248 26.542-26.098 26.644-25.912C27.664-26.327 28.64-26.721 29.707-27.159Z"/>
   <path class="monochrome-11 monochrome-12 multicolor-11:systemGreenColor multicolor-12:tintColor hierarchical-11:primary hierarchical-12:primary SFSymbolsPreviewWireframe" d="M51.943-14.881C51.659-15.88 52.236-16.685 53.074-17.446C54.133-18.409 55.125-19.447 56.117-20.481C56.303-20.675 56.425-20.995 56.445-21.267C56.489-21.969 56.433-22.676 56.473-23.378C56.493-23.773 56.331-23.947 56.003-24.124C54.576-24.898 53.896-26.437 54.295-27.929C54.71-29.488 55.995-30.486 57.587-30.486C59.184-30.486 60.465-29.496 60.884-27.933C61.283-26.445 60.611-24.89 59.18-24.132C58.797-23.931 58.702-23.706 58.714-23.315C58.738-22.4 58.773-21.48 58.698-20.568C58.662-20.142 58.477-19.645 58.192-19.337C57.07-18.133 55.9-16.977 54.706-15.844C54.311-15.465 54.149-15.078 54.192-14.549C54.224-14.198 54.216-13.843 54.192-13.492C54.149-12.837 53.667-12.402 53.038-12.422C52.438-12.438 51.987-12.864 51.951-13.492C51.928-13.89 51.947-14.289 51.947-14.881Z"/>
   <path class="monochrome-10 monochrome-12 multicolor-10:systemRedColor multicolor-12:tintColor hierarchical-10:primary hierarchical-12:primary SFSymbolsPreviewWireframe" d="M58.714-27.076C58.726-27.657 58.188-28.205 57.607-28.217C57.022-28.225 56.477-27.696 56.465-27.108C56.453-26.528 56.987-25.979 57.572-25.967C58.153-25.956 58.702-26.492 58.714-27.076Z"/>
   <path class="monochrome-9 monochrome-12 multicolor-9:systemGreenColor multicolor-12:tintColor hierarchical-9:primary hierarchical-12:primary SFSymbolsPreviewWireframe" d="M41.766-19.124C41.766-19.361 41.742-19.597 41.77-19.83C41.829-20.308 41.651-20.56 41.201-20.797C39.865-21.508 39.217-23.098 39.588-24.523C39.995-26.082 41.284-27.096 42.873-27.096C44.477-27.096 45.758-26.113 46.177-24.551C46.564-23.118 45.916-21.567 44.612-20.793C43.782-20.304 43.734-18.871 44.529-18.342C45.272-17.845 46.011-17.348 46.762-16.862C47.216-16.566 47.434-16.176 47.414-15.623C47.39-14.94 47.422-14.257 47.402-13.579C47.382-12.864 46.916-12.41 46.256-12.422C45.628-12.434 45.062-12.904 45.177-13.547C45.426-14.94 44.738-15.674 43.612-16.215C43.442-16.294 43.304-16.436 43.138-16.519C42.039-17.056 41.454-17.857 41.758-19.128Z"/>
   <path class="monochrome-8 monochrome-12 multicolor-8:systemRedColor multicolor-12:tintColor hierarchical-8:primary hierarchical-12:primary SFSymbolsPreviewWireframe" d="M41.766-23.722C41.754-23.142 42.288-22.593 42.873-22.581C43.454-22.569 44.003-23.106 44.015-23.69C44.027-24.27 43.489-24.819 42.904-24.831C42.319-24.839 41.774-24.31 41.766-23.722Z"/>
   <path class="monochrome-7 monochrome-12 multicolor-7:systemGreenColor multicolor-12:tintColor hierarchical-7:primary hierarchical-12:primary SFSymbolsPreviewWireframe" d="M48.548-18.658C48.548-20.28 48.544-21.902 48.548-23.524C48.548-24.357 48.975-24.839 49.687-24.831C50.39-24.823 50.801-24.345 50.801-23.501C50.801-20.256 50.801-17.008 50.801-13.764C50.801-12.912 50.398-12.434 49.698-12.422C48.967-12.41 48.552-12.896 48.548-13.788C48.548-15.41 48.548-17.032 48.548-18.654Z"/>
   <path class="monochrome-6 monochrome-12 multicolor-6:black multicolor-12:tintColor hierarchical-6:primary hierarchical-12:primary SFSymbolsPreviewWireframe" d="M42.288-30.483C41.039-30.483 39.79-30.479 38.545-30.483C37.711-30.486 37.237-30.917 37.249-31.631C37.26-32.31 37.731-32.728 38.521-32.732C41.063-32.74 43.608-32.74 46.149-32.732C46.936-32.732 47.406-32.302 47.41-31.623C47.418-30.94 46.948-30.494 46.173-30.486C44.877-30.475 43.584-30.486 42.288-30.486Z"/>
   <path class="monochrome-12 multicolor-12:tintColor hierarchical-12:primary SFSymbolsPreviewWireframe" d="M62.109-19.151C62.109-18.421 62.125-17.691 62.109-16.965C62.089-16.254 61.623-15.797 60.963-15.812C60.334-15.824 59.872-16.27 59.868-16.945C59.852-18.449 59.852-19.957 59.868-21.46C59.876-22.131 60.342-22.573 60.979-22.577C61.611-22.581 62.089-22.147 62.109-21.48C62.133-20.706 62.113-19.929 62.117-19.151Z"/>
   <path class="monochrome-5 monochrome-12 multicolor-5:systemGreenColor multicolor-12:tintColor hierarchical-5:primary hierarchical-12:primary SFSymbolsPreviewWireframe" d="M50.189-30.486C49.975-30.486 49.762-30.467 49.552-30.486C48.948-30.554 48.525-31.039 48.552-31.643C48.584-32.27 48.936-32.649 49.552-32.72C49.971-32.768 50.398-32.748 50.821-32.728C51.489-32.697 51.928-32.239 51.928-31.607C51.928-30.976 51.485-30.526 50.817-30.486C50.608-30.475 50.394-30.486 50.181-30.486L50.181-30.486Z"/>
   <path class="monochrome-12 multicolor-12:tintColor hierarchical-12:primary SFSymbolsPreviewWireframe" d="M40.628-15.197C40.628-14.984 40.648-14.77 40.628-14.561C40.565-13.954 40.086-13.539 39.482-13.551C38.881-13.563 38.426-13.989 38.387-14.613C38.363-15.011 38.367-15.414 38.387-15.812C38.418-16.483 38.865-16.925 39.501-16.929C40.134-16.933 40.592-16.495 40.636-15.832C40.648-15.623 40.636-15.41 40.636-15.197L40.636-15.197Z"/>
  </g>
 </g>
</svg>
