<?xml version="1.0" encoding="UTF-8"?>
<!--Generator: Apple Native CoreSVG 232.5-->
<!DOCTYPE svg
PUBLIC "-//W3C//DTD SVG 1.1//EN"
       "http://www.w3.org/Graphics/SVG/1.1/DTD/svg11.dtd">
<svg version="1.1" xmlns="http://www.w3.org/2000/svg" xmlns:xlink="http://www.w3.org/1999/xlink" width="3300" height="2200">
 <!--glyph: "", point size: 100.0, font version: "19.0d7e1", template writer version: "128"-->
 <style>.monochrome-0 {-sfsymbols-variable-threshold:0.0;-sfsymbols-motion-group:1;-sfsymbols-always-pulses:true}
.monochrome-1 {-sfsymbols-motion-group:0}
.monochrome-2 {-sfsymbols-motion-group:0}
.monochrome-3 {-sfsymbols-motion-group:0}
.monochrome-4 {-sfsymbols-motion-group:0}
.monochrome-5 {-sfsymbols-motion-group:0}
.monochrome-6 {-sfsymbols-motion-group:0}
.monochrome-7 {-sfsymbols-motion-group:0}
.monochrome-8 {-sfsymbols-motion-group:0}
.monochrome-9 {-sfsymbols-motion-group:0}

.multicolor-0:systemOrangeColor {-sfsymbols-variable-threshold:0.0;-sfsymbols-motion-group:1;-sfsymbols-always-pulses:true}
.multicolor-1:systemGrayColor {-sfsymbols-motion-group:0}
.multicolor-2:black {-sfsymbols-motion-group:0}
.multicolor-3:black {-sfsymbols-motion-group:0}
.multicolor-4:systemGrayColor {-sfsymbols-motion-group:0}
.multicolor-5:systemGrayColor {-sfsymbols-motion-group:0}
.multicolor-6:systemGrayColor {-sfsymbols-motion-group:0}
.multicolor-7:systemGrayColor {-sfsymbols-motion-group:0}
.multicolor-8:systemGrayColor {-sfsymbols-motion-group:0}
.multicolor-9:tintColor {-sfsymbols-motion-group:0}

.hierarchical-0:primary {-sfsymbols-variable-threshold:0.0;-sfsymbols-motion-group:1}
.hierarchical-1:primary {-sfsymbols-motion-group:0}
.hierarchical-2:primary {-sfsymbols-motion-group:0}
.hierarchical-3:primary {-sfsymbols-motion-group:0}
.hierarchical-4:primary {-sfsymbols-motion-group:0}
.hierarchical-5:primary {-sfsymbols-motion-group:0}
.hierarchical-6:primary {-sfsymbols-motion-group:0}
.hierarchical-7:primary {-sfsymbols-motion-group:0}
.hierarchical-8:primary {-sfsymbols-motion-group:0}
.hierarchical-9:primary {-sfsymbols-motion-group:0}

.SFSymbolsPreviewWireframe {fill:none;opacity:1.0;stroke:black;stroke-width:0.5}
</style>
 <g id="Notes">
  <rect height="2200" id="artboard" style="fill:white;opacity:1" width="3300" x="0" y="0"/>
  <line style="fill:none;stroke:black;opacity:1;stroke-width:0.5;" x1="263" x2="3036" y1="292" y2="292"/>
  <text style="stroke:none;fill:black;font-family:sans-serif;font-size:13;font-weight:bold;" transform="matrix(1 0 0 1 263 322)">Weight/Scale Variations</text>
  <text style="stroke:none;fill:black;font-family:sans-serif;font-size:13;text-anchor:middle;" transform="matrix(1 0 0 1 559.711 322)">Ultralight</text>
  <text style="stroke:none;fill:black;font-family:sans-serif;font-size:13;text-anchor:middle;" transform="matrix(1 0 0 1 856.422 322)">Thin</text>
  <text style="stroke:none;fill:black;font-family:sans-serif;font-size:13;text-anchor:middle;" transform="matrix(1 0 0 1 1153.13 322)">Light</text>
  <text style="stroke:none;fill:black;font-family:sans-serif;font-size:13;text-anchor:middle;" transform="matrix(1 0 0 1 1449.84 322)">Regular</text>
  <text style="stroke:none;fill:black;font-family:sans-serif;font-size:13;text-anchor:middle;" transform="matrix(1 0 0 1 1746.56 322)">Medium</text>
  <text style="stroke:none;fill:black;font-family:sans-serif;font-size:13;text-anchor:middle;" transform="matrix(1 0 0 1 2043.27 322)">Semibold</text>
  <text style="stroke:none;fill:black;font-family:sans-serif;font-size:13;text-anchor:middle;" transform="matrix(1 0 0 1 2339.98 322)">Bold</text>
  <text style="stroke:none;fill:black;font-family:sans-serif;font-size:13;text-anchor:middle;" transform="matrix(1 0 0 1 2636.69 322)">Heavy</text>
  <text style="stroke:none;fill:black;font-family:sans-serif;font-size:13;text-anchor:middle;" transform="matrix(1 0 0 1 2933.4 322)">Black</text>
  <line style="fill:none;stroke:black;opacity:1;stroke-width:0.5;" x1="263" x2="3036" y1="1903" y2="1903"/>
  <g transform="matrix(0.2 0 0 0.2 263 1933)">
   <path d="m46.2402 4.15039c21.5332 0 39.4531-17.8711 39.4531-39.4043s-17.9688-39.4043-39.502-39.4043c-21.4844 0-39.3555 17.8711-39.3555 39.4043s17.9199 39.4043 39.4043 39.4043Zm0-7.42188c-17.7246 0-31.8848-14.209-31.8848-31.9824s14.1113-31.9824 31.8359-31.9824c17.7734 0 32.0312 14.209 32.0312 31.9824s-14.209 31.9824-31.9824 31.9824Zm-17.9688-31.9824c0 2.14844 1.51367 3.61328 3.75977 3.61328h10.498v10.5957c0 2.19727 1.46484 3.71094 3.61328 3.71094 2.24609 0 3.71094-1.51367 3.71094-3.71094v-10.5957h10.5957c2.19727 0 3.71094-1.46484 3.71094-3.61328 0-2.19727-1.51367-3.71094-3.71094-3.71094h-10.5957v-10.5469c0-2.24609-1.46484-3.75977-3.71094-3.75977-2.14844 0-3.61328 1.51367-3.61328 3.75977v10.5469h-10.498c-2.24609 0-3.75977 1.51367-3.75977 3.71094Z"/>
  </g>
  <g transform="matrix(0.2 0 0 0.2 281.506 1933)">
   <path d="m58.5449 14.5508c27.2461 0 49.8047-22.6074 49.8047-49.8047 0-27.2461-22.6074-49.8047-49.8535-49.8047-27.1973 0-49.7559 22.5586-49.7559 49.8047 0 27.1973 22.6074 49.8047 49.8047 49.8047Zm0-8.30078c-23.0469 0-41.4551-18.457-41.4551-41.5039s18.3594-41.5039 41.4062-41.5039 41.5527 18.457 41.5527 41.5039-18.457 41.5039-41.5039 41.5039Zm-22.6562-41.5039c0 2.39258 1.66016 4.00391 4.15039 4.00391h14.3555v14.4043c0 2.44141 1.66016 4.15039 4.05273 4.15039 2.44141 0 4.15039-1.66016 4.15039-4.15039v-14.4043h14.4043c2.44141 0 4.15039-1.61133 4.15039-4.00391 0-2.44141-1.70898-4.15039-4.15039-4.15039h-14.4043v-14.3555c0-2.49023-1.70898-4.19922-4.15039-4.19922-2.39258 0-4.05273 1.70898-4.05273 4.19922v14.3555h-14.3555c-2.49023 0-4.15039 1.70898-4.15039 4.15039Z"/>
  </g>
  <g transform="matrix(0.2 0 0 0.2 304.924 1933)">
   <path d="m74.8535 28.3203c34.8145 0 63.623-28.8086 63.623-63.5742 0-34.8145-28.8574-63.623-63.6719-63.623-34.7656 0-63.5254 28.8086-63.5254 63.623 0 34.7656 28.8086 63.5742 63.5742 63.5742Zm0-9.08203c-30.1758 0-54.4434-24.3164-54.4434-54.4922 0-30.2246 24.2188-54.4922 54.3945-54.4922 30.2246 0 54.541 24.2676 54.541 54.4922 0 30.1758-24.2676 54.4922-54.4922 54.4922Zm-28.8574-54.4922c0 2.58789 1.85547 4.39453 4.58984 4.39453h19.7266v19.7754c0 2.68555 1.85547 4.58984 4.44336 4.58984 2.68555 0 4.54102-1.85547 4.54102-4.58984v-19.7754h19.7754c2.68555 0 4.58984-1.80664 4.58984-4.39453 0-2.73438-1.85547-4.58984-4.58984-4.58984h-19.7754v-19.7266c0-2.73438-1.85547-4.63867-4.54102-4.63867-2.58789 0-4.44336 1.9043-4.44336 4.63867v19.7266h-19.7266c-2.73438 0-4.58984 1.85547-4.58984 4.58984Z"/>
  </g>
  <text style="stroke:none;fill:black;font-family:sans-serif;font-size:13;font-weight:bold;" transform="matrix(1 0 0 1 263 1953)">Design Variations</text>
  <text style="stroke:none;fill:black;font-family:sans-serif;font-size:13;" transform="matrix(1 0 0 1 263 1971)">Symbols are supported in up to nine weights and three scales.</text>
  <text style="stroke:none;fill:black;font-family:sans-serif;font-size:13;" transform="matrix(1 0 0 1 263 1989)">For optimal layout with text and other symbols, vertically align</text>
  <text style="stroke:none;fill:black;font-family:sans-serif;font-size:13;" transform="matrix(1 0 0 1 263 2007)">symbols with the adjacent text.</text>
  <line style="fill:none;stroke:#00AEEF;stroke-width:0.5;opacity:1.0;" x1="776" x2="776" y1="1919" y2="1933"/>
  <g transform="matrix(0.2 0 0 0.2 776 1933)">
   <path d="m16.5527 0.78125c2.58789 0 3.85742-0.976562 4.78516-3.71094l6.29883-17.2363h28.8086l6.29883 17.2363c0.927734 2.73438 2.19727 3.71094 4.73633 3.71094 2.58789 0 4.24805-1.5625 4.24805-4.00391 0-0.830078-0.146484-1.61133-0.537109-2.63672l-22.9004-60.9863c-1.12305-2.97852-3.125-4.49219-6.25-4.49219-3.02734 0-5.07812 1.46484-6.15234 4.44336l-22.9004 61.084c-0.390625 1.02539-0.537109 1.80664-0.537109 2.63672 0 2.44141 1.5625 3.95508 4.10156 3.95508Zm13.4766-28.3691 11.8652-32.8613h0.244141l11.8652 32.8613Z"/>
  </g>
  <line style="fill:none;stroke:#00AEEF;stroke-width:0.5;opacity:1.0;" x1="792.836" x2="792.836" y1="1919" y2="1933"/>
  <text style="stroke:none;fill:black;font-family:sans-serif;font-size:13;font-weight:bold;" transform="matrix(1 0 0 1 776 1953)">Margins</text>
  <text style="stroke:none;fill:black;font-family:sans-serif;font-size:13;" transform="matrix(1 0 0 1 776 1971)">Leading and trailing margins on the left and right side of each symbol</text>
  <text style="stroke:none;fill:black;font-family:sans-serif;font-size:13;" transform="matrix(1 0 0 1 776 1989)">can be adjusted by modifying the x-location of the margin guidelines.</text>
  <text style="stroke:none;fill:black;font-family:sans-serif;font-size:13;" transform="matrix(1 0 0 1 776 2007)">Modifications are automatically applied proportionally to all</text>
  <text style="stroke:none;fill:black;font-family:sans-serif;font-size:13;" transform="matrix(1 0 0 1 776 2025)">scales and weights.</text>
  <g transform="matrix(0.2 0 0 0.2 1289 1933)">
   <path d="m14.209 9.32617 8.49609 8.54492c4.29688 4.3457 9.22852 4.05273 13.8672-1.07422l53.4668-58.9355-4.83398-4.88281-53.0762 58.3984c-1.75781 2.00195-3.41797 2.49023-5.76172 0.146484l-5.85938-5.81055c-2.34375-2.29492-1.80664-4.00391 0.195312-5.81055l57.373-54.0039-4.88281-4.83398-57.959 54.4434c-4.93164 4.58984-5.32227 9.47266-1.02539 13.8184Zm32.0801-90.9668c-2.09961 2.05078-2.24609 4.93164-1.07422 6.88477 1.17188 1.80664 3.4668 2.97852 6.68945 2.14844 7.32422-1.70898 14.9414-2.00195 22.0703 2.68555l-2.92969 7.27539c-1.70898 4.15039-0.830078 7.08008 1.85547 9.81445l11.4746 11.5723c2.44141 2.44141 4.49219 2.53906 7.32422 2.05078l5.32227-0.976562 3.32031 3.36914-0.195312 2.7832c-0.195312 2.49023 0.439453 4.39453 2.88086 6.78711l3.80859 3.71094c2.39258 2.39258 5.46875 2.53906 7.8125 0.195312l14.5508-14.5996c2.34375-2.34375 2.24609-5.32227-0.146484-7.71484l-3.85742-3.80859c-2.39258-2.39258-4.24805-3.17383-6.64062-2.97852l-2.88086 0.244141-3.22266-3.17383 1.2207-5.61523c0.634766-2.83203-0.146484-5.0293-3.07617-7.95898l-10.9863-10.9375c-16.6992-16.6016-38.8672-16.2109-53.3203-1.75781Zm7.4707 1.85547c12.1582-8.88672 28.6133-7.37305 39.7461 3.75977l12.1582 12.0605c1.17188 1.17188 1.36719 2.09961 1.02539 3.80859l-1.61133 7.42188 7.51953 7.42188 4.93164-0.292969c1.26953-0.0488281 1.66016 0.0488281 2.63672 1.02539l2.88086 2.88086-12.207 12.207-2.88086-2.88086c-0.976562-0.976562-1.12305-1.36719-1.07422-2.68555l0.341797-4.88281-7.4707-7.42188-7.61719 1.26953c-1.61133 0.341797-2.34375 0.195312-3.56445-0.976562l-10.0098-10.0098c-1.26953-1.17188-1.41602-2.00195-0.634766-3.85742l4.39453-10.4492c-7.8125-7.27539-17.9688-10.4004-28.125-7.42188-0.78125 0.195312-1.07422-0.439453-0.439453-0.976562Z"/>
  </g>
  <text style="stroke:none;fill:black;font-family:sans-serif;font-size:13;font-weight:bold;" transform="matrix(1 0 0 1 1289 1953)">Exporting</text>
  <text style="stroke:none;fill:black;font-family:sans-serif;font-size:13;" transform="matrix(1 0 0 1 1289 1971)">Symbols should be outlined when exporting to ensure the</text>
  <text style="stroke:none;fill:black;font-family:sans-serif;font-size:13;" transform="matrix(1 0 0 1 1289 1989)">design is preserved when submitting to Xcode.</text>
  <text id="template-version" style="stroke:none;fill:black;font-family:sans-serif;font-size:13;text-anchor:end;" transform="matrix(1 0 0 1 3036 1933)">Template v.5.0</text>
  <text style="stroke:none;fill:black;font-family:sans-serif;font-size:13;text-anchor:end;" transform="matrix(1 0 0 1 3036 1951)">Requires Xcode 15 or greater</text>
  <text id="descriptive-name" style="stroke:none;fill:black;font-family:sans-serif;font-size:13;text-anchor:end;" transform="matrix(1 0 0 1 3036 1969)">Generated from Asset 3-symbol</text>
  <text style="stroke:none;fill:black;font-family:sans-serif;font-size:13;text-anchor:end;" transform="matrix(1 0 0 1 3036 1987)">Typeset at 100.0 points</text>
  <text style="stroke:none;fill:black;font-family:sans-serif;font-size:13;" transform="matrix(1 0 0 1 263 726)">Small</text>
  <text style="stroke:none;fill:black;font-family:sans-serif;font-size:13;" transform="matrix(1 0 0 1 263 1156)">Medium</text>
  <text style="stroke:none;fill:black;font-family:sans-serif;font-size:13;" transform="matrix(1 0 0 1 263 1586)">Large</text>
 </g>
 <g id="Guides">
  <g id="H-reference" style="fill:#27AAE1;stroke:none;" transform="matrix(1 0 0 1 339 696)">
   <path d="M0.993654 0L3.63775 0L29.3281-67.1323L30.0303-67.1323L30.0303-70.459L28.1226-70.459ZM11.6885-24.4799L46.9815-24.4799L46.2315-26.7285L12.4385-26.7285ZM55.1196 0L57.7637 0L30.6382-70.459L29.4326-70.459L29.4326-67.1323Z"/>
  </g>
  <line id="Baseline-S" style="fill:none;stroke:#27AAE1;opacity:1;stroke-width:0.5;" x1="263" x2="3036" y1="696" y2="696"/>
  <line id="Capline-S" style="fill:none;stroke:#27AAE1;opacity:1;stroke-width:0.5;" x1="263" x2="3036" y1="625.541" y2="625.541"/>
  <g id="H-reference" style="fill:#27AAE1;stroke:none;" transform="matrix(1 0 0 1 339 1126)">
   <path d="M0.993654 0L3.63775 0L29.3281-67.1323L30.0303-67.1323L30.0303-70.459L28.1226-70.459ZM11.6885-24.4799L46.9815-24.4799L46.2315-26.7285L12.4385-26.7285ZM55.1196 0L57.7637 0L30.6382-70.459L29.4326-70.459L29.4326-67.1323Z"/>
  </g>
  <line id="Baseline-M" style="fill:none;stroke:#27AAE1;opacity:1;stroke-width:0.5;" x1="263" x2="3036" y1="1126" y2="1126"/>
  <line id="Capline-M" style="fill:none;stroke:#27AAE1;opacity:1;stroke-width:0.5;" x1="263" x2="3036" y1="1055.54" y2="1055.54"/>
  <g id="H-reference" style="fill:#27AAE1;stroke:none;" transform="matrix(1 0 0 1 339 1556)">
   <path d="M0.993654 0L3.63775 0L29.3281-67.1323L30.0303-67.1323L30.0303-70.459L28.1226-70.459ZM11.6885-24.4799L46.9815-24.4799L46.2315-26.7285L12.4385-26.7285ZM55.1196 0L57.7637 0L30.6382-70.459L29.4326-70.459L29.4326-67.1323Z"/>
  </g>
  <line id="Baseline-L" style="fill:none;stroke:#27AAE1;opacity:1;stroke-width:0.5;" x1="263" x2="3036" y1="1556" y2="1556"/>
  <line id="Capline-L" style="fill:none;stroke:#27AAE1;opacity:1;stroke-width:0.5;" x1="263" x2="3036" y1="1485.54" y2="1485.54"/>
  <line id="left-margin-Ultralight-S" style="fill:none;stroke:#00AEEF;stroke-width:0.5;opacity:1.0;" x1="514.42" x2="514.42" y1="600.785" y2="720.121"/>
  <line id="right-margin-Ultralight-S" style="fill:none;stroke:#00AEEF;stroke-width:0.5;opacity:1.0;" x1="605.002" x2="605.002" y1="600.785" y2="720.121"/>
  <line id="left-margin-Regular-S" style="fill:none;stroke:#00AEEF;stroke-width:0.5;opacity:1.0;" x1="1404.55" x2="1404.55" y1="600.785" y2="720.121"/>
  <line id="right-margin-Regular-S" style="fill:none;stroke:#00AEEF;stroke-width:0.5;opacity:1.0;" x1="1495.14" x2="1495.14" y1="600.785" y2="720.121"/>
  <line id="left-margin-Black-S" style="fill:none;stroke:#00AEEF;stroke-width:0.5;opacity:1.0;" x1="2888.11" x2="2888.11" y1="600.785" y2="720.121"/>
  <line id="right-margin-Black-S" style="fill:none;stroke:#00AEEF;stroke-width:0.5;opacity:1.0;" x1="2978.69" x2="2978.69" y1="600.785" y2="720.121"/>
 </g>
 <g id="Symbols">
  <g id="Black-S" transform="matrix(1.00656 0 0 1.00656 2888.11 696)">
   <path class="monochrome-9 multicolor-9:tintColor hierarchical-9:primary SFSymbolsPreviewWireframe" d="M33.95-70C34.984-69.681 36.069-69.472 37.044-69.017C42.656-66.403 44.682-59.588 41.401-54.352C36.899-47.158 32.363-39.989 27.81-32.829C27.456-32.271 27.465-31.871 27.733-31.297C31.201-23.839 34.656-16.372 38.095-8.897C39.882-5.015 37.746-0.898 33.554-0.09C33.222-0.026 32.878-0.021 32.537-0.021C25.797-0.021 19.056-0.021 12.316-0.021C10.848-0.021 10.048-0.83 10.044-2.303C10.044-3.784 10.039-5.266 10.044-6.743C10.056-9.91 12.069-12.358 15.176-12.988C16.865-13.328 18.558-13.665 20.367-14.026C20.214-14.299 20.099-14.529 19.963-14.746C17.048-19.416 14.107-24.068 11.227-28.76C9.746-31.177 9.614-33.761 10.784-36.337C15.014-45.672 19.244-55.003 23.567-64.296C25.01-67.403 27.605-69.191 30.967-69.851C31.142-69.885 31.312-69.949 31.486-70C32.307-70 33.124-70 33.946-70Z"/>
   <path class="monochrome-8 monochrome-9 multicolor-8:systemGrayColor multicolor-9:tintColor hierarchical-8:primary hierarchical-9:primary SFSymbolsPreviewWireframe" d="M23.72-54.782C21.622-50.189 19.576-45.706 17.499-41.16C21.056-41.262 23.661-39.823 25.495-36.852C28.171-41.096 30.797-45.251 33.469-49.486C29.18-49.41 25.993-51.155 23.72-54.782Z"/>
   <path class="monochrome-2 monochrome-9 multicolor-2:black multicolor-9:tintColor hierarchical-2:primary hierarchical-9:primary SFSymbolsPreviewWireframe" d="M32.797-53.598C36.056-53.59 38.895-56.459 38.865-59.728C38.835-63.095 36.107-65.901 32.754-65.875C29.265-65.845 26.639-63.232 26.597-59.724C26.554-56.352 29.401-53.607 32.801-53.598Z"/>
   <path class="monochrome-7 monochrome-9 multicolor-7:systemGrayColor multicolor-9:tintColor hierarchical-7:primary hierarchical-9:primary SFSymbolsPreviewWireframe" d="M31.941-12.4C29.554-17.56 27.167-22.719 24.741-27.955C23.129-25.967 21.09-24.962 18.571-24.728C21.661-19.786 24.695-14.937 27.716-10.11C28.405-10.63 28.988-11.187 29.673-11.558C30.358-11.928 31.146-12.111 31.937-12.396Z"/>
   <path class="monochrome-1 monochrome-9 multicolor-1:systemGrayColor multicolor-9:tintColor hierarchical-1:primary hierarchical-9:primary SFSymbolsPreviewWireframe" d="M14.201-4.172L26.571-4.172C25.333-6.147 24.15-8.058 22.941-9.948C22.848-10.097 22.571-10.255 22.414-10.225C20.188-9.799 17.963-9.365 15.75-8.876C14.886-8.684 14.282-8.097 14.214-7.177C14.146-6.19 14.197-5.189 14.197-4.168Z"/>
   <path class="monochrome-0 monochrome-9 multicolor-0:systemOrangeColor multicolor-9:tintColor hierarchical-0:primary hierarchical-9:primary SFSymbolsPreviewWireframe" d="M22.32-32.94C22.312-35.183 20.469-37.048 18.252-37.052C16.035-37.052 14.167-35.2 14.142-32.974C14.12-30.782 16.027-28.857 18.218-28.862C20.439-28.87 22.329-30.747 22.32-32.94ZM32.55-8.207C31.456-8.182 30.516-7.211 30.537-6.13C30.563-5.032 31.529-4.095 32.614-4.121C33.707-4.142 34.652-5.121 34.627-6.198C34.601-7.301 33.635-8.233 32.55-8.207Z"/>
   <path class="monochrome-9 multicolor-9:tintColor hierarchical-9:primary SFSymbolsPreviewWireframe" d="M79.992-1.52C79.482-0.392 78.622 0.008 77.38 0C70.822-0.043 64.265-0.017 57.707-0.021C53.869-0.021 51.141-2.801 51.333-6.624C51.376-7.501 51.716-8.403 52.086-9.216C55.473-16.61 58.895-23.992 62.324-31.365C62.567-31.888 62.571-32.263 62.244-32.774C57.661-39.993 53.086-47.222 48.554-54.475C44.729-60.597 48.563-68.808 55.695-69.868C55.822-69.889 55.946-69.953 56.073-70C56.848-70 57.622-70 58.397-70C58.55-69.957 58.699-69.902 58.852-69.877C61.75-69.383 64.158-68.021 65.716-65.518C66.788-63.793 67.605-61.899 68.427-60.03C72.21-51.385 76.567-42.994 79.988-34.187L79.988-31.863C79.665-30.032 78.69-28.504 77.72-26.967C75.167-22.915 72.631-18.845 70.09-14.784C69.95-14.563 69.827-14.333 69.652-14.035C71.435-13.677 73.116-13.333 74.797-13.001C76.626-12.639 78.099-11.724 79.056-10.11C79.452-9.442 79.678-8.671 79.984-7.948L79.984-1.524Z"/>
   <path class="monochrome-6 monochrome-9 multicolor-6:systemGrayColor multicolor-9:tintColor hierarchical-6:primary hierarchical-9:primary SFSymbolsPreviewWireframe" d="M56.558-49.486C59.244-45.234 61.865-41.075 64.537-36.843C66.38-39.861 69.027-41.266 72.524-41.168C70.431-45.749 68.384-50.223 66.303-54.777C64.022-51.142 60.848-49.422 56.558-49.482Z"/>
   <path class="monochrome-3 monochrome-9 multicolor-3:black multicolor-9:tintColor hierarchical-3:primary hierarchical-9:primary SFSymbolsPreviewWireframe" d="M51.171-59.847C51.227-56.663 53.41-53.752 57.192-53.632C60.337-53.534 63.299-55.833 63.422-59.613C63.529-62.857 61.137-65.777 57.397-65.862C54.154-65.935 51.384-63.547 51.171-59.847Z"/>
   <path class="monochrome-4 monochrome-9 multicolor-4:systemGrayColor multicolor-9:tintColor hierarchical-4:primary hierarchical-9:primary SFSymbolsPreviewWireframe" d="M62.316-10.11C65.358-14.972 68.388-19.82 71.461-24.737C68.899-24.954 66.886-26.01 65.282-27.942C62.856-22.698 60.469-17.547 58.09-12.4C58.882-12.115 59.669-11.932 60.354-11.562C61.039-11.191 61.627-10.634 62.316-10.11Z"/>
   <path class="monochrome-5 monochrome-9 multicolor-5:systemGrayColor multicolor-9:tintColor hierarchical-5:primary hierarchical-9:primary SFSymbolsPreviewWireframe" d="M63.452-4.159L75.899-4.159C75.899-4.998 75.907-5.789 75.899-6.581C75.882-7.935 75.333-8.65 74.009-8.931C71.903-9.382 69.792-9.799 67.678-10.208C67.512-10.242 67.218-10.131 67.129-9.995C65.907-8.084 64.707-6.16 63.456-4.159Z"/>
   <path class="monochrome-0 monochrome-9 multicolor-0:systemOrangeColor multicolor-9:tintColor hierarchical-0:primary hierarchical-9:primary SFSymbolsPreviewWireframe" d="M71.814-37.052C69.609-37.069 67.724-35.2 67.703-32.974C67.682-30.777 69.563-28.879 71.78-28.862C73.992-28.845 75.835-30.675 75.886-32.94C75.937-35.115 74.031-37.035 71.814-37.052ZM59.49-6.19C59.469-7.292 58.499-8.237 57.41-8.212C56.307-8.186 55.367-7.198 55.405-6.113C55.444-5.01 56.431-4.078 57.516-4.121C58.563-4.163 59.507-5.151 59.49-6.185ZM32.72-61.793C33.878-61.793 34.78-60.873 34.767-59.711C34.754-58.587 33.852-57.698 32.72-57.698C31.563-57.698 30.661-58.617 30.673-59.779C30.686-60.903 31.588-61.793 32.72-61.793ZM59.358-59.775C59.371-58.617 58.461-57.702 57.303-57.702C56.175-57.702 55.278-58.596 55.265-59.724C55.252-60.882 56.163-61.797 57.32-61.797C58.448-61.797 59.346-60.903 59.358-59.775Z"/>
  </g>
  <g id="Regular-S" transform="matrix(1.00656 0 0 1.00656 1404.55 696)">
   <path class="monochrome-9 multicolor-9:tintColor hierarchical-9:primary SFSymbolsPreviewWireframe" d="M33.95-70C34.984-69.681 36.069-69.472 37.044-69.017C42.656-66.403 44.682-59.588 41.401-54.352C36.899-47.158 32.363-39.989 27.81-32.829C27.456-32.271 27.465-31.871 27.733-31.297C31.201-23.839 34.656-16.372 38.095-8.897C39.882-5.015 37.746-0.898 33.554-0.09C33.222-0.026 32.878-0.021 32.537-0.021C25.797-0.021 19.056-0.021 12.316-0.021C10.848-0.021 10.048-0.83 10.044-2.303C10.044-3.784 10.039-5.266 10.044-6.743C10.056-9.91 12.069-12.358 15.176-12.988C16.865-13.328 18.559-13.665 20.367-14.026C20.214-14.299 20.099-14.529 19.963-14.746C17.048-19.416 14.107-24.068 11.227-28.76C9.746-31.177 9.614-33.761 10.784-36.337C15.014-45.672 19.244-55.003 23.567-64.296C25.01-67.403 27.605-69.191 30.967-69.851C31.141-69.885 31.312-69.949 31.486-70C32.307-70 33.124-70 33.946-70Z"/>
   <path class="monochrome-8 monochrome-9 multicolor-8:systemGrayColor multicolor-9:tintColor hierarchical-8:primary hierarchical-9:primary SFSymbolsPreviewWireframe" d="M23.72-54.782C21.622-50.189 19.576-45.706 17.499-41.16C21.056-41.262 23.661-39.823 25.495-36.852C28.171-41.096 30.797-45.251 33.469-49.486C29.18-49.41 25.993-51.155 23.72-54.782Z"/>
   <path class="monochrome-2 monochrome-9 multicolor-2:black multicolor-9:tintColor hierarchical-2:primary hierarchical-9:primary SFSymbolsPreviewWireframe" d="M32.797-53.598C36.056-53.59 38.895-56.459 38.865-59.728C38.835-63.095 36.107-65.901 32.754-65.875C29.265-65.845 26.639-63.232 26.597-59.724C26.554-56.352 29.401-53.607 32.801-53.598Z"/>
   <path class="monochrome-7 monochrome-9 multicolor-7:systemGrayColor multicolor-9:tintColor hierarchical-7:primary hierarchical-9:primary SFSymbolsPreviewWireframe" d="M31.941-12.4C29.554-17.56 27.167-22.719 24.741-27.955C23.129-25.967 21.09-24.962 18.571-24.728C21.661-19.786 24.695-14.937 27.716-10.11C28.405-10.63 28.988-11.187 29.673-11.558C30.358-11.928 31.146-12.111 31.937-12.396Z"/>
   <path class="monochrome-1 monochrome-9 multicolor-1:systemGrayColor multicolor-9:tintColor hierarchical-1:primary hierarchical-9:primary SFSymbolsPreviewWireframe" d="M14.201-4.172L26.571-4.172C25.333-6.147 24.15-8.058 22.941-9.948C22.848-10.097 22.571-10.255 22.414-10.225C20.188-9.799 17.963-9.365 15.75-8.876C14.886-8.684 14.282-8.097 14.214-7.177C14.146-6.19 14.197-5.189 14.197-4.168Z"/>
   <path class="monochrome-0 monochrome-9 multicolor-0:systemOrangeColor multicolor-9:tintColor hierarchical-0:primary hierarchical-9:primary SFSymbolsPreviewWireframe" d="M22.32-32.94C22.312-35.183 20.469-37.048 18.252-37.052C16.035-37.052 14.167-35.2 14.142-32.974C14.12-30.782 16.027-28.857 18.218-28.862C20.439-28.87 22.329-30.747 22.32-32.94ZM32.55-8.207C31.456-8.182 30.516-7.211 30.537-6.13C30.563-5.032 31.529-4.095 32.614-4.121C33.707-4.142 34.652-5.121 34.627-6.198C34.601-7.301 33.635-8.233 32.55-8.207Z"/>
   <path class="monochrome-9 multicolor-9:tintColor hierarchical-9:primary SFSymbolsPreviewWireframe" d="M79.992-1.52C79.482-0.392 78.622 0.008 77.38 0C70.822-0.043 64.265-0.017 57.707-0.021C53.869-0.021 51.141-2.801 51.333-6.624C51.375-7.501 51.716-8.403 52.086-9.216C55.473-16.61 58.895-23.992 62.324-31.365C62.567-31.888 62.571-32.263 62.244-32.774C57.661-39.993 53.086-47.222 48.554-54.475C44.729-60.597 48.563-68.808 55.695-69.868C55.822-69.889 55.946-69.953 56.073-70C56.848-70 57.622-70 58.397-70C58.55-69.957 58.699-69.902 58.852-69.877C61.75-69.383 64.158-68.021 65.716-65.518C66.788-63.793 67.605-61.899 68.427-60.03C72.209-51.385 76.567-42.994 79.988-34.187L79.988-31.863C79.665-30.032 78.69-28.504 77.72-26.967C75.167-22.915 72.631-18.845 70.09-14.784C69.95-14.563 69.827-14.333 69.652-14.035C71.435-13.677 73.116-13.333 74.797-13.001C76.626-12.639 78.099-11.724 79.056-10.11C79.452-9.442 79.678-8.671 79.984-7.948L79.984-1.524Z"/>
   <path class="monochrome-6 monochrome-9 multicolor-6:systemGrayColor multicolor-9:tintColor hierarchical-6:primary hierarchical-9:primary SFSymbolsPreviewWireframe" d="M56.558-49.486C59.244-45.234 61.865-41.075 64.537-36.843C66.38-39.861 69.027-41.266 72.524-41.168C70.431-45.749 68.384-50.223 66.303-54.777C64.022-51.142 60.848-49.422 56.558-49.482Z"/>
   <path class="monochrome-3 monochrome-9 multicolor-3:black multicolor-9:tintColor hierarchical-3:primary hierarchical-9:primary SFSymbolsPreviewWireframe" d="M51.171-59.847C51.227-56.663 53.41-53.752 57.193-53.632C60.337-53.534 63.299-55.833 63.422-59.613C63.529-62.857 61.137-65.777 57.397-65.862C54.154-65.935 51.384-63.547 51.171-59.847Z"/>
   <path class="monochrome-4 monochrome-9 multicolor-4:systemGrayColor multicolor-9:tintColor hierarchical-4:primary hierarchical-9:primary SFSymbolsPreviewWireframe" d="M62.316-10.11C65.358-14.972 68.388-19.82 71.461-24.737C68.899-24.954 66.886-26.01 65.282-27.942C62.856-22.698 60.469-17.547 58.09-12.4C58.882-12.115 59.669-11.932 60.354-11.562C61.039-11.191 61.627-10.634 62.316-10.11Z"/>
   <path class="monochrome-5 monochrome-9 multicolor-5:systemGrayColor multicolor-9:tintColor hierarchical-5:primary hierarchical-9:primary SFSymbolsPreviewWireframe" d="M63.452-4.159L75.899-4.159C75.899-4.998 75.907-5.789 75.899-6.581C75.882-7.935 75.333-8.65 74.009-8.931C71.903-9.382 69.792-9.799 67.678-10.208C67.512-10.242 67.218-10.131 67.129-9.995C65.907-8.084 64.707-6.16 63.456-4.159Z"/>
   <path class="monochrome-0 monochrome-9 multicolor-0:systemOrangeColor multicolor-9:tintColor hierarchical-0:primary hierarchical-9:primary SFSymbolsPreviewWireframe" d="M71.814-37.052C69.609-37.069 67.724-35.2 67.703-32.974C67.682-30.777 69.563-28.879 71.78-28.862C73.992-28.845 75.835-30.675 75.886-32.94C75.937-35.115 74.031-37.035 71.814-37.052ZM59.49-6.19C59.469-7.292 58.499-8.237 57.41-8.212C56.307-8.186 55.367-7.198 55.405-6.113C55.444-5.01 56.431-4.078 57.516-4.121C58.563-4.163 59.507-5.151 59.49-6.185ZM32.72-61.793C33.878-61.793 34.78-60.873 34.767-59.711C34.754-58.587 33.852-57.698 32.72-57.698C31.563-57.698 30.661-58.617 30.673-59.779C30.686-60.903 31.588-61.793 32.72-61.793ZM59.358-59.775C59.371-58.617 58.461-57.702 57.303-57.702C56.175-57.702 55.278-58.596 55.265-59.724C55.252-60.882 56.163-61.797 57.32-61.797C58.448-61.797 59.346-60.903 59.358-59.775Z"/>
  </g>
  <g id="Ultralight-S" transform="matrix(1.00656 0 0 1.00656 514.42 696)">
   <path class="monochrome-9 multicolor-9:tintColor hierarchical-9:primary SFSymbolsPreviewWireframe" d="M33.95-70C34.984-69.681 36.069-69.472 37.044-69.017C42.656-66.403 44.682-59.588 41.401-54.352C36.899-47.158 32.363-39.989 27.81-32.829C27.456-32.271 27.465-31.871 27.733-31.297C31.201-23.839 34.656-16.372 38.095-8.897C39.882-5.015 37.746-0.898 33.554-0.09C33.222-0.026 32.878-0.021 32.537-0.021C25.797-0.021 19.056-0.021 12.316-0.021C10.848-0.021 10.048-0.83 10.044-2.303C10.044-3.784 10.039-5.266 10.044-6.743C10.056-9.91 12.069-12.358 15.176-12.988C16.865-13.328 18.559-13.665 20.367-14.026C20.214-14.299 20.099-14.529 19.963-14.746C17.048-19.416 14.107-24.068 11.227-28.76C9.746-31.177 9.614-33.761 10.784-36.337C15.014-45.672 19.244-55.003 23.567-64.296C25.01-67.403 27.605-69.191 30.967-69.851C31.141-69.885 31.312-69.949 31.486-70C32.307-70 33.124-70 33.946-70Z"/>
   <path class="monochrome-8 monochrome-9 multicolor-8:systemGrayColor multicolor-9:tintColor hierarchical-8:primary hierarchical-9:primary SFSymbolsPreviewWireframe" d="M23.72-54.782C21.622-50.189 19.576-45.706 17.499-41.16C21.056-41.262 23.661-39.823 25.495-36.852C28.171-41.096 30.797-45.251 33.469-49.486C29.18-49.41 25.993-51.155 23.72-54.782Z"/>
   <path class="monochrome-2 monochrome-9 multicolor-2:black multicolor-9:tintColor hierarchical-2:primary hierarchical-9:primary SFSymbolsPreviewWireframe" d="M32.797-53.598C36.056-53.59 38.895-56.459 38.865-59.728C38.835-63.095 36.107-65.901 32.754-65.875C29.265-65.845 26.639-63.232 26.597-59.724C26.554-56.352 29.401-53.607 32.801-53.598Z"/>
   <path class="monochrome-7 monochrome-9 multicolor-7:systemGrayColor multicolor-9:tintColor hierarchical-7:primary hierarchical-9:primary SFSymbolsPreviewWireframe" d="M31.941-12.4C29.554-17.56 27.167-22.719 24.741-27.955C23.129-25.967 21.09-24.962 18.571-24.728C21.661-19.786 24.695-14.937 27.716-10.11C28.405-10.63 28.988-11.187 29.673-11.558C30.359-11.928 31.146-12.111 31.937-12.396Z"/>
   <path class="monochrome-1 monochrome-9 multicolor-1:systemGrayColor multicolor-9:tintColor hierarchical-1:primary hierarchical-9:primary SFSymbolsPreviewWireframe" d="M14.201-4.172L26.571-4.172C25.333-6.147 24.15-8.058 22.942-9.948C22.848-10.097 22.571-10.255 22.414-10.225C20.188-9.799 17.963-9.365 15.75-8.876C14.886-8.684 14.282-8.097 14.214-7.177C14.146-6.19 14.197-5.189 14.197-4.168Z"/>
   <path class="monochrome-0 monochrome-9 multicolor-0:systemOrangeColor multicolor-9:tintColor hierarchical-0:primary hierarchical-9:primary SFSymbolsPreviewWireframe" d="M22.32-32.94C22.312-35.183 20.469-37.048 18.252-37.052C16.035-37.052 14.167-35.2 14.142-32.974C14.12-30.782 16.027-28.857 18.218-28.862C20.439-28.87 22.329-30.747 22.32-32.94ZM32.55-8.207C31.456-8.182 30.516-7.211 30.537-6.13C30.563-5.032 31.529-4.095 32.614-4.121C33.707-4.142 34.652-5.121 34.627-6.198C34.601-7.301 33.635-8.233 32.55-8.207Z"/>
   <path class="monochrome-9 multicolor-9:tintColor hierarchical-9:primary SFSymbolsPreviewWireframe" d="M79.992-1.52C79.482-0.392 78.622 0.008 77.38 0C70.822-0.043 64.265-0.017 57.707-0.021C53.869-0.021 51.141-2.801 51.333-6.624C51.376-7.501 51.716-8.403 52.086-9.216C55.473-16.61 58.895-23.992 62.324-31.365C62.567-31.888 62.571-32.263 62.244-32.774C57.661-39.993 53.086-47.222 48.554-54.475C44.729-60.597 48.563-68.808 55.695-69.868C55.822-69.889 55.946-69.953 56.073-70C56.848-70 57.622-70 58.397-70C58.55-69.957 58.699-69.902 58.852-69.877C61.75-69.383 64.158-68.021 65.716-65.518C66.788-63.793 67.605-61.899 68.427-60.03C72.21-51.385 76.567-42.994 79.988-34.187L79.988-31.863C79.665-30.032 78.69-28.504 77.72-26.967C75.167-22.915 72.631-18.845 70.09-14.784C69.95-14.563 69.827-14.333 69.652-14.035C71.435-13.677 73.116-13.333 74.797-13.001C76.626-12.639 78.099-11.724 79.056-10.11C79.452-9.442 79.678-8.671 79.984-7.948L79.984-1.524Z"/>
   <path class="monochrome-6 monochrome-9 multicolor-6:systemGrayColor multicolor-9:tintColor hierarchical-6:primary hierarchical-9:primary SFSymbolsPreviewWireframe" d="M56.558-49.486C59.244-45.234 61.865-41.075 64.537-36.843C66.38-39.861 69.027-41.266 72.524-41.168C70.431-45.749 68.384-50.223 66.303-54.777C64.022-51.142 60.848-49.422 56.558-49.482Z"/>
   <path class="monochrome-3 monochrome-9 multicolor-3:black multicolor-9:tintColor hierarchical-3:primary hierarchical-9:primary SFSymbolsPreviewWireframe" d="M51.171-59.847C51.227-56.663 53.41-53.752 57.193-53.632C60.337-53.534 63.299-55.833 63.422-59.613C63.529-62.857 61.137-65.777 57.397-65.862C54.154-65.935 51.384-63.547 51.171-59.847Z"/>
   <path class="monochrome-4 monochrome-9 multicolor-4:systemGrayColor multicolor-9:tintColor hierarchical-4:primary hierarchical-9:primary SFSymbolsPreviewWireframe" d="M62.316-10.11C65.358-14.972 68.388-19.82 71.461-24.737C68.899-24.954 66.886-26.01 65.282-27.942C62.856-22.698 60.469-17.547 58.09-12.4C58.882-12.115 59.669-11.932 60.354-11.562C61.039-11.191 61.627-10.634 62.316-10.11Z"/>
   <path class="monochrome-5 monochrome-9 multicolor-5:systemGrayColor multicolor-9:tintColor hierarchical-5:primary hierarchical-9:primary SFSymbolsPreviewWireframe" d="M63.452-4.159L75.899-4.159C75.899-4.998 75.907-5.789 75.899-6.581C75.882-7.935 75.333-8.65 74.009-8.931C71.903-9.382 69.792-9.799 67.678-10.208C67.512-10.242 67.218-10.131 67.129-9.995C65.907-8.084 64.707-6.16 63.456-4.159Z"/>
   <path class="monochrome-0 monochrome-9 multicolor-0:systemOrangeColor multicolor-9:tintColor hierarchical-0:primary hierarchical-9:primary SFSymbolsPreviewWireframe" d="M71.814-37.052C69.609-37.069 67.724-35.2 67.703-32.974C67.682-30.777 69.563-28.879 71.78-28.862C73.992-28.845 75.835-30.675 75.886-32.94C75.937-35.115 74.031-37.035 71.814-37.052ZM59.49-6.19C59.469-7.292 58.499-8.237 57.41-8.212C56.307-8.186 55.367-7.198 55.405-6.113C55.444-5.01 56.431-4.078 57.516-4.121C58.563-4.163 59.507-5.151 59.49-6.185ZM32.72-61.793C33.878-61.793 34.78-60.873 34.767-59.711C34.754-58.587 33.852-57.698 32.72-57.698C31.563-57.698 30.661-58.617 30.673-59.779C30.686-60.903 31.588-61.793 32.72-61.793ZM59.358-59.775C59.371-58.617 58.461-57.702 57.303-57.702C56.176-57.702 55.278-58.596 55.265-59.724C55.252-60.882 56.163-61.797 57.32-61.797C58.448-61.797 59.346-60.903 59.358-59.775Z"/>
  </g>
 </g>
</svg>
