<?xml version="1.0" encoding="UTF-8"?>
<!--Generator: Apple Native CoreSVG 232.5-->
<!DOCTYPE svg
PUBLIC "-//W3C//DTD SVG 1.1//EN"
       "http://www.w3.org/Graphics/SVG/1.1/DTD/svg11.dtd">
<svg version="1.1" xmlns="http://www.w3.org/2000/svg" xmlns:xlink="http://www.w3.org/1999/xlink" width="3300" height="2200">
 <!--glyph: "", point size: 100.0, font version: "19.0d7e1", template writer version: "128"-->
 <style>.monochrome-0 {-sfsymbols-variable-threshold:0.0;-sfsymbols-motion-group:2;-sfsymbols-always-pulses:true}
.monochrome-1 {-sfsymbols-variable-threshold:0.26;-sfsymbols-motion-group:2;-sfsymbols-always-pulses:true}
.monochrome-2 {-sfsymbols-variable-threshold:0.51;-sfsymbols-motion-group:2;-sfsymbols-always-pulses:true}
.monochrome-3 {-sfsymbols-variable-threshold:0.76;-sfsymbols-motion-group:2;-sfsymbols-always-pulses:true}
.monochrome-4 {-sfsymbols-motion-group:1}
.monochrome-5 {-sfsymbols-motion-group:0}

.multicolor-0:systemGreenColor {-sfsymbols-variable-threshold:0.0;-sfsymbols-motion-group:2;-sfsymbols-always-pulses:true}
.multicolor-1:systemPurpleColor {-sfsymbols-variable-threshold:0.26;-sfsymbols-motion-group:2;-sfsymbols-always-pulses:true}
.multicolor-2:systemPinkColor {-sfsymbols-variable-threshold:0.51;-sfsymbols-motion-group:2;-sfsymbols-always-pulses:true}
.multicolor-3:systemGrayColor {-sfsymbols-variable-threshold:0.76;-sfsymbols-motion-group:2;-sfsymbols-always-pulses:true}
.multicolor-4:tintColor {-sfsymbols-motion-group:1}
.multicolor-5:tintColor {-sfsymbols-motion-group:0}

.hierarchical-0:primary {-sfsymbols-variable-threshold:0.0;-sfsymbols-motion-group:2}
.hierarchical-1:primary {-sfsymbols-variable-threshold:0.26;-sfsymbols-motion-group:2}
.hierarchical-2:primary {-sfsymbols-variable-threshold:0.51;-sfsymbols-motion-group:2}
.hierarchical-3:primary {-sfsymbols-variable-threshold:0.76;-sfsymbols-motion-group:2}
.hierarchical-4:primary {-sfsymbols-motion-group:1}
.hierarchical-5:primary {-sfsymbols-motion-group:0}

.SFSymbolsPreviewWireframe {fill:none;opacity:1.0;stroke:black;stroke-width:0.5}
</style>
 <g id="Notes">
  <rect height="2200" id="artboard" style="fill:white;opacity:1" width="3300" x="0" y="0"/>
  <line style="fill:none;stroke:black;opacity:1;stroke-width:0.5;" x1="263" x2="3036" y1="292" y2="292"/>
  <text style="stroke:none;fill:black;font-family:sans-serif;font-size:13;font-weight:bold;" transform="matrix(1 0 0 1 263 322)">Weight/Scale Variations</text>
  <text style="stroke:none;fill:black;font-family:sans-serif;font-size:13;text-anchor:middle;" transform="matrix(1 0 0 1 559.711 322)">Ultralight</text>
  <text style="stroke:none;fill:black;font-family:sans-serif;font-size:13;text-anchor:middle;" transform="matrix(1 0 0 1 856.422 322)">Thin</text>
  <text style="stroke:none;fill:black;font-family:sans-serif;font-size:13;text-anchor:middle;" transform="matrix(1 0 0 1 1153.13 322)">Light</text>
  <text style="stroke:none;fill:black;font-family:sans-serif;font-size:13;text-anchor:middle;" transform="matrix(1 0 0 1 1449.84 322)">Regular</text>
  <text style="stroke:none;fill:black;font-family:sans-serif;font-size:13;text-anchor:middle;" transform="matrix(1 0 0 1 1746.56 322)">Medium</text>
  <text style="stroke:none;fill:black;font-family:sans-serif;font-size:13;text-anchor:middle;" transform="matrix(1 0 0 1 2043.27 322)">Semibold</text>
  <text style="stroke:none;fill:black;font-family:sans-serif;font-size:13;text-anchor:middle;" transform="matrix(1 0 0 1 2339.98 322)">Bold</text>
  <text style="stroke:none;fill:black;font-family:sans-serif;font-size:13;text-anchor:middle;" transform="matrix(1 0 0 1 2636.69 322)">Heavy</text>
  <text style="stroke:none;fill:black;font-family:sans-serif;font-size:13;text-anchor:middle;" transform="matrix(1 0 0 1 2933.4 322)">Black</text>
  <line style="fill:none;stroke:black;opacity:1;stroke-width:0.5;" x1="263" x2="3036" y1="1903" y2="1903"/>
  <g transform="matrix(0.2 0 0 0.2 263 1933)">
   <path d="m46.2402 4.15039c21.5332 0 39.4531-17.8711 39.4531-39.4043s-17.9688-39.4043-39.502-39.4043c-21.4844 0-39.3555 17.8711-39.3555 39.4043s17.9199 39.4043 39.4043 39.4043Zm0-7.42188c-17.7246 0-31.8848-14.209-31.8848-31.9824s14.1113-31.9824 31.8359-31.9824c17.7734 0 32.0312 14.209 32.0312 31.9824s-14.209 31.9824-31.9824 31.9824Zm-17.9688-31.9824c0 2.14844 1.51367 3.61328 3.75977 3.61328h10.498v10.5957c0 2.19727 1.46484 3.71094 3.61328 3.71094 2.24609 0 3.71094-1.51367 3.71094-3.71094v-10.5957h10.5957c2.19727 0 3.71094-1.46484 3.71094-3.61328 0-2.19727-1.51367-3.71094-3.71094-3.71094h-10.5957v-10.5469c0-2.24609-1.46484-3.75977-3.71094-3.75977-2.14844 0-3.61328 1.51367-3.61328 3.75977v10.5469h-10.498c-2.24609 0-3.75977 1.51367-3.75977 3.71094Z"/>
  </g>
  <g transform="matrix(0.2 0 0 0.2 281.506 1933)">
   <path d="m58.5449 14.5508c27.2461 0 49.8047-22.6074 49.8047-49.8047 0-27.2461-22.6074-49.8047-49.8535-49.8047-27.1973 0-49.7559 22.5586-49.7559 49.8047 0 27.1973 22.6074 49.8047 49.8047 49.8047Zm0-8.30078c-23.0469 0-41.4551-18.457-41.4551-41.5039s18.3594-41.5039 41.4062-41.5039 41.5527 18.457 41.5527 41.5039-18.457 41.5039-41.5039 41.5039Zm-22.6562-41.5039c0 2.39258 1.66016 4.00391 4.15039 4.00391h14.3555v14.4043c0 2.44141 1.66016 4.15039 4.05273 4.15039 2.44141 0 4.15039-1.66016 4.15039-4.15039v-14.4043h14.4043c2.44141 0 4.15039-1.61133 4.15039-4.00391 0-2.44141-1.70898-4.15039-4.15039-4.15039h-14.4043v-14.3555c0-2.49023-1.70898-4.19922-4.15039-4.19922-2.39258 0-4.05273 1.70898-4.05273 4.19922v14.3555h-14.3555c-2.49023 0-4.15039 1.70898-4.15039 4.15039Z"/>
  </g>
  <g transform="matrix(0.2 0 0 0.2 304.924 1933)">
   <path d="m74.8535 28.3203c34.8145 0 63.623-28.8086 63.623-63.5742 0-34.8145-28.8574-63.623-63.6719-63.623-34.7656 0-63.5254 28.8086-63.5254 63.623 0 34.7656 28.8086 63.5742 63.5742 63.5742Zm0-9.08203c-30.1758 0-54.4434-24.3164-54.4434-54.4922 0-30.2246 24.2188-54.4922 54.3945-54.4922 30.2246 0 54.541 24.2676 54.541 54.4922 0 30.1758-24.2676 54.4922-54.4922 54.4922Zm-28.8574-54.4922c0 2.58789 1.85547 4.39453 4.58984 4.39453h19.7266v19.7754c0 2.68555 1.85547 4.58984 4.44336 4.58984 2.68555 0 4.54102-1.85547 4.54102-4.58984v-19.7754h19.7754c2.68555 0 4.58984-1.80664 4.58984-4.39453 0-2.73438-1.85547-4.58984-4.58984-4.58984h-19.7754v-19.7266c0-2.73438-1.85547-4.63867-4.54102-4.63867-2.58789 0-4.44336 1.9043-4.44336 4.63867v19.7266h-19.7266c-2.73438 0-4.58984 1.85547-4.58984 4.58984Z"/>
  </g>
  <text style="stroke:none;fill:black;font-family:sans-serif;font-size:13;font-weight:bold;" transform="matrix(1 0 0 1 263 1953)">Design Variations</text>
  <text style="stroke:none;fill:black;font-family:sans-serif;font-size:13;" transform="matrix(1 0 0 1 263 1971)">Symbols are supported in up to nine weights and three scales.</text>
  <text style="stroke:none;fill:black;font-family:sans-serif;font-size:13;" transform="matrix(1 0 0 1 263 1989)">For optimal layout with text and other symbols, vertically align</text>
  <text style="stroke:none;fill:black;font-family:sans-serif;font-size:13;" transform="matrix(1 0 0 1 263 2007)">symbols with the adjacent text.</text>
  <line style="fill:none;stroke:#00AEEF;stroke-width:0.5;opacity:1.0;" x1="776" x2="776" y1="1919" y2="1933"/>
  <g transform="matrix(0.2 0 0 0.2 776 1933)">
   <path d="m16.5527 0.78125c2.58789 0 3.85742-0.976562 4.78516-3.71094l6.29883-17.2363h28.8086l6.29883 17.2363c0.927734 2.73438 2.19727 3.71094 4.73633 3.71094 2.58789 0 4.24805-1.5625 4.24805-4.00391 0-0.830078-0.146484-1.61133-0.537109-2.63672l-22.9004-60.9863c-1.12305-2.97852-3.125-4.49219-6.25-4.49219-3.02734 0-5.07812 1.46484-6.15234 4.44336l-22.9004 61.084c-0.390625 1.02539-0.537109 1.80664-0.537109 2.63672 0 2.44141 1.5625 3.95508 4.10156 3.95508Zm13.4766-28.3691 11.8652-32.8613h0.244141l11.8652 32.8613Z"/>
  </g>
  <line style="fill:none;stroke:#00AEEF;stroke-width:0.5;opacity:1.0;" x1="792.836" x2="792.836" y1="1919" y2="1933"/>
  <text style="stroke:none;fill:black;font-family:sans-serif;font-size:13;font-weight:bold;" transform="matrix(1 0 0 1 776 1953)">Margins</text>
  <text style="stroke:none;fill:black;font-family:sans-serif;font-size:13;" transform="matrix(1 0 0 1 776 1971)">Leading and trailing margins on the left and right side of each symbol</text>
  <text style="stroke:none;fill:black;font-family:sans-serif;font-size:13;" transform="matrix(1 0 0 1 776 1989)">can be adjusted by modifying the x-location of the margin guidelines.</text>
  <text style="stroke:none;fill:black;font-family:sans-serif;font-size:13;" transform="matrix(1 0 0 1 776 2007)">Modifications are automatically applied proportionally to all</text>
  <text style="stroke:none;fill:black;font-family:sans-serif;font-size:13;" transform="matrix(1 0 0 1 776 2025)">scales and weights.</text>
  <g transform="matrix(0.2 0 0 0.2 1289 1933)">
   <path d="m14.209 9.32617 8.49609 8.54492c4.29688 4.3457 9.22852 4.05273 13.8672-1.07422l53.4668-58.9355-4.83398-4.88281-53.0762 58.3984c-1.75781 2.00195-3.41797 2.49023-5.76172 0.146484l-5.85938-5.81055c-2.34375-2.29492-1.80664-4.00391 0.195312-5.81055l57.373-54.0039-4.88281-4.83398-57.959 54.4434c-4.93164 4.58984-5.32227 9.47266-1.02539 13.8184Zm32.0801-90.9668c-2.09961 2.05078-2.24609 4.93164-1.07422 6.88477 1.17188 1.80664 3.4668 2.97852 6.68945 2.14844 7.32422-1.70898 14.9414-2.00195 22.0703 2.68555l-2.92969 7.27539c-1.70898 4.15039-0.830078 7.08008 1.85547 9.81445l11.4746 11.5723c2.44141 2.44141 4.49219 2.53906 7.32422 2.05078l5.32227-0.976562 3.32031 3.36914-0.195312 2.7832c-0.195312 2.49023 0.439453 4.39453 2.88086 6.78711l3.80859 3.71094c2.39258 2.39258 5.46875 2.53906 7.8125 0.195312l14.5508-14.5996c2.34375-2.34375 2.24609-5.32227-0.146484-7.71484l-3.85742-3.80859c-2.39258-2.39258-4.24805-3.17383-6.64062-2.97852l-2.88086 0.244141-3.22266-3.17383 1.2207-5.61523c0.634766-2.83203-0.146484-5.0293-3.07617-7.95898l-10.9863-10.9375c-16.6992-16.6016-38.8672-16.2109-53.3203-1.75781Zm7.4707 1.85547c12.1582-8.88672 28.6133-7.37305 39.7461 3.75977l12.1582 12.0605c1.17188 1.17188 1.36719 2.09961 1.02539 3.80859l-1.61133 7.42188 7.51953 7.42188 4.93164-0.292969c1.26953-0.0488281 1.66016 0.0488281 2.63672 1.02539l2.88086 2.88086-12.207 12.207-2.88086-2.88086c-0.976562-0.976562-1.12305-1.36719-1.07422-2.68555l0.341797-4.88281-7.4707-7.42188-7.61719 1.26953c-1.61133 0.341797-2.34375 0.195312-3.56445-0.976562l-10.0098-10.0098c-1.26953-1.17188-1.41602-2.00195-0.634766-3.85742l4.39453-10.4492c-7.8125-7.27539-17.9688-10.4004-28.125-7.42188-0.78125 0.195312-1.07422-0.439453-0.439453-0.976562Z"/>
  </g>
  <text style="stroke:none;fill:black;font-family:sans-serif;font-size:13;font-weight:bold;" transform="matrix(1 0 0 1 1289 1953)">Exporting</text>
  <text style="stroke:none;fill:black;font-family:sans-serif;font-size:13;" transform="matrix(1 0 0 1 1289 1971)">Symbols should be outlined when exporting to ensure the</text>
  <text style="stroke:none;fill:black;font-family:sans-serif;font-size:13;" transform="matrix(1 0 0 1 1289 1989)">design is preserved when submitting to Xcode.</text>
  <text id="template-version" style="stroke:none;fill:black;font-family:sans-serif;font-size:13;text-anchor:end;" transform="matrix(1 0 0 1 3036 1933)">Template v.5.0</text>
  <text style="stroke:none;fill:black;font-family:sans-serif;font-size:13;text-anchor:end;" transform="matrix(1 0 0 1 3036 1951)">Requires Xcode 15 or greater</text>
  <text id="descriptive-name" style="stroke:none;fill:black;font-family:sans-serif;font-size:13;text-anchor:end;" transform="matrix(1 0 0 1 3036 1969)">Generated from RoboHeart2-symbol</text>
  <text style="stroke:none;fill:black;font-family:sans-serif;font-size:13;text-anchor:end;" transform="matrix(1 0 0 1 3036 1987)">Typeset at 100.0 points</text>
  <text style="stroke:none;fill:black;font-family:sans-serif;font-size:13;" transform="matrix(1 0 0 1 263 726)">Small</text>
  <text style="stroke:none;fill:black;font-family:sans-serif;font-size:13;" transform="matrix(1 0 0 1 263 1156)">Medium</text>
  <text style="stroke:none;fill:black;font-family:sans-serif;font-size:13;" transform="matrix(1 0 0 1 263 1586)">Large</text>
 </g>
 <g id="Guides">
  <g id="H-reference" style="fill:#27AAE1;stroke:none;" transform="matrix(1 0 0 1 339 696)">
   <path d="M0.993654 0L3.63775 0L29.3281-67.1323L30.0303-67.1323L30.0303-70.459L28.1226-70.459ZM11.6885-24.4799L46.9815-24.4799L46.2315-26.7285L12.4385-26.7285ZM55.1196 0L57.7637 0L30.6382-70.459L29.4326-70.459L29.4326-67.1323Z"/>
  </g>
  <line id="Baseline-S" style="fill:none;stroke:#27AAE1;opacity:1;stroke-width:0.5;" x1="263" x2="3036" y1="696" y2="696"/>
  <line id="Capline-S" style="fill:none;stroke:#27AAE1;opacity:1;stroke-width:0.5;" x1="263" x2="3036" y1="625.541" y2="625.541"/>
  <g id="H-reference" style="fill:#27AAE1;stroke:none;" transform="matrix(1 0 0 1 339 1126)">
   <path d="M0.993654 0L3.63775 0L29.3281-67.1323L30.0303-67.1323L30.0303-70.459L28.1226-70.459ZM11.6885-24.4799L46.9815-24.4799L46.2315-26.7285L12.4385-26.7285ZM55.1196 0L57.7637 0L30.6382-70.459L29.4326-70.459L29.4326-67.1323Z"/>
  </g>
  <line id="Baseline-M" style="fill:none;stroke:#27AAE1;opacity:1;stroke-width:0.5;" x1="263" x2="3036" y1="1126" y2="1126"/>
  <line id="Capline-M" style="fill:none;stroke:#27AAE1;opacity:1;stroke-width:0.5;" x1="263" x2="3036" y1="1055.54" y2="1055.54"/>
  <g id="H-reference" style="fill:#27AAE1;stroke:none;" transform="matrix(1 0 0 1 339 1556)">
   <path d="M0.993654 0L3.63775 0L29.3281-67.1323L30.0303-67.1323L30.0303-70.459L28.1226-70.459ZM11.6885-24.4799L46.9815-24.4799L46.2315-26.7285L12.4385-26.7285ZM55.1196 0L57.7637 0L30.6382-70.459L29.4326-70.459L29.4326-67.1323Z"/>
  </g>
  <line id="Baseline-L" style="fill:none;stroke:#27AAE1;opacity:1;stroke-width:0.5;" x1="263" x2="3036" y1="1556" y2="1556"/>
  <line id="Capline-L" style="fill:none;stroke:#27AAE1;opacity:1;stroke-width:0.5;" x1="263" x2="3036" y1="1485.54" y2="1485.54"/>
  <line id="left-margin-Ultralight-S" style="fill:none;stroke:#00AEEF;stroke-width:0.5;opacity:1.0;" x1="515.423" x2="515.423" y1="600.785" y2="720.121"/>
  <line id="right-margin-Ultralight-S" style="fill:none;stroke:#00AEEF;stroke-width:0.5;opacity:1.0;" x1="604" x2="604" y1="600.785" y2="720.121"/>
  <line id="left-margin-Regular-S" style="fill:none;stroke:#00AEEF;stroke-width:0.5;opacity:1.0;" x1="1405.56" x2="1405.56" y1="600.785" y2="720.121"/>
  <line id="right-margin-Regular-S" style="fill:none;stroke:#00AEEF;stroke-width:0.5;opacity:1.0;" x1="1494.13" x2="1494.13" y1="600.785" y2="720.121"/>
  <line id="left-margin-Black-S" style="fill:none;stroke:#00AEEF;stroke-width:0.5;opacity:1.0;" x1="2889.11" x2="2889.11" y1="600.785" y2="720.121"/>
  <line id="right-margin-Black-S" style="fill:none;stroke:#00AEEF;stroke-width:0.5;opacity:1.0;" x1="2977.69" x2="2977.69" y1="600.785" y2="720.121"/>
 </g>
 <g id="Symbols">
  <g id="Black-S" transform="matrix(1.00656 0 0 1.00656 2889.11 696)">
   <path class="monochrome-2 multicolor-2:systemPinkColor hierarchical-2:primary SFSymbolsPreviewWireframe" d="M29.328-67.266C28.052-67.277 26.936-66.169 26.928-64.887C26.917-63.612 28.023-62.489 29.302-62.478C30.575-62.467 31.695-63.578 31.706-64.857C31.717-66.132 30.612-67.255 29.332-67.262Z"/>
   <path class="monochrome-4 multicolor-4:tintColor hierarchical-4:primary SFSymbolsPreviewWireframe" d="M43.435 0C42.404-0.245 41.35-0.42 40.345-0.744C36.395-2.019 33.171-4.443 30.326-7.376C24.317-13.569 20.174-20.904 17.392-29.042C16.086-32.852 15.162-36.748 15.355-40.804C15.611-46.299 17.555-51.024 22.11-54.355C25.678-56.965 29.677-57.604 33.958-56.526C34.176-56.47 34.395-56.418 34.64-56.422C33.012-58.009 31.435-59.66 28.92-59.76C26.283-59.864 24.183-62.221 24.206-64.991C24.228-67.627 26.435-69.928 29.017-69.995C32.737-70.091 36.039-68.839 38.95-66.627C40.824-65.203 42.511-63.534 44.336-61.928C45.33-62.983 46.447-64.169 47.563-65.359C48.187-66.021 48.802-66.694 49.433-67.352C50.104-68.054 50.59-68.147 51.432-67.694C54.274-66.173 57.115-64.645 59.949-63.106C60.958-62.56 61.121-61.697 60.405-60.779C59.578-59.719 58.729-58.682 57.89-57.634C57.757-57.463 57.634-57.284 57.597-57.236C59.211-56.872 60.902-56.693 62.442-56.11C67.705-54.102 70.854-50.102 72.034-44.715C73.67-37.258 72.164-30.38 67.375-24.354C65.509-22.004 63.484-19.781 61.518-17.51C60.962-16.867 60.186-16.8 59.578-17.302C59.022-17.763 58.888-18.588 59.389-19.198C60.691-20.778 62.015-22.339 63.384-23.863C65.758-26.51 67.872-29.321 68.87-32.797C70.202-37.432 70.458-42.072 68.532-46.633C67.612-48.816 66.203-50.634 64.285-52.043C64.014-52.24 63.725-52.414 63.313-52.682L63.313-51.786C63.313-46.113 63.313-40.44 63.313-34.767C63.313-33.228 62.909-32.823 61.377-32.823C60.242-32.823 59.107-32.823 57.916-32.823L57.916-30.083C59.24-30.083 60.572-30.098 61.908-30.079C62.968-30.06 63.61-29.023 63.143-28.112C62.868-27.577 62.412-27.343 61.804-27.35C60.513-27.365 59.222-27.354 57.857-27.354C57.857-26.109 57.857-24.93 57.857-23.752C57.857-22.317 57.415-21.885 55.98-21.885C54.823-21.885 53.665-21.885 52.4-21.885C52.4-20.926 52.4-20.001 52.4-19.079C52.4-18.67 52.419-18.257 52.393-17.848C52.334-16.963 51.766-16.402 50.976-16.417C50.219-16.432 49.663-16.989 49.626-17.844C49.589-18.685 49.615-19.528 49.615-20.372C49.615-20.848 49.615-21.32 49.615-21.841L46.944-21.841C46.944-20.495 46.944-19.183 46.944-17.867C46.944-16.372 46.477-15.904 44.993-15.9C42.945-15.9 40.901-15.889 38.854-15.908C38.45-15.908 38.212-15.822 38.001-15.428C37.033-13.599 35.059-12.792 33.153-13.398C31.216-14.012 30.085-15.822 30.333-17.911C30.556-19.8 32.184-21.339 34.191-21.417C35.905-21.484 37.188-20.685 38.042-19.179C38.157-18.978 38.405-18.718 38.594-18.714C40.408-18.681 42.226-18.692 44.099-18.692L44.099-21.882C43.272-21.882 42.419-21.882 41.565-21.882C41.157-21.882 40.746-21.882 40.338-21.882C39.236-21.889 38.717-22.391 38.702-23.51C38.687-24.759 38.702-26.012 38.702-27.306L20.93-27.306C21.246-26.558 21.535-25.83 21.858-25.109C24.68-18.826 28.286-13.067 33.327-8.313C35.864-5.918 38.672-3.911 42.144-3.104C45.23-2.387 48.29-2.68 51.262-3.721C52.909-4.298 54.136-5.431 54.971-6.978C55.056-7.138 55.134-7.305 55.231-7.457C55.672-8.179 56.418-8.405 57.1-8.034C57.768-7.673 58.002-6.896 57.638-6.145C56.47-3.747 54.674-1.985 52.145-1.134C50.739-0.662 49.24-0.465 47.782-0.145C47.563-0.097 47.341-0.052 47.122-0.007L43.439-0.007ZM60.457-35.581C60.487-35.67 60.513-35.711 60.513-35.752C60.52-41.652 60.528-47.552 60.505-53.452C60.505-53.63 60.242-53.92 60.053-53.965C58.58-54.314 57.093-54.381 55.594-54.087C52.067-53.396 48.91-51.819 45.868-49.976C43.836-48.745 44.132-48.619 41.936-49.961C39.099-51.697 36.154-53.195 32.882-53.939C32.463-54.035 32.036-54.091 31.498-54.188C31.68-53.782 31.791-53.537 31.903-53.292C32.993-50.968 34.084-48.645 35.171-46.317C35.649-45.295 35.586-44.946 34.781-44.135C34.154-43.507 33.542-42.864 32.897-42.254C32.57-41.946 32.466-41.685 32.607-41.202C33.086-39.577 32.774-38.02 31.417-37.016C30.471-36.317 30.326-35.622 30.452-34.596C30.63-33.113 30.693-31.614 30.801-30.12L38.657-30.12L38.657-32.808C37.329-32.808 36.039-32.819 34.751-32.804C34.143-32.797 33.687-33.031 33.412-33.566C32.945-34.477 33.59-35.514 34.647-35.533C35.979-35.555 37.315-35.536 38.698-35.536C38.698-36.76 38.698-37.897 38.698-39.031C38.698-40.611 39.095-41.005 40.671-41.005C41.821-41.005 42.971-41.005 44.155-41.005C44.155-42.381 44.136-43.656 44.158-44.931C44.177-45.953 44.844-46.581 45.735-46.466C46.451-46.377 46.922-45.778 46.933-44.886C46.948-43.618 46.937-42.347 46.937-41.046L49.607-41.046C49.607-41.54 49.607-41.99 49.607-42.444C49.607-43.332 49.578-44.221 49.626-45.109C49.667-45.927 50.23-46.455 50.965-46.47C51.733-46.488 52.3-45.957 52.382-45.113C52.415-44.752 52.397-44.384 52.397-44.02C52.397-43.027 52.397-42.039 52.397-41.001C53.632-41.001 54.767-41.001 55.898-41.001C57.46-41.001 57.853-40.604 57.853-39.005C57.853-37.871 57.853-36.737 57.853-35.57L60.453-35.57Z"/>
   <path class="monochrome-3 monochrome-4 multicolor-3:systemGrayColor multicolor-4:tintColor hierarchical-3:primary hierarchical-4:primary SFSymbolsPreviewWireframe" d="M41.539-38.25L41.539-24.662L55.034-24.662L55.034-38.25L41.539-38.25Z"/>
   <path class="monochrome-4 multicolor-4:tintColor hierarchical-4:primary SFSymbolsPreviewWireframe" d="M18.367-35.819C18.946-35.819 19.376-35.819 19.806-35.819C20.737-35.826 21.772-35.592 22.57-35.923C23.367-36.254 23.913-37.172 24.599-37.808C24.907-38.094 24.951-38.328 24.818-38.745C23.901-41.6 26.301-44.659 29.124-44.057C30.408-43.782 31.094-44.154 31.784-45.024C31.839-45.094 31.906-45.161 31.977-45.217C32.359-45.503 32.411-45.79 32.184-46.254C31.027-48.648 29.892-51.054 28.805-53.478C28.549-54.046 28.241-54.117 27.718-53.983C25.241-53.355 23.167-52.072 21.524-50.113C19.157-47.288 18.171-43.949 18.089-40.332C18.056-38.845 18.263-37.351 18.367-35.823ZM28.049-30.075C27.908-31.901 27.785-33.648 27.629-35.388C27.607-35.652 27.433-36.098 27.296-36.113C27.032-36.139 26.683-35.979 26.472-35.786C25.771-35.139 25.096-34.458 24.443-33.763C23.994-33.284 23.49-33.057 22.818-33.079C21.594-33.12 20.37-33.09 19.039-33.09C19.324-32.109 19.58-31.198 19.873-30.302C19.91-30.194 20.155-30.09 20.303-30.09C22.844-30.079 25.389-30.079 28.049-30.079Z"/>
   <path class="monochrome-1 monochrome-4 multicolor-1:systemPurpleColor multicolor-4:tintColor hierarchical-1:primary hierarchical-4:primary SFSymbolsPreviewWireframe" d="M28.698-38.682C29.44-38.682 30.055-39.284 30.059-40.016C30.059-40.741 29.44-41.358 28.701-41.362C27.967-41.362 27.34-40.749 27.34-40.024C27.34-39.295 27.956-38.685 28.698-38.685Z"/>
   <path class="monochrome-0 monochrome-4 multicolor-0:systemGreenColor multicolor-4:tintColor hierarchical-0:primary hierarchical-4:primary SFSymbolsPreviewWireframe" d="M34.354-18.636C33.594-18.625 33.038-18.049 33.049-17.279C33.06-16.521 33.639-15.967 34.403-15.974C35.159-15.986 35.719-16.566 35.708-17.331C35.697-18.094 35.119-18.647 34.351-18.636Z"/>
   <path class="monochrome-4 multicolor-4:tintColor hierarchical-4:primary SFSymbolsPreviewWireframe" d="M58.276-11.331C57.501-11.32 56.885-11.915 56.881-12.681C56.881-13.439 57.508-14.071 58.258-14.064C58.97-14.056 59.6-13.447 59.63-12.729C59.66-11.989 59.033-11.342 58.276-11.327Z"/>
   <path class="monochrome-4 monochrome-5 multicolor-4:tintColor multicolor-5:tintColor hierarchical-4:primary hierarchical-5:primary SFSymbolsPreviewWireframe" d="M50.876-64.865C47.452-61.21 44.054-57.589 40.638-53.939C41.603-53.381 42.5-52.89 43.357-52.344C43.754-52.091 44.04-52.087 44.451-52.34C47.144-54.002 49.971-55.381 53.005-56.307C53.172-56.359 53.369-56.426 53.472-56.552C54.76-58.132 56.032-59.727 57.349-61.366C55.164-62.545 53.035-63.697 50.872-64.865Z"/>
  </g>
  <g id="Regular-S" transform="matrix(1.00656 0 0 1.00656 1405.56 696)">
   <path class="monochrome-2 multicolor-2:systemPinkColor hierarchical-2:primary SFSymbolsPreviewWireframe" d="M29.328-67.266C28.052-67.277 26.936-66.169 26.928-64.887C26.917-63.612 28.023-62.489 29.302-62.478C30.575-62.467 31.695-63.578 31.706-64.857C31.717-66.132 30.612-67.255 29.332-67.262Z"/>
   <path class="monochrome-4 multicolor-4:tintColor hierarchical-4:primary SFSymbolsPreviewWireframe" d="M43.435 0C42.404-0.245 41.35-0.42 40.345-0.744C36.395-2.019 33.171-4.443 30.326-7.376C24.317-13.569 20.174-20.904 17.392-29.042C16.086-32.852 15.162-36.748 15.355-40.804C15.611-46.299 17.555-51.024 22.11-54.355C25.678-56.965 29.677-57.604 33.958-56.526C34.176-56.47 34.395-56.418 34.64-56.422C33.012-58.009 31.435-59.66 28.92-59.76C26.283-59.864 24.183-62.221 24.206-64.991C24.228-67.627 26.435-69.928 29.017-69.995C32.737-70.091 36.038-68.839 38.95-66.627C40.824-65.203 42.511-63.534 44.336-61.928C45.33-62.983 46.447-64.169 47.563-65.359C48.187-66.021 48.802-66.694 49.433-67.352C50.104-68.054 50.59-68.147 51.432-67.694C54.274-66.173 57.115-64.645 59.949-63.106C60.958-62.56 61.121-61.697 60.405-60.779C59.578-59.719 58.729-58.682 57.89-57.634C57.757-57.463 57.634-57.284 57.597-57.236C59.211-56.872 60.902-56.693 62.442-56.11C67.705-54.102 70.854-50.102 72.034-44.715C73.67-37.258 72.164-30.38 67.375-24.354C65.509-22.004 63.484-19.781 61.518-17.51C60.962-16.867 60.186-16.8 59.578-17.302C59.022-17.763 58.888-18.588 59.389-19.198C60.691-20.778 62.015-22.339 63.384-23.863C65.758-26.51 67.872-29.321 68.87-32.797C70.202-37.432 70.458-42.072 68.532-46.633C67.613-48.816 66.203-50.634 64.285-52.043C64.014-52.24 63.725-52.414 63.313-52.682L63.313-51.786C63.313-46.113 63.313-40.44 63.313-34.767C63.313-33.228 62.909-32.823 61.377-32.823C60.242-32.823 59.107-32.823 57.916-32.823L57.916-30.083C59.24-30.083 60.572-30.098 61.908-30.079C62.968-30.06 63.61-29.023 63.143-28.112C62.868-27.577 62.412-27.343 61.804-27.35C60.513-27.365 59.222-27.354 57.857-27.354C57.857-26.109 57.857-24.93 57.857-23.752C57.857-22.317 57.415-21.885 55.98-21.885C54.823-21.885 53.665-21.885 52.4-21.885C52.4-20.926 52.4-20.001 52.4-19.079C52.4-18.67 52.419-18.257 52.393-17.848C52.334-16.963 51.766-16.402 50.976-16.417C50.219-16.432 49.663-16.989 49.626-17.844C49.589-18.685 49.615-19.528 49.615-20.372C49.615-20.848 49.615-21.32 49.615-21.841L46.944-21.841C46.944-20.495 46.944-19.183 46.944-17.867C46.944-16.372 46.477-15.904 44.993-15.9C42.945-15.9 40.901-15.889 38.854-15.908C38.45-15.908 38.212-15.822 38.001-15.428C37.033-13.599 35.059-12.792 33.153-13.398C31.216-14.012 30.085-15.822 30.333-17.911C30.556-19.8 32.184-21.339 34.191-21.417C35.905-21.484 37.188-20.685 38.042-19.179C38.157-18.978 38.405-18.718 38.594-18.714C40.408-18.681 42.226-18.692 44.099-18.692L44.099-21.882C43.272-21.882 42.419-21.882 41.565-21.882C41.157-21.882 40.746-21.882 40.338-21.882C39.236-21.889 38.717-22.391 38.702-23.51C38.687-24.759 38.702-26.012 38.702-27.306L20.93-27.306C21.246-26.558 21.535-25.83 21.858-25.109C24.68-18.826 28.286-13.067 33.327-8.313C35.864-5.918 38.672-3.911 42.144-3.104C45.23-2.387 48.29-2.68 51.262-3.721C52.909-4.298 54.136-5.431 54.971-6.978C55.056-7.138 55.134-7.305 55.231-7.457C55.672-8.179 56.418-8.405 57.1-8.034C57.768-7.673 58.002-6.896 57.638-6.145C56.47-3.747 54.674-1.985 52.145-1.134C50.739-0.662 49.24-0.465 47.782-0.145C47.563-0.097 47.341-0.052 47.122-0.007L43.439-0.007ZM60.457-35.581C60.487-35.67 60.513-35.711 60.513-35.752C60.52-41.652 60.528-47.552 60.505-53.452C60.505-53.63 60.242-53.92 60.053-53.965C58.58-54.314 57.093-54.381 55.594-54.087C52.067-53.396 48.91-51.819 45.868-49.976C43.836-48.745 44.132-48.619 41.936-49.961C39.099-51.697 36.153-53.195 32.882-53.939C32.463-54.035 32.036-54.091 31.498-54.188C31.68-53.782 31.791-53.537 31.903-53.292C32.993-50.968 34.084-48.645 35.171-46.317C35.649-45.295 35.586-44.946 34.781-44.135C34.154-43.507 33.542-42.864 32.897-42.254C32.57-41.946 32.466-41.685 32.607-41.202C33.086-39.577 32.774-38.02 31.417-37.016C30.471-36.317 30.326-35.622 30.452-34.596C30.63-33.113 30.693-31.614 30.801-30.12L38.657-30.12L38.657-32.808C37.329-32.808 36.038-32.819 34.751-32.804C34.143-32.797 33.687-33.031 33.412-33.566C32.945-34.477 33.59-35.514 34.647-35.533C35.979-35.555 37.315-35.536 38.698-35.536C38.698-36.76 38.698-37.897 38.698-39.031C38.698-40.611 39.095-41.005 40.671-41.005C41.821-41.005 42.971-41.005 44.155-41.005C44.155-42.381 44.136-43.656 44.158-44.931C44.177-45.953 44.845-46.581 45.735-46.466C46.451-46.377 46.922-45.778 46.933-44.886C46.948-43.618 46.937-42.347 46.937-41.046L49.607-41.046C49.607-41.54 49.607-41.99 49.607-42.444C49.607-43.332 49.578-44.221 49.626-45.109C49.667-45.927 50.23-46.455 50.965-46.47C51.733-46.488 52.3-45.957 52.382-45.113C52.415-44.752 52.397-44.384 52.397-44.02C52.397-43.027 52.397-42.039 52.397-41.001C53.632-41.001 54.767-41.001 55.898-41.001C57.46-41.001 57.853-40.604 57.853-39.005C57.853-37.871 57.853-36.737 57.853-35.57L60.453-35.57Z"/>
   <path class="monochrome-3 monochrome-4 multicolor-3:systemGrayColor multicolor-4:tintColor hierarchical-3:primary hierarchical-4:primary SFSymbolsPreviewWireframe" d="M41.539-38.25L41.539-24.662L55.034-24.662L55.034-38.25L41.539-38.25Z"/>
   <path class="monochrome-4 multicolor-4:tintColor hierarchical-4:primary SFSymbolsPreviewWireframe" d="M18.367-35.819C18.946-35.819 19.376-35.819 19.806-35.819C20.737-35.826 21.772-35.592 22.57-35.923C23.367-36.254 23.913-37.172 24.599-37.808C24.907-38.094 24.951-38.328 24.818-38.745C23.901-41.6 26.301-44.659 29.124-44.057C30.408-43.782 31.094-44.154 31.784-45.024C31.84-45.094 31.906-45.161 31.977-45.217C32.359-45.503 32.411-45.79 32.184-46.254C31.027-48.648 29.892-51.054 28.805-53.478C28.549-54.046 28.241-54.117 27.718-53.983C25.241-53.355 23.167-52.072 21.524-50.113C19.157-47.288 18.171-43.949 18.089-40.332C18.056-38.845 18.263-37.351 18.367-35.823ZM28.049-30.075C27.908-31.901 27.785-33.648 27.629-35.388C27.607-35.652 27.433-36.098 27.296-36.113C27.032-36.139 26.684-35.979 26.472-35.786C25.771-35.139 25.096-34.458 24.443-33.763C23.994-33.284 23.49-33.057 22.818-33.079C21.594-33.12 20.37-33.09 19.039-33.09C19.324-32.109 19.58-31.198 19.873-30.302C19.91-30.194 20.155-30.09 20.303-30.09C22.844-30.079 25.389-30.079 28.049-30.079Z"/>
   <path class="monochrome-1 monochrome-4 multicolor-1:systemPurpleColor multicolor-4:tintColor hierarchical-1:primary hierarchical-4:primary SFSymbolsPreviewWireframe" d="M28.698-38.682C29.44-38.682 30.055-39.284 30.059-40.016C30.059-40.741 29.44-41.358 28.701-41.362C27.967-41.362 27.34-40.749 27.34-40.024C27.34-39.295 27.956-38.685 28.698-38.685Z"/>
   <path class="monochrome-0 monochrome-4 multicolor-0:systemGreenColor multicolor-4:tintColor hierarchical-0:primary hierarchical-4:primary SFSymbolsPreviewWireframe" d="M34.354-18.636C33.594-18.625 33.038-18.049 33.049-17.279C33.06-16.521 33.639-15.967 34.403-15.974C35.159-15.986 35.719-16.566 35.708-17.331C35.697-18.094 35.119-18.647 34.351-18.636Z"/>
   <path class="monochrome-4 multicolor-4:tintColor hierarchical-4:primary SFSymbolsPreviewWireframe" d="M58.276-11.331C57.501-11.32 56.885-11.915 56.881-12.681C56.881-13.439 57.508-14.071 58.258-14.064C58.97-14.056 59.6-13.447 59.63-12.729C59.66-11.989 59.033-11.342 58.276-11.327Z"/>
   <path class="monochrome-4 monochrome-5 multicolor-4:tintColor multicolor-5:tintColor hierarchical-4:primary hierarchical-5:primary SFSymbolsPreviewWireframe" d="M50.876-64.865C47.452-61.21 44.054-57.589 40.638-53.939C41.603-53.381 42.5-52.89 43.357-52.344C43.754-52.091 44.04-52.087 44.451-52.34C47.144-54.002 49.971-55.381 53.005-56.307C53.172-56.359 53.369-56.426 53.472-56.552C54.76-58.132 56.032-59.727 57.349-61.366C55.164-62.545 53.035-63.697 50.872-64.865Z"/>
  </g>
  <g id="Ultralight-S" transform="matrix(1.00656 0 0 1.00656 515.423 696)">
   <path class="monochrome-2 multicolor-2:systemPinkColor hierarchical-2:primary SFSymbolsPreviewWireframe" d="M29.328-67.266C28.052-67.277 26.936-66.169 26.928-64.887C26.917-63.612 28.023-62.489 29.302-62.478C30.575-62.467 31.695-63.578 31.706-64.857C31.717-66.132 30.612-67.255 29.332-67.262Z"/>
   <path class="monochrome-4 multicolor-4:tintColor hierarchical-4:primary SFSymbolsPreviewWireframe" d="M43.435 0C42.404-0.245 41.35-0.42 40.345-0.744C36.395-2.019 33.171-4.443 30.326-7.376C24.317-13.569 20.174-20.904 17.392-29.042C16.086-32.852 15.162-36.748 15.355-40.804C15.611-46.299 17.555-51.024 22.11-54.355C25.678-56.965 29.677-57.604 33.958-56.526C34.176-56.47 34.395-56.418 34.64-56.422C33.012-58.009 31.435-59.66 28.92-59.76C26.283-59.864 24.183-62.221 24.206-64.991C24.228-67.627 26.435-69.928 29.017-69.995C32.737-70.091 36.038-68.839 38.95-66.627C40.824-65.203 42.511-63.534 44.336-61.928C45.33-62.983 46.447-64.169 47.563-65.359C48.187-66.021 48.802-66.694 49.433-67.352C50.104-68.054 50.59-68.147 51.432-67.694C54.274-66.173 57.115-64.645 59.949-63.106C60.958-62.56 61.121-61.697 60.405-60.779C59.578-59.719 58.729-58.682 57.89-57.634C57.757-57.463 57.634-57.284 57.597-57.236C59.211-56.872 60.902-56.693 62.442-56.11C67.705-54.102 70.854-50.102 72.034-44.715C73.67-37.258 72.164-30.38 67.375-24.354C65.509-22.004 63.484-19.781 61.518-17.51C60.962-16.867 60.186-16.8 59.578-17.302C59.022-17.763 58.888-18.588 59.389-19.198C60.691-20.778 62.015-22.339 63.384-23.863C65.758-26.51 67.872-29.321 68.87-32.797C70.202-37.432 70.458-42.072 68.532-46.633C67.612-48.816 66.203-50.634 64.285-52.043C64.014-52.24 63.725-52.414 63.313-52.682L63.313-51.786C63.313-46.113 63.313-40.44 63.313-34.767C63.313-33.228 62.909-32.823 61.377-32.823C60.242-32.823 59.107-32.823 57.916-32.823L57.916-30.083C59.24-30.083 60.572-30.098 61.908-30.079C62.968-30.06 63.61-29.023 63.143-28.112C62.868-27.577 62.412-27.343 61.804-27.35C60.513-27.365 59.222-27.354 57.857-27.354C57.857-26.109 57.857-24.93 57.857-23.752C57.857-22.317 57.415-21.885 55.98-21.885C54.823-21.885 53.665-21.885 52.4-21.885C52.4-20.926 52.4-20.001 52.4-19.079C52.4-18.67 52.419-18.257 52.393-17.848C52.334-16.963 51.766-16.402 50.976-16.417C50.219-16.432 49.663-16.989 49.626-17.844C49.589-18.685 49.615-19.528 49.615-20.372C49.615-20.848 49.615-21.32 49.615-21.841L46.944-21.841C46.944-20.495 46.944-19.183 46.944-17.867C46.944-16.372 46.477-15.904 44.993-15.9C42.945-15.9 40.901-15.889 38.854-15.908C38.45-15.908 38.212-15.822 38.001-15.428C37.033-13.599 35.059-12.792 33.153-13.398C31.216-14.012 30.085-15.822 30.333-17.911C30.556-19.8 32.184-21.339 34.191-21.417C35.905-21.484 37.188-20.685 38.042-19.179C38.157-18.978 38.405-18.718 38.594-18.714C40.408-18.681 42.226-18.692 44.099-18.692L44.099-21.882C43.272-21.882 42.419-21.882 41.565-21.882C41.157-21.882 40.746-21.882 40.338-21.882C39.236-21.889 38.717-22.391 38.702-23.51C38.687-24.759 38.702-26.012 38.702-27.306L20.93-27.306C21.246-26.558 21.535-25.83 21.858-25.109C24.68-18.826 28.286-13.067 33.327-8.313C35.864-5.918 38.672-3.911 42.144-3.104C45.23-2.387 48.29-2.68 51.262-3.721C52.909-4.298 54.136-5.431 54.971-6.978C55.056-7.138 55.134-7.305 55.231-7.457C55.672-8.179 56.418-8.405 57.1-8.034C57.768-7.673 58.002-6.896 57.638-6.145C56.47-3.747 54.674-1.985 52.145-1.134C50.739-0.662 49.24-0.465 47.782-0.145C47.563-0.097 47.341-0.052 47.122-0.007L43.439-0.007ZM60.457-35.581C60.487-35.67 60.513-35.711 60.513-35.752C60.52-41.652 60.528-47.552 60.505-53.452C60.505-53.63 60.242-53.92 60.053-53.965C58.58-54.314 57.093-54.381 55.594-54.087C52.067-53.396 48.91-51.819 45.868-49.976C43.836-48.745 44.132-48.619 41.936-49.961C39.099-51.697 36.153-53.195 32.882-53.939C32.463-54.035 32.036-54.091 31.498-54.188C31.68-53.782 31.791-53.537 31.903-53.292C32.993-50.968 34.084-48.645 35.17-46.317C35.649-45.295 35.586-44.946 34.781-44.135C34.154-43.507 33.542-42.864 32.897-42.254C32.57-41.946 32.466-41.685 32.607-41.202C33.086-39.577 32.774-38.02 31.417-37.016C30.471-36.317 30.326-35.622 30.452-34.596C30.63-33.113 30.693-31.614 30.801-30.12L38.657-30.12L38.657-32.808C37.329-32.808 36.038-32.819 34.751-32.804C34.143-32.797 33.687-33.031 33.412-33.566C32.945-34.477 33.59-35.514 34.647-35.533C35.979-35.555 37.314-35.536 38.698-35.536C38.698-36.76 38.698-37.897 38.698-39.031C38.698-40.611 39.095-41.005 40.671-41.005C41.821-41.005 42.971-41.005 44.155-41.005C44.155-42.381 44.136-43.656 44.158-44.931C44.177-45.953 44.844-46.581 45.735-46.466C46.451-46.377 46.922-45.778 46.933-44.886C46.948-43.618 46.937-42.347 46.937-41.046L49.607-41.046C49.607-41.54 49.607-41.99 49.607-42.444C49.607-43.332 49.578-44.221 49.626-45.109C49.667-45.927 50.23-46.455 50.965-46.47C51.733-46.488 52.3-45.957 52.382-45.113C52.415-44.752 52.397-44.384 52.397-44.02C52.397-43.027 52.397-42.039 52.397-41.001C53.632-41.001 54.767-41.001 55.898-41.001C57.46-41.001 57.853-40.604 57.853-39.005C57.853-37.871 57.853-36.737 57.853-35.57L60.453-35.57Z"/>
   <path class="monochrome-3 monochrome-4 multicolor-3:systemGrayColor multicolor-4:tintColor hierarchical-3:primary hierarchical-4:primary SFSymbolsPreviewWireframe" d="M41.539-38.25L41.539-24.662L55.034-24.662L55.034-38.25L41.539-38.25Z"/>
   <path class="monochrome-4 multicolor-4:tintColor hierarchical-4:primary SFSymbolsPreviewWireframe" d="M18.367-35.819C18.946-35.819 19.376-35.819 19.806-35.819C20.737-35.826 21.772-35.592 22.57-35.923C23.367-36.254 23.913-37.172 24.599-37.808C24.907-38.094 24.951-38.328 24.818-38.745C23.901-41.6 26.301-44.659 29.124-44.057C30.408-43.782 31.094-44.154 31.784-45.024C31.839-45.094 31.906-45.161 31.977-45.217C32.359-45.503 32.411-45.79 32.184-46.254C31.027-48.648 29.892-51.054 28.805-53.478C28.549-54.046 28.241-54.117 27.718-53.983C25.241-53.355 23.167-52.072 21.524-50.113C19.157-47.288 18.171-43.949 18.089-40.332C18.056-38.845 18.263-37.351 18.367-35.823ZM28.049-30.075C27.908-31.901 27.785-33.648 27.629-35.388C27.607-35.652 27.433-36.098 27.296-36.113C27.032-36.139 26.683-35.979 26.472-35.786C25.771-35.139 25.096-34.458 24.443-33.763C23.994-33.284 23.49-33.057 22.818-33.079C21.594-33.12 20.37-33.09 19.038-33.09C19.324-32.109 19.58-31.198 19.873-30.302C19.91-30.194 20.155-30.09 20.303-30.09C22.844-30.079 25.389-30.079 28.049-30.079Z"/>
   <path class="monochrome-1 monochrome-4 multicolor-1:systemPurpleColor multicolor-4:tintColor hierarchical-1:primary hierarchical-4:primary SFSymbolsPreviewWireframe" d="M28.698-38.682C29.44-38.682 30.055-39.284 30.059-40.016C30.059-40.741 29.44-41.358 28.701-41.362C27.967-41.362 27.34-40.749 27.34-40.024C27.34-39.295 27.956-38.685 28.698-38.685Z"/>
   <path class="monochrome-0 monochrome-4 multicolor-0:systemGreenColor multicolor-4:tintColor hierarchical-0:primary hierarchical-4:primary SFSymbolsPreviewWireframe" d="M34.354-18.636C33.594-18.625 33.038-18.049 33.049-17.279C33.06-16.521 33.639-15.967 34.403-15.974C35.159-15.986 35.719-16.566 35.708-17.331C35.697-18.094 35.119-18.647 34.351-18.636Z"/>
   <path class="monochrome-4 multicolor-4:tintColor hierarchical-4:primary SFSymbolsPreviewWireframe" d="M58.276-11.331C57.501-11.32 56.885-11.915 56.881-12.681C56.881-13.439 57.508-14.071 58.258-14.064C58.97-14.056 59.6-13.447 59.63-12.729C59.66-11.989 59.033-11.342 58.276-11.327Z"/>
   <path class="monochrome-4 monochrome-5 multicolor-4:tintColor multicolor-5:tintColor hierarchical-4:primary hierarchical-5:primary SFSymbolsPreviewWireframe" d="M50.876-64.865C47.452-61.21 44.054-57.589 40.638-53.939C41.603-53.381 42.5-52.89 43.357-52.344C43.754-52.091 44.04-52.087 44.451-52.34C47.144-54.002 49.971-55.381 53.005-56.307C53.172-56.359 53.369-56.426 53.472-56.552C54.76-58.132 56.032-59.727 57.349-61.366C55.164-62.545 53.035-63.697 50.872-64.865Z"/>
  </g>
 </g>
</svg>
